<?xml version="1.0" standalone="no"?>
<!DOCTYPE svg PUBLIC "-//W3C//DTD SVG 1.1//EN" "http://www.w3.org/Graphics/SVG/1.1/DTD/svg11.dtd" >
<svg xmlns="http://www.w3.org/2000/svg">
<metadata></metadata>
<defs>
<font id="brianneshandregularregular" horiz-adv-x="1014" >
<font-face units-per-em="2048" ascent="1638" descent="-410" />
<missing-glyph horiz-adv-x="508" />
<glyph horiz-adv-x="2048" />
<glyph horiz-adv-x="2048" />
<glyph unicode="&#xd;" horiz-adv-x="508" />
<glyph unicode=" "  horiz-adv-x="508" />
<glyph unicode="&#x09;" horiz-adv-x="508" />
<glyph unicode="&#xa0;" horiz-adv-x="508" />
<glyph unicode="!" horiz-adv-x="511" d="M136 162q41 96 132 96q93 0 156 -132v-12q-34 -96 -108 -96q-180 29 -180 144zM140 698h12l-12 13v96l12 13l-12 14l12 136v164l-12 68h12l-12 13v96q0 95 84 95q156 -24 156 -177v-218l12 -68l-12 -82v-354l-24 -41l12 -13q-76 -68 -144 -82q-84 140 -84 327z" />
<glyph unicode="&#x22;" horiz-adv-x="672" d="M37 1100q72 134 72 192l-36 96q30 84 84 84v-12l12 12h12q156 -80 156 -156l-12 -12v-12l12 -12q0 -198 -192 -264q-108 0 -108 84zM348 1105q72 134 72 192l-36 96q30 84 84 84v-12l12 12h12q156 -80 156 -156l-12 -12v-12l12 -12q0 -198 -192 -264q-108 0 -108 84z" />
<glyph unicode="#" horiz-adv-x="1379" d="M-8 676q0 84 252 120l12 12l12 -12l96 24v12l-108 12l-12 -12h-60q-120 16 -120 120q0 83 336 108q36 240 144 240q84 -65 84 -180v-48h36l48 12l36 -12q33 252 108 252l36 12q52 0 96 -144l-12 -60v-60q384 -24 384 -84v-60q0 -45 -276 -72l-12 12h-12l-12 -12h-12 l-60 12l-24 -72q168 -57 168 -96v-12q-180 -70 -180 -120q0 -252 -120 -252l-12 -12q-96 39 -96 108l24 192l-24 24l-12 -12h-156q-20 -204 -120 -204h-48q-48 0 -72 168l-204 -24q-85 0 -108 120zM616 832h132v24h-132v-24z" />
<glyph unicode="%" horiz-adv-x="1388" d="M275 1093v48q48 252 180 252h12q0 -22 156 -60q108 -111 108 -192h24q110 444 180 444h48q50 -32 84 -108v-48l-12 -12l12 -12v-12q-264 -868 -456 -1344q-99 -204 -168 -204l-72 12l12 36l-12 48q0 73 108 384h12l-12 12v12l180 528q-67 -60 -144 -60q-208 0 -240 276z M491 1069l12 -12h36l36 96l-48 60q0 -43 -36 -72l12 -12v-12zM851 325h12l-12 12v12q42 360 204 360q228 -66 228 -144q41 0 72 -156q-36 -336 -228 -336l-48 -12q-168 0 -228 264zM1091 289h12q60 108 60 156q-16 84 -48 84l-24 -168v-72z" />
<glyph unicode="&#x26;" horiz-adv-x="859" d="M141 652q0 294 312 444v132l-24 144q56 84 84 84l12 12v12q75 0 156 -108v-132l-12 -48l12 -12v-12l-12 -60q21 -2 84 -120q-66 -156 -120 -156q0 -17 96 -48l24 -84q0 -103 -264 -180l-108 -156l12 -12h12q90 0 108 84l24 24h48q132 -60 132 -204l24 -156h-12 q24 -67 24 -192q0 -108 -120 -108h-12q-76 0 -120 360l-84 -24q-264 44 -264 192v60q0 68 72 168v12q-35 0 -84 84zM399 728h12l156 96q-48 25 -48 60h-12q-35 -6 -108 -156z" />
<glyph unicode="'" horiz-adv-x="346" d="M5 964q72 134 72 192l-36 96q30 84 84 84v-12l12 12h12q156 -80 156 -156l-12 -12v-12l12 -12q0 -198 -192 -264q-108 0 -108 84z" />
<glyph unicode="(" horiz-adv-x="758" d="M252 601q2 277 99.5 530t268.5 442h80q-172 -242 -230 -438q-57 -193 -57 -523v-22q0 -330 57 -522q58 -196 230 -438h-80q-171 189 -268.5 441.5t-99.5 529.5z" />
<glyph unicode=")" horiz-adv-x="758" d="M58 -370q172 242 230 438q57 192 57 522v22q0 330 -57 523q-58 196 -230 438h80q171 -189 268.5 -442t99.5 -530q-2 -277 -99.5 -529.5t-268.5 -441.5h-80z" />
<glyph unicode="*" horiz-adv-x="1024" d="M17 1306q0 73 240 84v12q-180 95 -180 216l72 60h36q51 0 180 -96v132l72 72h12l12 -12l12 12h12q83 0 108 -216v-48q172 228 276 228q84 -35 84 -108q0 -27 -156 -216v-12q86 0 120 -84q-28 -96 -156 -96l204 -252v-60l-24 -24q-143 0 -336 180l12 -144q0 -133 -84 -180 q-132 12 -132 108h-12q-69 -57 -240 -132h-24q-36 12 -36 72q223 256 300 384h-12l-204 -12q-156 12 -156 132z" />
<glyph unicode="+" d="M98 546v36l48 48h72l144 12l-36 264v24q51 72 96 72q149 0 168 -360h96q180 0 180 -60v-24q0 -99 -240 -144l12 -132q-9 -180 -144 -180q-75 0 -96 180l12 12v12l-12 108h-60l-48 -12q-192 21 -192 144z" />
<glyph unicode="," horiz-adv-x="557" d="M139 -49q72 134 72 192l-36 96q30 84 84 84v-12l12 12h12q156 -80 156 -156l-12 -12v-12l12 -12q0 -198 -192 -264q-108 0 -108 84z" />
<glyph unicode="-" horiz-adv-x="841" d="M28 559q11 57 96 96l60 -12l384 36q240 -30 240 -120v-12q0 -96 -180 -96l-444 -36q-156 24 -156 144z" />
<glyph unicode="." horiz-adv-x="557" d="M157 183q0 96 96 96h36q54 0 120 -156l-72 -84h-60q-120 0 -120 144z" />
<glyph unicode="/" horiz-adv-x="569" d="M13 -50l541 1484h80l-541 -1484h-80z" />
<glyph unicode="0" horiz-adv-x="859" d="M16 564q64 671 270 671l51 -31q58 125 90 125q246 0 398 -640v-78q0 -267 -257 -516l-167 -78q-217 0 -359 281h13zM273 564q0 -250 77 -250h26q231 152 231 390v16q0 203 -206 390l-13 16h-12q-65 -218 -103 -484v-78z" />
<glyph unicode="1" horiz-adv-x="389" d="M34 641l12 16l-12 114v243q0 275 108 275h36q76 0 96 -308v-97l12 -65l-12 -65l12 -48l-12 -65l36 -389h-12l12 -16v-162l-84 -65q-180 56 -180 551z" />
<glyph unicode="2" d="M87 179v34q0 78 204 368l156 384l-12 17v16l12 17v17q-64 0 -156 -134l-72 -50q-78 0 -120 100l12 17l-12 17v16q0 133 216 285q47 33 132 33q204 0 240 -251v-16q0 -256 -168 -585v-34q215 100 336 100q108 0 108 -200q0 -124 -672 -301h-12q-137 0 -192 150z" />
<glyph unicode="3" d="M62 1108q0 86 324 271h60q264 -41 264 -203v-55l-84 -230h12q264 -95 264 -244l12 -14l-12 -40l12 -14q0 -269 -384 -515q-57 -41 -180 -41q-54 24 -96 95v68l264 190q144 173 144 244l-12 13h-48q-124 -27 -312 -149q-81 0 -156 122q0 99 168 271q75 92 144 258h-12 l-216 -149l-72 -14q-72 85 -84 136z" />
<glyph unicode="4" horiz-adv-x="873" d="M22 488q0 45 156 336q80 264 192 264l48 12l72 -108v-24q-72 -228 -156 -372l36 -12l192 24v36l-12 84h12l-12 12v24l12 12l-12 12v132l-12 48l12 48v72l-12 60h12l-12 12q0 180 132 180h12q65 0 108 -216l-12 -12v-12l24 -480v-12l12 -60h-12l12 -12v-12l-12 -12 l24 -192l-24 -60l12 -12v-12q0 -216 -168 -216q-60 0 -72 348l-192 -36l-12 12h-12l-36 -12q-196 0 -300 156z" />
<glyph unicode="5" d="M20 627v28l84 401l-12 42q50 115 228 115q88 0 492 157q49 -5 96 -143q0 -86 -120 -129l-12 15h-12q-88 -78 -348 -115q-96 0 -96 -143l-24 -71h36v-14l60 14l72 -14l12 14h12q432 -108 432 -372q-195 -400 -456 -400q-192 14 -192 100v43q44 67 312 214l48 72l-144 57 l-12 -14h-12l-12 14h-12l-60 -14v14l-12 -14h-180l-12 14l-36 -14q-36 0 -120 143z" />
<glyph unicode="6" d="M86 516h12l-12 13q113 760 300 760q80 0 120 -133h-12l12 -14v-13q-168 -397 -168 -720h24q72 307 276 307h24q135 0 204 -120q28 0 72 -187q-120 -386 -456 -386q-264 0 -384 346zM530 290q98 0 192 159q-12 54 -72 54h-12l-60 -14l12 -80z" />
<glyph unicode="7" d="M20 1088v41l60 84l12 -14l60 28l36 -14q0 38 480 111l84 14q144 -38 144 -181v-28h12q-24 -410 -72 -737l12 -14q-22 -348 -132 -348q-64 0 -156 139l84 863v14h-24q-84 0 -408 -84q-134 0 -192 126z" />
<glyph unicode="8" d="M69 792v108q162 334 312 384h96q35 -44 192 -72q156 -103 156 -288q-96 -120 -120 -120v-36q91 0 180 -240l12 -60q0 -180 -432 -432l-96 -24q-264 36 -264 180v48l12 12l-12 12v12q0 39 168 348h-12q-192 44 -192 168zM297 852h12q202 56 288 156q-31 72 -132 72h-36 q-40 -16 -132 -228zM357 264q194 56 336 252l12 36q-24 72 -132 72q-202 -250 -216 -360z" />
<glyph unicode="9" d="M38 834v97q36 50 36 111q21 0 180 194q138 111 252 111h24q192 -21 192 -194l12 14h12q84 -119 84 -236l-12 -83v-125l-12 -14l12 -14l-12 -166v-14l12 -69h-12l12 -14v-236q0 -143 -108 -166q-156 0 -156 513v83h12l-12 83q-128 -83 -216 -83q-144 25 -144 56l-12 -14 h-12q-67 45 -132 166zM290 917l84 -14q204 73 204 194v14l-60 28q-84 0 -228 -222z" />
<glyph unicode=":" horiz-adv-x="557" d="M124 756v36q31 60 96 60h48q89 -73 108 -144q0 -45 -84 -108h-12q-156 0 -156 156zM160 300v48q51 72 96 72q68 0 156 -96v-72l-96 -84q-156 29 -156 132z" />
<glyph unicode=";" horiz-adv-x="557" d="M88 133v12q0 38 144 264q45 144 144 144q108 -116 108 -204q-58 -33 -120 -156q-28 0 -72 -60q-77 -48 -144 -48q-55 23 -60 48zM256 793q8 72 36 72h72l60 -72v-36l-60 -60h-12q-96 0 -96 96z" />
<glyph unicode="&#x3c;" d="M87 674v83l840 484v-167l-625 -359l625 -355v-167z" />
<glyph unicode="=" d="M80 492v60q0 72 528 96l12 -12l60 12h48q51 0 120 -60q0 -156 -288 -156q-240 -16 -240 -36q-183 0 -240 96zM152 780v48q85 48 156 48l12 -12h12q282 72 456 72q84 -28 84 -48v-84q0 -51 -192 -84v12q-250 -72 -384 -72q-144 8 -144 120z" />
<glyph unicode="&#x3e;" d="M87 193v167l625 355l-625 359v167l840 -484v-83z" />
<glyph unicode="?" horiz-adv-x="748" d="M18 1150q0 60 288 264l156 24q134 0 204 -216q-9 -72 -24 -72l12 -36q-76 -172 -264 -444v-24l120 -132l-12 -12l12 -12v-36q-36 -60 -96 -60q-188 53 -264 180l-36 60v60h-24v12q39 33 144 228q69 74 156 228v24q-192 -144 -228 -144l-12 -12q-132 12 -132 120zM258 130 v12q0 76 120 120q144 -70 144 -132q0 -120 -96 -120h-36q-86 35 -120 108z" />
<glyph unicode="@" horiz-adv-x="1230" d="M32 151q0 196 108 384q276 528 612 528q249 0 384 -360q24 -54 24 -156v-84q0 -328 -192 -432l-108 -24h-36l-24 24l-12 -12h-12q-93 30 -192 168q-97 -84 -168 -84h-12q-125 0 -180 180h-12v-72l24 -84h-12q99 -192 180 -192l12 12h12l48 -24q0 -129 -144 -144 q-139 0 -276 276zM224 319h12l12 36v12h-12l-12 -36v-12zM248 379h12q103 254 300 360l60 12v-12l12 12h12q94 0 132 -168l-12 -12v-12l24 -60l-12 -192q47 -72 96 -72h12q78 98 108 276q-31 384 -192 384h-36q-246 0 -504 -456l-12 -48v-12zM440 319h12q90 162 168 204v36 h-12q-130 -135 -168 -228v-12z" />
<glyph unicode="A" horiz-adv-x="1144" d="M16 89q240 1023 312 1236q40 36 72 36l-12 60v36l48 48h24q125 0 300 -540q297 -618 336 -756v-12q0 -107 -72 -144q-65 14 -300 468h-12l-396 -132l-84 -360l-96 -24h-60q-29 7 -60 84zM388 653l12 -12l204 48h24v12l-156 372z" />
<glyph unicode="B" horiz-adv-x="1219" d="M24 1187v12q0 123 288 312q101 60 240 60h36q300 0 300 -252q0 -48 -168 -276q243 -70 372 -240q65 -104 84 -228q0 -211 -528 -504l-240 -60q-216 0 -216 120q0 60 312 108q183 83 348 240q108 76 108 144q-20 94 -156 192l-132 48q-68 0 -300 -132h-12l24 -240 l-12 -180l-96 -84h-48q-36 12 -36 72v144q0 224 -36 348l12 12l-24 180l12 12l-12 60v36l12 12l-24 48l-12 -12h-48zM264 1211q65 0 72 -240h24l204 216q108 137 108 192h-12l-84 24l-132 -48v12q-180 -89 -180 -156z" />
<glyph unicode="C" horiz-adv-x="1234" d="M81 645h14l-14 14q11 168 28 168l-14 42q76 395 211 506q136 108 294 126q225 -39 225 -126q46 -49 84 -225q-22 -112 -56 -112h-42l-56 14l-42 -14q-56 75 -56 224l-29 57h-28q-86 0 -182 -183l-70 -323v-154q0 -379 266 -379h43q152 0 393 295h42q59 0 98 -85v-70 q0 -218 -379 -379l-126 -28q-453 0 -562 379z" />
<glyph unicode="D" horiz-adv-x="995" d="M17 1332v36q0 84 156 84l108 12q20 -76 300 -204l240 -192q144 -184 144 -360q0 -404 -576 -684l-108 -12q-72 0 -120 120q40 108 132 108q-96 306 -144 1008q-109 31 -132 84zM377 1116l48 -396h-12l84 -348h12q216 184 216 288h12q0 265 -348 456h-12z" />
<glyph unicode="E" horiz-adv-x="1099" d="M37 877q91 345 324 516q89 69 192 84q240 -15 240 -144l-12 -60l12 -36q-68 -72 -96 -72q-51 0 -72 132q-138 0 -312 -336l-24 -60h12l120 -36q147 36 228 84q108 0 144 -84v-12l-24 -72l12 -12q-223 -108 -384 -300l-84 -192l12 -12h36q230 0 612 252h48q36 -44 36 -84 h-12l12 -12v-12q0 -225 -600 -396l-12 12h-12l-72 -12q-312 62 -312 240q0 135 192 408v12q-148 0 -204 204z" />
<glyph unicode="F" horiz-adv-x="1079" d="M16 1040q0 67 240 180l276 108q175 48 264 48h144q132 -59 132 -84l-12 -12l12 -12v-12q0 -108 -252 -108q-337 -69 -396 -168l24 -192q265 144 444 144q32 0 60 -60q0 -132 -468 -348l24 -228l-12 -12l12 -48l-12 -72l12 -12v-12q0 -132 -156 -132q-79 0 -96 180h12 q-24 61 -24 216l-24 24h-12l-48 -12q-120 52 -120 132q0 72 168 120v24l-12 84h12q-9 144 -60 144l-12 -12h-12q-108 56 -108 132z" />
<glyph unicode="G" horiz-adv-x="1388" d="M94 388q83 489 307 760q131 160 213 160v-14l80 27h93q64 -16 107 -147q0 -131 -120 -213h-53l-54 67l14 13v13h-27q-96 -54 -280 -573v-133q0 -67 200 -80h13q221 0 414 226v94l-14 66q-321 -146 -440 -146q-80 43 -80 106q0 104 414 267l160 27q240 -38 240 -240 l13 -120h-13l13 -14v-53l-13 -13l13 -14v-240q0 -184 40 -400q0 -120 -147 -133v13l-13 -13h-13q-160 63 -160 467h-14q-204 -134 -453 -134q-440 48 -440 374z" />
<glyph unicode="H" horiz-adv-x="1171" d="M32 755q20 72 96 72v276q0 112 96 156h12q76 0 144 -96v-300l12 -84l-12 -12l60 -24q360 43 360 84v84l-12 48l12 36l-12 36h12l-12 12v72l12 12l-12 12v12l12 12v12l-12 48q29 204 72 204l72 12q101 -81 108 -156l-12 -12l12 -60v-24l-12 -12l12 -12v-228l12 -60h-12 l12 -12v-12l-12 -12l12 -12v-96q0 -273 36 -516q-31 -133 -108 -168h-12l-24 24l-12 -12h-24q-68 0 -96 420h12l-12 12v84q-212 -60 -384 -72l-36 12l-12 -12l12 -84v-168l-12 -12l12 -12v-96q0 -120 -132 -120v12l-12 -12h-12q-87 0 -108 348v24h12l-12 12v204 q-88 0 -96 156z" />
<glyph unicode="I" horiz-adv-x="657" d="M75 1281v36q42 84 108 84q144 -51 144 -264l24 -228l-12 -60l12 -48h-12l24 -168h-12l12 -12v-192l12 -48q0 -348 -144 -348l-36 -12l-72 48l-24 156l12 48v60l-12 48l12 12l-12 60v348l-12 60h12l-12 12v24l12 12l-12 12v12z" />
<glyph unicode="J" horiz-adv-x="1117" d="M20 436q36 154 154 154v-13q0 -190 258 -257q94 -52 167 -52h26q90 0 167 65l-90 463h13q-36 120 -78 579q55 51 103 51h26q167 -85 167 -283l-13 -13l129 -784q0 -322 -450 -322l-13 13h-13l-13 -13h-13q-527 195 -527 412z" />
<glyph unicode="K" horiz-adv-x="1275" d="M34 1404h12l-12 12v12q0 96 120 108q156 0 156 -612l12 -12q235 100 408 396l60 12q73 -34 108 -120v-36q-44 -156 -240 -336q-132 -62 -132 -84q708 -199 708 -276v-12q0 -76 -120 -120q-74 0 -684 180l-60 24h-24l24 -192l-12 -108v-84q-12 -132 -120 -132l-12 -12 q-82 34 -108 84v84z" />
<glyph unicode="L" horiz-adv-x="1198" d="M47 468v71l14 57l-14 14l99 780l71 57h85q37 -14 128 -142v-156q0 -110 -43 -213l14 -14v-14q-42 -176 -42 -411v-99l14 -71h57q265 56 298 99l14 -14h14q0 42 255 71h57q85 -32 99 -114q0 -176 -709 -340v14l-14 -14h-14l-71 14l-14 -14h-14q-256 90 -256 269 q-25 0 -28 170z" />
<glyph unicode="M" horiz-adv-x="1271" d="M58 956v60q0 228 60 228h72q156 0 252 -396h12q19 0 96 240l96 192q78 144 168 144q120 -78 120 -252q60 -360 264 -984l12 -84v-24q-16 -48 -96 -72q-137 0 -204 336l-36 60l12 12q-120 313 -144 540h-12q-160 -528 -264 -528q-156 34 -156 144h-12v-12l36 -156 q-12 -144 -36 -144l24 -144q0 -75 -60 -108q-156 0 -156 192h12q-36 145 -36 252h12l-12 12l12 36q-36 221 -36 456z" />
<glyph unicode="N" horiz-adv-x="1076" d="M53 148l27 159l13 571l-13 13v13l13 13v14l-13 13v13l13 13l-40 253q51 39 119 39v14q192 0 545 -797h13v133l13 13l-13 14v278l-13 80l13 13l-40 385h13l-13 13v14l13 13v13l-13 13l93 27q146 0 146 -252l40 -332h-14l14 -13v-159l13 -53l-13 -14l13 -132v-385 q0 -133 -106 -133h-67q-142 67 -305 332l-212 464h-27l14 -146l-14 -186l14 -172q0 -226 -107 -226h-26q-83 27 -93 67z" />
<glyph unicode="O" horiz-adv-x="1203" d="M33 696h17l-17 16v32l17 62l-17 16q0 292 218 533q67 63 218 110h134q202 0 453 -392l84 -298q0 -379 -386 -675q-149 -78 -235 -78h-100q-265 0 -369 439zM352 571l67 -267h67q214 87 352 424v31h17q-44 486 -319 486l-17 16h-16q-23 -105 -118 -204l17 -15v-16 l-50 -282l16 -16v-16l-16 -16v-15l16 -63h-16l16 -16v-15z" />
<glyph unicode="P" horiz-adv-x="1120" d="M25 1263v14q122 171 461 171q266 0 487 -303q40 -68 40 -132v-79q-86 -192 -408 -329l-132 -27l53 -382q-36 -184 -106 -184q-158 0 -158 145v132l-13 66h13q-26 18 -39 276l-40 40v79h26l-26 145h13l-39 224l13 13q-145 26 -145 131zM354 1184q44 -33 106 -382 q133 25 303 224q0 99 -211 198z" />
<glyph unicode="Q" horiz-adv-x="1180" d="M38 414l14 14v13l-14 14q84 978 408 978v-14l13 14h14l13 -14l14 14h41q299 -110 434 -448l41 -204v-41l-68 -312q174 -153 204 -218v-13l-13 -14l13 -14v-13l-54 -68l-14 14l-13 -14h-14q-106 41 -245 149q-199 -217 -339 -217h-136q-272 99 -272 299zM310 346 q9 -68 40 -68h41q95 0 218 150q-231 220 -231 299q64 81 108 81v-14l14 14h27q72 0 204 -149h14l27 122q0 291 -231 448q-231 -198 -231 -883z" />
<glyph unicode="R" horiz-adv-x="1283" d="M19 994h12l-12 12v12q96 111 96 168q297 108 432 108q312 -74 312 -300q0 -217 -432 -456l792 -120h12q0 -29 36 -60v-12q0 -103 -96 -132q-660 75 -660 96l-12 -12l-144 24v-36l12 -60h-12l12 -12v-96q0 -108 -84 -108q-150 0 -168 192h12l-12 12v24l12 12l-12 12v108 l-60 132v36l60 84l-12 12v12l12 48l-12 48v12l12 12l-12 12v36l12 12l-12 12v12l12 60q-96 9 -96 84zM343 754l12 -36q276 194 276 288q0 69 -96 84l-36 -12v12q-156 -48 -156 -84v-72l12 -48l-12 -12v-12l12 -108h-12z" />
<glyph unicode="S" horiz-adv-x="1085" d="M29 231q0 124 137 124l42 14l55 -28l151 14h55q66 49 165 69v13l-275 138q-261 131 -261 412v55q86 191 206 234l165 55q343 -43 343 -289v-55q0 -72 -96 -124q-96 19 -96 55l14 124q-11 47 -83 82h-41q-151 -31 -151 -151v-13q0 -165 384 -303q234 -183 234 -233v-28 q0 -244 -591 -302h-137q-156 0 -220 137z" />
<glyph unicode="T" horiz-adv-x="1350" d="M19 1197l60 96l60 -12h24v12l60 -12h36q199 0 744 72l60 -12l12 12h12q156 -36 156 -84v-48q0 -71 -276 -120v12l-264 -60v-12l48 -360h-12l84 -612q-73 -60 -108 -60q-120 65 -120 84q-60 157 -108 708h12l-36 228h-12l-96 -12l-204 12q-132 89 -132 168z" />
<glyph unicode="U" horiz-adv-x="1094" d="M46 1025q0 307 138 307h46q138 -98 138 -323v-184l16 -77h-16l31 -153h-15l61 -261h15q213 0 307 491v92q0 111 -92 369v15q0 92 62 92q265 0 307 -675q-46 -294 -200 -522q-184 -169 -276 -169h-108q-205 0 -337 338q-46 209 -77 660z" />
<glyph unicode="V" horiz-adv-x="1176" d="M53 1284q54 74 89 74q140 0 194 -119q44 -5 164 -402l194 -418h15q72 815 193 895q0 59 120 59l104 -119v-30l-15 -15l15 -44q-119 -924 -179 -1103q-20 -30 -253 -45q-230 179 -373 507l-238 641l-15 14v15l15 15z" />
<glyph unicode="W" horiz-adv-x="1366" d="M48 1356l57 86q196 0 259 -531q28 0 28 -57l-14 -15l14 -14h15v29h14l-14 14v14q53 101 143 101q208 -132 287 -373l144 -230h28l29 187v143l15 15l-15 43l15 14v14l-15 15l15 71l-15 101h15l-15 14v15l15 14l-15 14v72l15 14l-15 15v86q0 72 72 129h43q76 0 143 -86 v-101l-14 -14l14 -14v-15l-14 -14l14 -14v-216l15 -71h-15l15 -15v-28l-15 -15l15 -14l-15 -72l15 -43h-15l15 -14v-29l-15 -14l15 -15q-43 -545 -172 -545h-72v14l-14 -14h-15q-280 161 -416 488h-29v-43q-80 -388 -143 -388h-15l-14 15l-14 -15h-58q-143 76 -143 273 l-14 14v15h14q-101 419 -158 990z" />
<glyph unicode="X" horiz-adv-x="959" d="M34 133v26q23 106 230 537q-230 358 -230 397v51l64 64l13 -13h13l12 13h13q62 0 218 -205h25q128 435 205 435q105 0 141 -90l-39 -153l13 -13q0 -42 -166 -422l-13 -64q178 -235 384 -371v-26q0 -115 -103 -115h-64q-112 44 -319 256h-13q0 -47 -90 -179 q-73 -243 -166 -243h-38q-90 41 -90 115z" />
<glyph unicode="Y" horiz-adv-x="864" d="M18 1286l72 60h36q138 0 240 -480q86 -96 108 -96q84 852 192 852l60 12q84 -52 84 -168q-15 -156 -36 -156l12 -12l-36 -204l12 -12q-14 -108 -36 -108l12 -12v-36l-12 -12l12 -12v-12l-24 -48l12 -12v-12l-12 -12l12 -12q-96 -780 -216 -780h-36q-84 42 -84 192l48 324 q-91 0 -252 216q-168 382 -168 540z" />
<glyph unicode="Z" horiz-adv-x="1035" d="M27 1074q461 319 745 319h53q66 0 106 -173l-359 -665q-109 -186 -146 -186l27 -27q276 94 438 94q107 -46 107 -147q0 -107 -279 -146q-281 -93 -493 -133q-92 0 -172 106l13 14l-27 66q77 77 319 519q107 141 200 385h-13l-333 -186h-106v27l-14 -13h-13 q-53 13 -53 146z" />
<glyph unicode="_" horiz-adv-x="1024" d="M115 -24q11 57 96 96l60 -12l384 36q240 -30 240 -120v-12q0 -96 -180 -96l-444 -36q-156 24 -156 144z" />
<glyph unicode="a" horiz-adv-x="922" d="M17 282q87 540 408 540q72 0 216 -156q61 -2 132 -180q84 -326 156 -432l24 -72l-96 -72q-180 0 -300 396h-12q-46 -133 -216 -264l-84 -24q-208 0 -228 264zM233 294l12 -36q86 0 228 324v36l-24 36q-216 -144 -216 -360z" />
<glyph unicode="b" horiz-adv-x="855" d="M14 1287q27 120 60 120h72q132 -82 132 -396q15 0 36 -288h12q64 52 180 84q230 0 312 -228l12 -48q0 -335 -372 -516h-36l-156 48l-36 -12l-12 12q-108 33 -108 168l-12 84h12l-12 12v12l12 108q-24 0 -84 828zM350 219h24q134 57 180 180l36 132q0 60 -48 72 q-76 0 -180 -228l12 -12v-12q0 -85 -24 -132z" />
<glyph unicode="c" horiz-adv-x="728" d="M20 379h12l-12 12v12q48 306 168 468q99 84 144 84h24q204 -48 204 -204v-96q0 -63 -60 -96h-72q-25 5 -48 60l12 156h-12q-120 -107 -120 -516h48q58 0 252 156l72 12l48 -48l-24 -24l24 -72q-108 -192 -336 -264h-12q-312 0 -312 360z" />
<glyph unicode="d" horiz-adv-x="846" d="M49 210q8 104 144 372l-12 12q126 120 204 120h84l12 12h12l-12 12v12l-12 372v36l72 84h60q120 -51 120 -336l72 -780v-24q0 -50 -72 -120q-144 17 -144 132l-132 -60q-79 -48 -180 -48q-216 46 -216 204zM265 234h24q104 0 228 156q-7 120 -24 120l-60 12 q-125 -137 -168 -288z" />
<glyph unicode="e" horiz-adv-x="800" d="M28 335q0 196 300 480q162 72 252 72q168 -93 180 -192q0 -116 -204 -348q-121 -84 -192 -84h-36l-60 12v-24l192 -36l168 48q72 -16 72 -36q-67 -216 -288 -216h-72q-133 0 -288 168zM328 503h12q80 28 156 156h-12q-90 -36 -156 -156z" />
<glyph unicode="f" horiz-adv-x="1076" d="M16 457l12 12l-12 12v12q41 96 108 96l48 -12l204 24l-24 252v168q0 175 216 240h12q432 -108 432 -312v-48l-48 -60q-96 21 -96 96q-160 108 -228 108h-48l-12 -156l36 -288h84q300 0 300 -60v-72q-57 -108 -312 -108h-36l24 -204q-12 -53 -72 -132v-12h-24 q-132 0 -132 108l12 12l-36 216l-120 -12h-108q-113 0 -180 120z" />
<glyph unicode="g" horiz-adv-x="899" d="M21 458q164 444 444 444h60q146 -112 228 -336q108 -429 108 -624q-80 -348 -288 -348h-24q-312 59 -312 252l12 60q207 -72 276 -72q84 0 84 156t-60 444h-12q-148 -168 -300 -168q-192 69 -192 180l-12 12h-12zM253 500q117 69 192 180v24h-12q-180 -107 -180 -204z " />
<glyph unicode="h" horiz-adv-x="931" d="M47 169l12 60v36l-12 684q0 300 120 300q120 -55 120 -156v-36l-12 -12l24 -132l-12 -48v-36l12 -84h-12l12 -12v-132q132 156 240 156q104 -16 216 -180q144 -397 144 -480l-96 -72q-169 0 -240 468l-12 12q0 36 -24 36h-12q-81 0 -204 -360q0 -108 -72 -168h-48 q-110 0 -144 156z" />
<glyph unicode="i" horiz-adv-x="514" d="M20 1093v72q31 60 96 60h36q75 -52 96 -132q0 -56 -132 -96q-86 59 -96 96zM80 721q0 125 84 168h12q152 0 180 -324h-12l12 -36l12 -372q0 -92 -96 -144v12l-36 -12q-79 0 -132 144l12 12v12l-12 12l12 60l-12 84h12l-12 12v180q0 140 -24 192z" />
<glyph unicode="j" horiz-adv-x="787" d="M15 12q0 216 60 216q0 36 24 36h12q0 -48 24 -48l-24 -132q27 -100 120 -156l168 -72h84l24 24q-48 325 -120 528v12q0 120 132 120q132 -97 240 -600l-12 -12v-12l12 -36q0 -120 -72 -204q0 -55 -216 -84v12l-12 -12q-217 0 -420 312zM284 843q0 66 84 108h36 q108 0 132 -168q-55 -72 -84 -72q-123 0 -168 132z" />
<glyph unicode="k" horiz-adv-x="1026" d="M9 1194q12 60 72 132q123 0 168 -192l-12 -36q27 -50 48 -372h36l252 180q96 -53 96 -120v-48q-104 -155 -156 -156v-24q408 -124 408 -156l24 -48v-24q-16 -108 -132 -108q-329 84 -444 144h-36l12 -60v-120q0 -133 -84 -180h-12q-156 27 -156 156v24z" />
<glyph unicode="l" horiz-adv-x="522" d="M50 247l12 456l-12 12v12l12 48l-12 84h12l-12 12l12 120v60q42 72 120 72v-12l12 12h24l84 -156v-24l-12 -12l12 -36l12 -264h-12l12 -36q0 -288 -24 -444l12 -36h-12l12 -12v-12l-84 -84h-12q-156 50 -156 240z" />
<glyph unicode="m" horiz-adv-x="1185" d="M36 735h12l-12 12v48l12 12l-12 12v48l12 72l-12 36q36 108 108 108h24q84 -47 84 -168q62 60 108 60h48q102 0 168 -216h12q68 192 168 192h12q174 0 276 -468q84 -147 84 -240q-48 -96 -144 -96h-12q-108 0 -216 468h-12l-96 -372q-27 -39 -108 -60q-132 0 -132 288 l-48 252h-12v-24h-12l12 -12q-36 -142 -36 -324v-36l12 -228q0 -53 -132 -84q-120 0 -120 348q-17 0 -36 372z" />
<glyph unicode="n" horiz-adv-x="1022" d="M22 752h12l-12 12v84l12 12l-12 36q0 120 132 120q63 -34 108 -240v-72h12q119 240 276 240h12q188 0 276 -432q24 -23 120 -420q-45 -96 -108 -96h-72q-86 16 -252 696l-12 12v12q-110 -88 -180 -360l-12 -108l12 -132q-32 -96 -60 -96l-36 24l-36 -36q-118 0 -156 408 l-12 168h12l-12 12v12l12 12z" />
<glyph unicode="o" horiz-adv-x="909" d="M42 429q0 370 228 420l168 36v-12l12 12h12q261 0 372 -288l36 -72q-187 -504 -552 -504q-96 0 -204 120q-72 137 -72 288zM282 405q31 -144 60 -144h24q121 0 264 264v24h12q-50 132 -156 132h-108q-84 0 -84 -156h-12l12 -12l-12 -60l12 -48h-12z" />
<glyph unicode="p" horiz-adv-x="827" d="M7 667q52 84 168 84v-12l12 12q96 -8 96 -24l12 12h12q230 0 420 -132l60 -108q-116 -276 -240 -276q0 -16 -96 -36l-12 12l-60 -12h-12l-60 12l48 -468q-31 -109 -84 -132h-84q-120 39 -120 468l-48 348h12q-24 63 -24 252zM271 559l24 -180q165 0 240 144 q-119 48 -264 48v-12z" />
<glyph unicode="q" horiz-adv-x="841" d="M14 172q0 274 288 480l144 24q94 0 180 -168q114 0 132 -504l36 -324v-24q-45 -84 -108 -84h-72q-79 0 -108 360l-24 120h12l-12 36q-103 -84 -252 -84h-60l-36 24l-12 -12q-108 97 -108 156zM242 232l12 -12h12q129 48 180 156l-12 72h-72q-120 -170 -120 -216z" />
<glyph unicode="r" horiz-adv-x="895" d="M33 814q23 55 48 60h60q93 0 132 -144h24q121 120 372 120q204 -45 204 -168q-32 -4 -48 -60q-36 0 -36 -24h-48l-144 36q-264 -58 -264 -204l-12 -96l24 -240q-72 -84 -132 -84q-71 0 -120 72v24l12 12l-24 108h12q-60 334 -60 588z" />
<glyph unicode="s" horiz-adv-x="827" d="M38 566l12 48l-12 36q124 360 420 360h72q166 -60 204 -180q-17 -144 -144 -144q-23 108 -108 108q-99 0 -204 -156q516 -149 516 -264l12 -132q-156 -228 -408 -228q-228 48 -228 144l12 12l-12 12v24l36 36l120 -12h24q190 12 216 72l-384 120q-128 95 -144 144z" />
<glyph unicode="t" horiz-adv-x="886" d="M19 574q48 96 144 96l12 -12h12l12 12l60 -12h24v48l12 228l-12 120q24 89 84 120q123 0 144 -168l-12 -12l24 -24v-132l-12 -72l12 -36h-12l12 -12v-12l-12 -12v-12l240 24q132 -20 132 -108v-24q0 -67 -384 -132q12 -195 48 -348q-63 -84 -84 -84h-84q-108 0 -108 420 h-72l-12 -12h-12l-24 24l-12 -12h-12q-88 0 -108 144z" />
<glyph unicode="u" horiz-adv-x="900" d="M44 439v84q9 288 84 288h96q0 -28 60 -60l12 -120v-324h12q102 183 228 504q46 36 108 36q92 -28 120 -108l-12 -144v-36q0 -255 72 -372v-48q-29 -84 -144 -84l-12 12v12l-12 -12h-12q-105 83 -108 180q-130 -240 -288 -240q-204 0 -204 432z" />
<glyph unicode="v" horiz-adv-x="823" d="M10 718q39 84 96 84q156 0 288 -396h24q60 246 180 456l84 12h12q26 -2 72 -120l-12 -48l12 -36q-194 -636 -264 -636q0 -24 -108 -24q-133 0 -336 564q-48 45 -48 144z" />
<glyph unicode="w" horiz-adv-x="1013" d="M15 840l12 12v12l-12 72l60 48h84q96 0 132 -384h12q36 132 120 132h12q155 0 192 -216l60 -108q0 528 72 528h108q60 -80 60 -180l-12 -36l24 -120h-12l12 -12v-72q0 -379 -168 -492l-48 -12q-113 0 -264 288h-24l-60 -204l12 -12l-12 -12q-24 -48 -120 -60 q-123 0 -156 300l-60 372h12z" />
<glyph unicode="x" horiz-adv-x="809" d="M15 713v24l12 12l-12 12v12q35 84 108 84h12q111 0 228 -240h24q100 321 264 468h36q22 0 72 -84v-36l-228 -576h12q156 -159 192 -228v-12q-60 -72 -120 -72q-63 0 -192 96q-94 -168 -168 -168q-108 9 -108 96q36 111 120 252q-84 82 -252 360z" />
<glyph unicode="y" horiz-adv-x="909" d="M12 457l12 12v12l-12 12l36 288l-12 12v12q30 52 84 72q92 0 144 -96l-12 -12v-12l24 -24v-24l-12 -12l12 -36q0 -156 -24 -156l12 -12v-144q98 110 204 456q0 86 72 120h36q168 0 168 -432q84 -283 120 -612q-71 -288 -288 -288l-12 12v12l-12 -12h-60q-192 69 -192 180 l12 12l144 -24q144 30 144 132q0 100 -72 432h-12q-128 -300 -276 -300h-24q-204 0 -204 420z" />
<glyph unicode="z" horiz-adv-x="832" d="M8 797q155 124 367 158l284 31q84 -67 84 -136q-238 -473 -326 -588q179 42 315 42h11q84 -46 84 -126l-11 -11q0 -63 -115 -63l-158 -31v10q-205 -73 -325 -73q-137 14 -137 94q0 66 189 315l200 368q-307 -105 -357 -105q-98 0 -105 115z" />
<glyph unicode="{" d="M240 638v60q172 5 223 71t51 133v468q0 74 77 141.5t185 67.5h108v-50h-90q-61 0 -107 -33.5t-47 -91.5v-500q0 -83 -60.5 -158.5t-142.5 -76.5v-2q82 -1 143 -76t61 -158l-1 -500q1 -58 47 -91.5t107 -33.5h90v-50h-108q-108 0 -184.5 67.5t-77.5 141.5v468 q0 66 -51 132t-223 71z" />
<glyph unicode="}" d="M130 -192h90q61 0 107 33.5t47 91.5l-1 500q0 83 61 158t144 76v2q-83 1 -143.5 76.5t-60.5 158.5v500q-1 58 -47 91.5t-107 33.5h-90v50h108q108 0 185 -67.5t77 -141.5v-468q0 -67 51 -133t223 -71v-60q-172 -5 -223 -71t-51 -132v-468q-1 -74 -77.5 -141.5 t-184.5 -67.5h-108v50z" />
<glyph unicode="~" d="M94 556v156q64 73 123 99t114 26q64 0 181.5 -49.5t172.5 -49.5q52 0 108.5 28t129.5 112v-156q-63 -72 -122 -97.5t-116 -25.5q-60 0 -177.5 48.5t-176.5 48.5q-51 0 -107.5 -28t-129.5 -112z" />
<glyph unicode="&#xad;" horiz-adv-x="841" d="M28 559q11 57 96 96l60 -12l384 36q240 -30 240 -120v-12q0 -96 -180 -96l-444 -36q-156 24 -156 144z" />
<glyph unicode="&#xd7;" d="M137 840v24l12 12l-12 12v12q35 84 108 84h12q111 0 228 -240h24q100 321 264 468h36q22 0 72 -84v-36l-228 -576h12q156 -159 192 -228v-12q-60 -72 -120 -72q-63 0 -192 96q-94 -168 -168 -168q-108 9 -108 96q36 111 120 252q-84 82 -252 360z" />
<glyph unicode="&#xf7;" d="M131 681q11 57 96 96l60 -12l384 36q240 -30 240 -120v-12q0 -96 -180 -96l-444 -36q-156 24 -156 144zM401 983q0 96 96 96h36q54 0 120 -156l-72 -84h-60q-120 0 -120 144zM415 405q0 96 96 96h36q54 0 120 -156l-72 -84h-60q-120 0 -120 144z" />
<glyph unicode="&#x2c6;" horiz-adv-x="1024" d="M103 841q0 46 72 156q170 444 276 444h12q156 -39 156 -120q263 -501 276 -660l-60 -36h-96q-67 9 -276 540h-12l-156 -420l-60 -12h-12l-12 12l-12 -12h-24q-72 42 -72 108z" />
<glyph unicode="&#x2000;" horiz-adv-x="893" />
<glyph unicode="&#x2001;" horiz-adv-x="1786" />
<glyph unicode="&#x2002;" horiz-adv-x="893" />
<glyph unicode="&#x2003;" horiz-adv-x="1786" />
<glyph unicode="&#x2004;" horiz-adv-x="595" />
<glyph unicode="&#x2005;" horiz-adv-x="446" />
<glyph unicode="&#x2006;" horiz-adv-x="297" />
<glyph unicode="&#x2007;" horiz-adv-x="297" />
<glyph unicode="&#x2008;" horiz-adv-x="223" />
<glyph unicode="&#x2009;" horiz-adv-x="357" />
<glyph unicode="&#x200a;" horiz-adv-x="99" />
<glyph unicode="&#x2010;" horiz-adv-x="841" d="M28 559q11 57 96 96l60 -12l384 36q240 -30 240 -120v-12q0 -96 -180 -96l-444 -36q-156 24 -156 144z" />
<glyph unicode="&#x2011;" horiz-adv-x="841" d="M28 559q11 57 96 96l60 -12l384 36q240 -30 240 -120v-12q0 -96 -180 -96l-444 -36q-156 24 -156 144z" />
<glyph unicode="&#x2012;" horiz-adv-x="841" d="M28 559q11 57 96 96l60 -12l384 36q240 -30 240 -120v-12q0 -96 -180 -96l-444 -36q-156 24 -156 144z" />
<glyph unicode="&#x2013;" horiz-adv-x="1085" d="M28 559q14 57 126 96l79 -12l504 36q315 -30 315 -120v-12q0 -96 -236 -96l-583 -36q-205 24 -205 144z" />
<glyph unicode="&#x2014;" horiz-adv-x="2109" d="M28 559q29 57 252 96l158 -12l1008 36q630 -30 630 -120v-12q0 -96 -473 -96l-1165 -36q-410 24 -410 144z" />
<glyph unicode="&#x202f;" horiz-adv-x="357" />
<glyph unicode="&#x205f;" horiz-adv-x="446" />
<glyph unicode="&#xe000;" horiz-adv-x="1085" d="M0 0v1085h1085v-1085h-1085z" />
</font>
</defs>
</svg>
