<?xml version="1.0" standalone="no"?>
<!DOCTYPE svg PUBLIC "-//W3C//DTD SVG 1.1//EN" "http://www.w3.org/Graphics/SVG/1.1/DTD/svg11.dtd" >
<svg xmlns="http://www.w3.org/2000/svg">
<metadata></metadata>
<defs>
<font id="foundrysterling-boldregular" horiz-adv-x="1318" >
<font-face units-per-em="2048" ascent="1638" descent="-410" />
<missing-glyph horiz-adv-x="485" />
<glyph horiz-adv-x="2048" />
<glyph horiz-adv-x="2048" />
<glyph unicode="&#xd;" horiz-adv-x="1071" />
<glyph unicode=" "  horiz-adv-x="485" />
<glyph unicode="&#x09;" horiz-adv-x="485" />
<glyph unicode="&#xa0;" horiz-adv-x="485" />
<glyph unicode="!" horiz-adv-x="794" d="M223 160q0 72 51.5 123t122.5 51q72 0 123 -51t51 -123t-51 -123t-123 -51t-123 51t-51 123zM242 1366h313l-43 -969h-227z" />
<glyph unicode="&#x22;" horiz-adv-x="833" d="M94 1366h297l-37 -518h-223zM442 1366h297l-37 -518h-223z" />
<glyph unicode="#" horiz-adv-x="1243" d="M145 526l23 183h184l25 172h-184l24 182h184l43 303h177l-43 -303h167l46 303h174l-43 -303h176l-25 -182h-176l-25 -172h179l-25 -183h-178l-47 -336h-176l47 336h-170l-47 -336h-176l47 336h-181zM526 709h172l25 172h-172z" />
<glyph unicode="$" d="M168 125l127 197q184 -111 311 -111q104 0 164.5 45t60.5 121q0 57 -36.5 94t-217 111.5t-258.5 152.5q-109 109 -108 258q0 168 115 277q90 88 219 114v175h194v-162q242 -14 375 -148l-131 -186q-131 102 -281 102q-92 0 -149 -40t-57 -103q0 -47 36 -84 q23 -23 213.5 -103.5t272.5 -162.5q106 -107 106 -269q0 -182 -118 -299q-106 -104 -267 -127v-178h-194v172q-150 14 -273 80q-76 41 -104 74z" />
<glyph unicode="%" horiz-adv-x="1558" d="M92 1038q0 164 84 264.5t225 100.5q143 0 228.5 -100.5t85.5 -262.5q0 -168 -84 -268t-230 -100q-145 0 -227 99t-82 267zM236 6l938 1434l141 -94l-938 -1436zM260 1036q0 -225 139 -225q148 0 148 223q0 227 -141 228q-145 0 -146 -226zM844 332q0 164 84 264t225 100 q143 0 228 -100t85 -262q0 -168 -84 -268.5t-229 -100.5t-227 99.5t-82 267.5zM1012 330q0 -225 139 -226q147 1 147 224q0 227 -141 227q-145 0 -145 -225z" />
<glyph unicode="&#x26;" horiz-adv-x="1435" d="M94 401q0 127 74 232q70 94 190 149q-127 156 -127 269q0 150 120 246t294 96q168 0 276.5 -86t108.5 -230q0 -231 -295 -360l246 -262q27 39 54.5 140t27.5 175h235q-6 -270 -145 -485q72 -63 174 -68v-219l-24 -2q-209 0 -322 115q-168 -137 -406 -138q-205 0 -343 123 t-138 305zM356 408q0 -88 66.5 -147.5t171.5 -59.5q127 -1 221 73l-313 344q-145 -80 -146 -210zM494 1057q0 -59 94 -172q184 86 184 190q0 109 -127 109q-70 0 -110.5 -36t-40.5 -91z" />
<glyph unicode="'" horiz-adv-x="487" d="M94 1366h299l-37 -518h-225z" />
<glyph unicode="(" horiz-adv-x="903" d="M135 602q0 387 256 676q127 141 277 221l135 -182q-375 -272 -375 -711q0 -438 375 -710l-135 -183q-152 82 -277 217q-256 285 -256 672z" />
<glyph unicode=")" horiz-adv-x="903" d="M100 -104q375 272 375 710t-375 711l136 182q152 -82 276 -217q256 -285 256 -672t-256 -676q-127 -141 -276 -221z" />
<glyph unicode="*" horiz-adv-x="884" d="M100 1051l56 168l194 -64v211h185v-211l194 64l55 -168l-202 -66l147 -194l-143 -103l-144 180l-143 -180l-143 103l147 194z" />
<glyph unicode="+" d="M121 424v229h424v424h229v-424h424v-229h-424v-424h-229v424h-424z" />
<glyph unicode="," horiz-adv-x="657" d="M80 -145q74 80 102 127q63 100 64 211q0 25 -4 81h284q2 -22 2 -67q0 -291 -297 -496z" />
<glyph unicode="-" horiz-adv-x="1015" d="M152 424v229h712v-229h-712z" />
<glyph unicode="." horiz-adv-x="587" d="M125 156q0 70 50 119t120 49t119 -49t49 -119t-49 -120t-119 -50t-120 50t-50 120z" />
<glyph unicode="/" horiz-adv-x="1052" d="M84 -256l627 1694l200 -72l-628 -1694z" />
<glyph unicode="0" d="M92 686q0 322 153.5 517.5t411.5 195.5q260 0 415 -196t155 -515q0 -332 -151.5 -526.5t-418.5 -194.5q-262 0 -413.5 194.5t-151.5 524.5zM375 682q0 -236 74.5 -357.5t203.5 -121.5q135 0 212 121.5t77 357.5t-78 362q-74 121 -202 121q-131 0 -207 -123 q-80 -129 -80 -360z" />
<glyph unicode="1" d="M188 1032l498 334h221v-1366h-286v1030l-302 -199z" />
<glyph unicode="2" d="M166 1184q47 59 125 110q162 104 362 105q203 0 334 -115q135 -121 135 -317q0 -135 -65 -252q-51 -92 -164 -205q-150 -150 -313 -272h573v-238h-965v211q233 186 465 418q184 184 185 332q0 90 -58.5 145t-154.5 55q-143 0 -314 -145z" />
<glyph unicode="3" d="M147 121l129 182q160 -100 297 -100q131 0 203 55q66 53 66 141q0 119 -111 162q-66 25 -211 25h-59v227h33q106 0 149 8q82 14 133 66q41 41 41 106q0 72 -60.5 121t-158.5 49q-152 0 -291 -110l-137 161q41 51 119 95q152 90 354 90q199 0 328 -107.5t129 -277.5 q0 -102 -58 -193q-63 -96 -161 -112q119 -14 190 -107q66 -84 66 -199q0 -197 -142.5 -316.5t-392.5 -119.5q-188 0 -334 72q-86 43 -121 82z" />
<glyph unicode="4" d="M115 264v199l651 903h285v-872h168v-230h-168v-264h-273v264h-663zM416 494h362v528z" />
<glyph unicode="5" d="M141 123l131 180q154 -98 295 -98q127 0 204 64.5t77 176.5q0 244 -283 244q-121 0 -215 -63l-90 55v684h827v-233h-565v-242q45 20 154 20q203 0 330 -121.5t127 -318.5q0 -231 -147.5 -367.5t-403.5 -136.5q-178 0 -324 74q-88 45 -117 82z" />
<glyph unicode="6" d="M133 657q0 338 160 540t440 202q176 0 314 -64q74 -33 110 -69l-119 -185q-141 88 -282 88q-348 0 -363 -393q47 76 148 121q92 43 188 43q201 0 330 -132t129 -337q0 -221 -141.5 -362.5t-368.5 -141.5q-250 0 -397.5 187.5t-147.5 502.5zM442 461q0 -115 70 -184.5 t178 -69.5q104 0 169 69.5t65 184.5q0 111 -64.5 177.5t-167.5 66.5q-111 0 -180.5 -69t-69.5 -175z" />
<glyph unicode="7" d="M156 1128v238h1013v-219l-532 -1147h-307l536 1128h-710z" />
<glyph unicode="8" d="M135 395q0 111 58.5 200t160.5 120q-176 61 -176 282q0 182 132 291t347 109q217 0 351.5 -108.5t134.5 -289.5q0 -104 -47 -180t-129 -104q217 -72 217 -322q0 -199 -142.5 -312.5t-379.5 -113.5q-238 0 -382.5 116t-144.5 312zM401 403q0 -90 69 -147t194 -57 q123 0 189.5 56t66.5 146q0 88 -67 142.5t-191 54.5q-129 0 -195 -53t-66 -142zM442 993q0 -80 58.5 -130t165.5 -50q100 0 156.5 50t56.5 128q0 76 -57.5 126t-162.5 50q-98 0 -157.5 -52t-59.5 -122z" />
<glyph unicode="9" d="M131 895q0 221 141.5 362.5t368.5 141.5q250 0 397.5 -187.5t147.5 -502.5q0 -338 -160 -540t-440 -202q-176 0 -314 64q-74 33 -110 69l119 185q141 -88 282 -88q348 0 363 393q-47 -76 -148 -121q-92 -43 -188 -43q-201 0 -330 132t-129 337zM395 905q0 -111 64.5 -177 t167.5 -66q111 0 180.5 68.5t69.5 174.5q0 115 -70 184.5t-178 69.5q-104 0 -169 -69.5t-65 -184.5z" />
<glyph unicode=":" horiz-adv-x="587" d="M125 156q0 70 50 119t120 49t119 -49t49 -119t-49 -120t-119 -50t-120 50t-50 120zM125 846q0 70 50 119t120 49t119 -49t49 -119t-49 -120t-119 -50t-120 50t-50 120z" />
<glyph unicode=";" horiz-adv-x="657" d="M80 -145q74 80 102 127q63 100 64 211q0 25 -4 81h284q2 -22 2 -67q0 -291 -297 -496zM195 846q0 70 50 119t120 49t118.5 -49t48.5 -119t-49 -120t-118 -50q-70 0 -120 50t-50 120z" />
<glyph unicode="&#x3c;" horiz-adv-x="1320" d="M121 451v178l989 450l90 -213l-723 -327l723 -334l-90 -205z" />
<glyph unicode="=" horiz-adv-x="1320" d="M100 244v229h1121v-229h-1121zM100 604v230h1121v-230h-1121z" />
<glyph unicode="&#x3e;" horiz-adv-x="1320" d="M121 205l723 334l-723 327l90 213l989 -450v-178l-989 -451z" />
<glyph unicode="?" horiz-adv-x="1101" d="M98 1237q55 43 138 84q160 78 315 78q203 0 326.5 -105.5t123.5 -281.5q0 -154 -96 -250q-47 -47 -155.5 -113.5t-114.5 -73.5q-29 -29 -29 -143v-16h-250q-8 49 -8 94q0 135 62 197q31 31 123 87t131 95q53 53 53 123q0 72 -53.5 114.5t-147.5 42.5q-150 0 -301 -108z M309 156q0 70 50.5 119t119.5 49q70 0 119 -49t49 -119t-49 -120t-119 -50t-120 50t-50 120z" />
<glyph unicode="@" horiz-adv-x="1654" d="M94 631q0 324 231.5 541t575.5 217q281 0 470.5 -155.5t189.5 -393.5q0 -223 -162 -361.5t-414 -138.5q-29 0 -61 4l10 74q-119 -82 -213 -82q-115 0 -185.5 76.5t-70.5 195.5q0 193 139 324t344 131q102 0 250 -49l-102 -520q131 20 210.5 114t79.5 228 q0 172 -134 280.5t-353 108.5q-270 0 -445 -169t-175 -429q0 -223 147 -356.5t385 -133.5q207 0 428 133l86 -129q-240 -168 -537 -168t-495.5 184.5t-198.5 473.5zM641 612q0 -53 30.5 -86.5t76.5 -33.5q94 0 188 90l63 327q-33 4 -51 4q-125 0 -216 -89t-91 -212z" />
<glyph unicode="A" horiz-adv-x="1349" d="M33 0l495 1366h291l498 -1366h-299l-100 285h-492l-100 -285h-293zM498 508h344l-172 549z" />
<glyph unicode="B" horiz-adv-x="1228" d="M145 0v1366h445q283 0 393 -111q102 -102 102 -262q0 -221 -190 -295q233 -61 233 -288q0 -172 -104 -277q-86 -86 -223 -115q-88 -18 -271 -18h-385zM420 231h155q154 0 213 60q46 45 46 119t-43 116q-37 37 -91 47q-43 10 -147 11h-133v-353zM420 797h39q180 0 229 14 q111 33 111 160q0 111 -80 147q-43 20 -148 21h-151v-342z" />
<glyph unicode="C" horiz-adv-x="1329" d="M94 672q0 334 207 534q199 193 512 193q195 0 342 -74q78 -39 121 -84l-125 -190q-145 104 -326 104q-190 0 -313 -123q-127 -129 -127 -342t115.5 -342t310.5 -129q113 0 233 51q14 8 115 62l121 -195q-45 -45 -141 -90q-168 -80 -363 -80q-295 0 -485 189 q-197 195 -197 516z" />
<glyph unicode="D" horiz-adv-x="1421" d="M145 0v1366h377q227 0 328 -23q168 -37 291 -159q186 -187 186 -490t-186 -489q-133 -133 -334 -176q-129 -29 -381 -29h-281zM432 231h137q469 0 469 471q0 207 -116 324q-78 78 -189 100q-63 12 -219 13h-82v-908z" />
<glyph unicode="E" horiz-adv-x="1087" d="M145 0v1366h828v-233h-541v-318h508v-229h-508v-348h557v-238h-844z" />
<glyph unicode="F" horiz-adv-x="1054" d="M145 0v1366h816v-233h-529v-318h502v-229h-502v-586h-287z" />
<glyph unicode="G" horiz-adv-x="1427" d="M94 672q0 334 207 534q199 193 512 193q195 0 342 -74q78 -39 121 -84l-125 -190q-145 104 -326 104q-190 0 -313 -123q-127 -129 -127 -342q0 -215 119 -347t317 -132q113 0 203 33v235h-256v221h528v-591q-236 -141 -520 -142q-295 0 -485 189q-197 195 -197 516z" />
<glyph unicode="H" horiz-adv-x="1372" d="M145 0v1366h291v-537h500v537h291v-1366h-291v592h-500v-592h-291z" />
<glyph unicode="I" horiz-adv-x="581" d="M145 0v1366h291v-1366h-291z" />
<glyph unicode="J" horiz-adv-x="847" d="M14 61l99 203q102 -45 163 -45q70 0 105 35q43 43 43 197v915h291v-911q0 -141 -15 -207q-20 -109 -92 -180q-100 -100 -291 -101q-111 0 -213 45q-63 27 -90 49z" />
<glyph unicode="K" horiz-adv-x="1263" d="M145 0v1366h291v-639l453 639h319l-495 -664l522 -702h-348l-451 637v-637h-291z" />
<glyph unicode="L" horiz-adv-x="1064" d="M145 0v1366h291v-1128h529v-238h-820z" />
<glyph unicode="M" horiz-adv-x="1771" d="M113 0l123 1366h311l344 -989l326 989h311l131 -1366h-273l-75 961l-316 -961h-237l-326 961l-63 -961h-256z" />
<glyph unicode="N" horiz-adv-x="1372" d="M145 0v1366h263l561 -905l-6 905h264v-1366h-248l-576 911l7 -911h-265z" />
<glyph unicode="O" horiz-adv-x="1519" d="M94 694q0 313 184.5 509t481.5 196q299 0 482 -197t183 -508q0 -328 -185 -527.5t-478 -199.5q-299 0 -483.5 202t-184.5 525zM387 676q0 -211 107.5 -338t271.5 -127q193 0 289 160q78 128 78 325q0 205 -105.5 335t-277.5 130q-164 0 -263.5 -135t-99.5 -350z" />
<glyph unicode="P" horiz-adv-x="1218" d="M145 0v1366h385q176 0 267 -18q123 -27 200 -105q111 -111 111 -293q0 -193 -121 -313q-86 -86 -207 -117q-84 -20 -243 -20h-107v-500h-285zM430 731h100q182 0 233.5 51.5t51.5 155.5q0 100 -50 150.5t-222 50.5h-113v-408z" />
<glyph unicode="Q" horiz-adv-x="1509" d="M94 694q0 313 184.5 509t481.5 196q299 0 482 -196.5t183 -508.5q0 -344 -204 -549q-131 -131 -293 -145q80 -70 289 -70q104 0 176 15l37 -193q-135 -33 -277 -33q-184 0 -313 60q-135 63 -244 209q-201 37 -340 209q-162 199 -162 497zM387 676q0 -211 107.5 -338 t271.5 -127q193 0 289 160q78 128 78 325q0 205 -105.5 335t-277.5 130q-164 0 -263.5 -135t-99.5 -350z" />
<glyph unicode="R" horiz-adv-x="1222" d="M145 0v1366h351q184 0 254 -12q129 -23 213 -107q110 -110 110 -269q0 -136 -74 -228q-80 -100 -227 -123q94 -8 164 -113q23 -35 88 -180l150 -334h-308l-166 371q-53 121 -106 151q-33 18 -131 19h-33v-541h-285zM430 764h115q129 0 184 55.5t55 141.5t-43 129 q-35 35 -92 43q-35 6 -135 6h-84v-375z" />
<glyph unicode="S" horiz-adv-x="1124" d="M66 125l127 197q172 -111 317 -111q100 0 159.5 45t59.5 121q0 57 -37 94t-217 111.5t-258 152.5q-109 109 -108 258q0 182 132 294t341 112q170 0 311 -70q78 -39 119 -80l-131 -186q-131 102 -281 102q-92 0 -149.5 -40t-57.5 -103q0 -47 35 -82q23 -23 215.5 -105.5 t271.5 -162.5q107 -107 107 -269q0 -195 -136 -315.5t-360 -120.5q-184 0 -333 74q-92 43 -127 84z" />
<glyph unicode="T" horiz-adv-x="1148" d="M55 1133v233h1039v-233h-373v-1133h-291v1133h-375z" />
<glyph unicode="U" horiz-adv-x="1343" d="M133 604v762h291v-852q0 -162 65.5 -227.5t186.5 -65.5q113 0 186 74q43 43 56 119q10 61 10 227v725h282v-770q0 -190 -24 -289q-29 -111 -107 -188q-152 -152 -409 -152q-254 0 -408 154q-84 84 -110 211q-18 88 -19 272z" />
<glyph unicode="V" horiz-adv-x="1316" d="M43 1366h293l323 -1026l330 1026h285l-475 -1366h-283z" />
<glyph unicode="W" horiz-adv-x="1865" d="M80 1366h282l189 -1008l246 1008h299l231 -1008l199 1008h260l-318 -1366h-301l-227 1026l-246 -1026h-301z" />
<glyph unicode="X" horiz-adv-x="1290" d="M57 0l443 707l-414 659h313l258 -444l267 444h293l-416 -655l432 -711h-311l-281 479l-285 -479h-299z" />
<glyph unicode="Y" horiz-adv-x="1249" d="M55 1366h295l289 -592l289 592h266l-430 -821v-545h-279v545z" />
<glyph unicode="Z" horiz-adv-x="1169" d="M90 0v203l619 930h-592v233h942v-213l-602 -915h622v-238h-989z" />
<glyph unicode="[" horiz-adv-x="878" d="M193 -258v1624h550v-229h-276v-1166h276v-229h-550z" />
<glyph unicode="\" horiz-adv-x="1052" d="M141 1366l201 72l627 -1694l-199 -72z" />
<glyph unicode="]" horiz-adv-x="878" d="M135 -29h277v1166h-277v229h551v-1624h-551v229z" />
<glyph unicode="^" horiz-adv-x="1316" d="M139 496l420 870h207l412 -870h-250l-264 579l-265 -579h-260z" />
<glyph unicode="_" horiz-adv-x="1062" d="M-4 -47h1071v-229h-1071v229z" />
<glyph unicode="`" horiz-adv-x="712" d="M78 1311l104 207l453 -252l-84 -150z" />
<glyph unicode="a" horiz-adv-x="1042" d="M82 301q0 365 561 365h29q0 88 -31 118q-41 41 -143 41q-139 0 -269 -73l-92 176q140 108 379 108h4q217 0 330 -112q55 -55 72 -142q10 -51 10 -178v-604h-240v72q-141 -94 -284 -95q-150 0 -238 89.5t-88 234.5zM324 319q0 -133 155 -133q97 1 193 62v229h-43 q-305 0 -305 -158z" />
<glyph unicode="b" horiz-adv-x="1165" d="M125 51v1432h276v-516q119 69 244 69h4q186 0 310 -137.5t124 -370.5q0 -252 -145 -404.5t-389 -152.5q-184 0 -424 80zM401 213q68 -20 148 -20q119 0 187.5 89.5t68.5 243.5q0 139 -68 217q-61 70 -151 70q-92 0 -185 -61v-539z" />
<glyph unicode="c" horiz-adv-x="1019" d="M82 496q0 233 152.5 386.5t381.5 153.5q137 0 248 -53q78 -37 101 -70l-111 -170q-98 70 -213 70q-129 0 -211 -98q-72 -88 -72 -205q0 -139 68 -221q74 -90 207 -90q109 0 241 73l107 -176q-29 -29 -104 -63q-131 -61 -279 -62q-233 0 -374.5 148.5t-141.5 376.5z" />
<glyph unicode="d" horiz-adv-x="1171" d="M82 489q0 240 147 398q138 149 335 149h3q113 0 203 -39v486h277v-1483h-242v61q-113 -88 -270 -88q-205 0 -329 143.5t-124 372.5zM360 498q0 -139 72 -224q67 -75 165 -75h3q55 0 115 24q43 17 55 29v516q-82 41 -154 41q-115 0 -182 -78q-74 -84 -74 -233z" />
<glyph unicode="e" horiz-adv-x="1099" d="M82 498q0 233 135 385.5t348 152.5q217 0 338 -145q115 -141 115 -391q0 -25 -2 -53.5t-2 -32.5h-664v-10q0 -69 51 -132q74 -86 207 -86q117 0 269 72l90 -176q-33 -27 -111 -57q-131 -53 -272 -54q-238 0 -373 154q-129 143 -129 373zM348 612h414q0 94 -49 156.5 t-142 62.5q-90 0 -148 -60t-75 -159z" />
<glyph unicode="f" horiz-adv-x="907" d="M76 778v230h164v49q0 121 16 188q23 94 90 162q100 100 281 100q113 0 209 -45q69 -33 79 -51l-104 -180q-82 49 -145 49q-98 0 -129 -72q-20 -43 -21 -147v-53h297v-230h-297v-778h-276v778h-164z" />
<glyph unicode="g" horiz-adv-x="1167" d="M82 496q0 229 150.5 384.5t390.5 155.5q207 0 419 -106v-916q0 -133 -14 -190q-20 -94 -94 -168q-133 -133 -373 -133q-178 0 -325 67q-86 41 -127 82l110 181q176 -100 311 -101q147 0 203 82q37 55 37 164v63q-106 -61 -235 -61q-217 0 -342 154q-111 139 -111 342z M358 510q0 -135 70 -212t170 -77q55 0 117 23q43 18 55 28v512q-72 31 -152 31q-111 0 -185.5 -82t-74.5 -223z" />
<glyph unicode="h" horiz-adv-x="1126" d="M125 0v1483h276v-522q125 75 241 75h3q164 0 262 -98q76 -76 97 -190q12 -61 12 -205v-543h-277v530q0 190 -43 234q-37 37 -108 37q-92 0 -187 -64v-737h-276z" />
<glyph unicode="i" horiz-adv-x="524" d="M104 1290q0 66 46.5 112t111.5 46q66 0 112 -46t46 -112t-46 -111.5t-112 -45.5t-112 46t-46 111zM125 0v1008h276v-1008h-276z" />
<glyph unicode="j" horiz-adv-x="522" d="M-193 -420l74 193q59 -23 99 -23q68 0 105.5 38t37.5 146v1074h276v-1057q0 -115 -16 -180q-23 -88 -90 -156q-92 -92 -266 -92q-72 0 -148 24q-59 18 -72 33zM102 1290q0 66 46.5 112t111.5 46q66 0 112 -46t46 -112t-46 -111.5t-112 -45.5t-112 46t-46 111z" />
<glyph unicode="k" horiz-adv-x="1116" d="M125 0v1483h276v-844l367 369h319l-446 -443l451 -565h-328l-363 473v-473h-276z" />
<glyph unicode="l" horiz-adv-x="526" d="M125 0v1483h276v-1483h-276z" />
<glyph unicode="m" horiz-adv-x="1693" d="M125 0v1008h235v-76q135 104 283 104q145 0 248 -110q140 110 318 110h3q164 0 256 -92q80 -80 103 -219q12 -78 12 -301v-424h-276v551q0 127 -17 170q-29 80 -125 80q-84 0 -184 -72q12 -45 12 -223v-506h-276v551q0 127 -17 170q-29 80 -125 80q-88 0 -174 -58v-743 h-276z" />
<glyph unicode="n" horiz-adv-x="1126" d="M125 0v1008h235v-76q135 104 285 104q164 0 262 -98q76 -76 97 -190q12 -61 12 -205v-543h-277v530q0 190 -43 234q-37 37 -108 37q-92 0 -187 -64v-737h-276z" />
<glyph unicode="o" horiz-adv-x="1189" d="M82 498q0 236 146.5 387t375.5 151q223 0 363.5 -146.5t140.5 -375.5q0 -242 -145.5 -392.5t-378.5 -150.5q-223 0 -362.5 146.5t-139.5 380.5zM358 508q0 -137 68 -222t176 -85q106 0 167.5 82t61.5 219t-66.5 222t-172.5 85t-170 -83t-64 -218z" />
<glyph unicode="p" horiz-adv-x="1171" d="M125 -444v1452h242v-62q115 90 270 90q205 0 329 -144.5t124 -373.5q0 -240 -148 -395q-139 -152 -338 -152q-113 0 -203 39v-454h-276zM401 240q82 -41 154 -41q115 0 185.5 80.5t70.5 230.5q0 139 -72 223q-68 76 -168 76q-55 0 -114 -25q-43 -16 -56 -28v-516z" />
<glyph unicode="q" horiz-adv-x="1165" d="M82 479q0 252 145.5 404.5t388.5 152.5q184 0 424 -80v-1400h-276v485q-121 -70 -248 -70q-186 0 -307 135q-127 139 -127 373zM360 481q0 -139 68 -217q60 -69 149 -69h3q92 0 184 61v539q-68 20 -148 20q-119 0 -187.5 -90t-68.5 -244z" />
<glyph unicode="r" horiz-adv-x="841" d="M125 0v1008h235v-127q20 35 95 84q111 71 236 71h3h4q59 0 111 -26l-64 -209q-23 6 -61 6q-186 0 -283 -145v-662h-276z" />
<glyph unicode="s" horiz-adv-x="948" d="M55 86l95 176q164 -82 262 -82q155 0 155 98q0 46 -47 74q-23 12 -170 74q-109 45 -157 88q-92 80 -93 205q0 143 108.5 230t287.5 87q203 0 333 -90l-90 -170q-115 66 -229 66q-135 0 -135 -92q0 -45 49 -74q18 -12 133 -58q139 -55 197 -104q92 -82 92 -217 q0 -152 -107.5 -239t-292.5 -87q-145 0 -276 54q-84 35 -115 61z" />
<glyph unicode="t" horiz-adv-x="894" d="M41 778v230h174v280h277v-280h286v-230h-286v-403q0 -80 18 -115q27 -57 108 -57q53 0 127 24l70 -190q-88 -66 -254 -66q-170 0 -260 90q-57 57 -76 142q-10 51 -10 182v393h-174z" />
<glyph unicode="u" horiz-adv-x="1126" d="M111 465v543h276v-531q0 -190 43 -233q37 -37 109 -37q92 0 186 63v738h276v-1008h-235v76q-135 -104 -285 -105q-164 0 -262 99q-76 76 -96 190q-12 61 -12 205z" />
<glyph unicode="v" horiz-adv-x="1101" d="M29 1008h286l242 -705l238 705h268l-387 -1008h-266z" />
<glyph unicode="w" horiz-adv-x="1601" d="M59 1008h265l161 -707l183 707h247l181 -707l174 707h254l-277 -1008h-286l-181 690l-172 -690h-278z" />
<glyph unicode="x" horiz-adv-x="1161" d="M49 0l369 504l-350 504h313l211 -295l199 295h288l-338 -498l371 -510h-309l-230 328l-225 -328h-299z" />
<glyph unicode="y" horiz-adv-x="1183" d="M-12 -414l82 197q82 -35 155 -35q86 0 137 51q41 41 101 201l-422 1008h293l270 -707l252 707h272l-399 -1018q-109 -276 -194 -363q-104 -104 -295 -104q-137 0 -252 63z" />
<glyph unicode="z" horiz-adv-x="1087" d="M102 0v188l504 590h-491v230h839v-199l-499 -580h516v-229h-869z" />
<glyph unicode="{" horiz-adv-x="888" d="M115 481v217q76 14 96 52q12 23 12 108v94q0 117 13 172q16 80 67 131q78 78 221 101q70 10 250 10v-215q-119 -6 -153 -10q-70 -10 -93.5 -34t-27.5 -73q-2 -20 -2 -141v-27q0 -276 -136 -276q135 0 136 -277v-98q0 -121 2 -141q4 -49 26 -72q35 -35 248 -45v-215 q-180 0 -250 10q-143 23 -221 101q-51 51 -67 131q-12 55 -13 172v166q0 86 -12 108q-20 37 -96 51z" />
<glyph unicode="|" horiz-adv-x="577" d="M145 -258v1624h287v-1624h-287z" />
<glyph unicode="}" horiz-adv-x="888" d="M115 -43q119 6 153 10q70 10 93.5 34t27.5 73q2 20 2 141v98q0 276 135 277q-135 0 -135 276v27q0 121 -2 141q-4 49 -27 72q-35 35 -247 45v215q180 0 250 -10q143 -23 221 -101q51 -51 67 -131q12 -55 13 -172v-94q0 -86 12 -108q20 -37 96 -52v-217q-76 -14 -96 -51 q-12 -23 -12 -108v-166q0 -117 -13 -172q-16 -80 -67 -131q-78 -78 -221 -101q-70 -10 -250 -10v215z" />
<glyph unicode="~" d="M162 508q121 182 297 182q92 0 223 -58.5t184 -58.5q66 0 150 97l141 -109q-125 -178 -287 -178q-88 0 -224 58.5t-191 58.5q-68 0 -148 -92z" />
<glyph unicode="&#xa1;" horiz-adv-x="794" d="M223 862q0 72 51.5 123t122.5 51q72 0 123 -51t51 -123t-51 -123t-123 -51t-123 51.5t-51 122.5zM240 -344l43 969h227l43 -969h-313z" />
<glyph unicode="&#xa2;" d="M213 504q0 219 137 370q119 131 289 160v215h182v-209q106 -10 197 -59q59 -35 78 -59l-111 -170q-98 70 -213 69q-129 0 -211 -98q-72 -88 -72 -205q0 -139 68 -221q74 -90 207 -90q109 0 242 74l106 -177q-20 -20 -80 -51q-98 -53 -211 -67v-211h-182v211 q-180 25 -299 157q-127 143 -127 361z" />
<glyph unicode="&#xa3;" d="M156 0v219q199 25 198 252q0 8 -6 57h-186v228h164q-12 106 -13 159q0 225 130 354.5t358 129.5q168 0 301 -80q69 -41 110 -90l-135 -166q-139 102 -262 102q-106 0 -167.5 -65.5t-61.5 -184.5q0 -59 14 -159h397v-228h-372q4 -25 4 -47q0 -168 -86 -243h653v-238h-1040 z" />
<glyph unicode="&#xa5;" d="M90 1366h295l289 -592l289 592h266l-334 -606h197v-185h-293v-126h293v-185h-295v-264h-275v264h-309v185h307v126h-307v185h203z" />
<glyph unicode="&#xa6;" horiz-adv-x="577" d="M145 -258v627h287v-627h-287zM145 741v625h287v-625h-287z" />
<glyph unicode="&#xa7;" d="M223 -184l105 174q137 -78 256 -78q197 0 196 135q0 45 -39 82q-27 25 -174 81t-213 118q-94 86 -94 217q0 195 189 268q-154 102 -154 250q0 154 104 244q113 94 314 94q207 0 336 -103l-99 -163q-109 66 -219 65q-180 0 -180 -115q0 -41 37 -75q31 -29 187.5 -89.5 t217.5 -115.5q86 -80 86 -209q0 -188 -184 -281q137 -78 137 -249q0 -162 -114.5 -264.5t-319.5 -102.5q-225 0 -375 117zM496 586q0 -43 30 -74q37 -37 187 -92q131 69 131 141q0 39 -31 70q-45 45 -195 96q-123 -55 -122 -141z" />
<glyph unicode="&#xa8;" horiz-adv-x="825" d="M70 1309q0 59 42 101t101 42t101 -42t42 -101t-42 -101.5t-101 -42.5t-101 42t-42 102zM469 1309q0 59 42 101t101 42t101.5 -42t42.5 -101t-42 -101.5t-102 -42.5q-59 0 -101 42t-42 102z" />
<glyph unicode="&#xa9;" horiz-adv-x="1603" d="M94 682q0 293 208 501t501 208t499.5 -211t206.5 -498q0 -293 -206.5 -500t-499.5 -207t-501 207t-208 500zM272 682q0 -219 156 -372.5t375 -153.5t373.5 153.5t154.5 372.5t-154.5 373.5t-373.5 154.5t-375 -154.5t-156 -373.5zM449 688q0 172 112.5 283.5t280.5 111.5 q150 0 243 -84l-69 -104q-78 49 -154 49q-106 0 -174 -80q-59 -72 -59 -166q0 -111 57 -178q59 -74 170 -74q74 0 174 56l68 -109q-20 -20 -78 -47q-92 -41 -193 -41q-172 0 -275 107.5t-103 275.5z" />
<glyph unicode="&#xaa;" horiz-adv-x="927" d="M129 854q0 270 418 270h20q0 66 -22 88q-31 31 -107 31q-104 0 -198 -53l-70 131q104 80 285 80q162 0 245 -84q41 -41 54 -105q8 -39 8 -133v-450h-178v53q-104 -70 -213 -70q-111 0 -176.5 66.5t-65.5 175.5zM309 866q0 -98 115 -98q71 0 143 45v172h-30 q-227 0 -228 -119z" />
<glyph unicode="&#xab;" horiz-adv-x="1112" d="M125 500l305 401l164 -110l-166 -291l166 -305l-166 -95zM518 500l305 401l164 -110l-166 -291l166 -305l-166 -95z" />
<glyph unicode="&#xac;" horiz-adv-x="1320" d="M123 653v234h1075v-533h-250v299h-825z" />
<glyph unicode="&#xad;" horiz-adv-x="1015" d="M152 424v229h712v-229h-712z" />
<glyph unicode="&#xae;" horiz-adv-x="1105" d="M94 940q0 193 133 326t326 133t326 -133t133 -326q0 -190 -133.5 -323.5t-325.5 -133.5q-193 0 -326 133.5t-133 323.5zM207 940q0 -143 100.5 -241.5t245.5 -98.5t245.5 98.5t100.5 241.5t-100.5 242.5t-245.5 99.5t-245.5 -99.5t-100.5 -242.5zM401 707v477h119 q109 0 153 -41t44 -103q0 -88 -80 -110q29 -14 47 -56l74 -167h-94l-58 122q-23 49 -36 57.5t-62 8.5h-16v-188h-91zM492 981q59 0 86 6q51 12 51 57q0 37 -37 50q-12 4 -68 4h-32v-117z" />
<glyph unicode="&#xaf;" horiz-adv-x="802" d="M78 1223v172h725v-172h-725z" />
<glyph unicode="&#xb0;" horiz-adv-x="1312" d="M338 1090q0 131 93 224t224 93q133 0 226.5 -93t93.5 -224t-94.5 -225.5t-225.5 -94.5t-224 93t-93 227zM510 1090q0 -63 42 -107.5t103 -44.5t103.5 44.5t42.5 107.5t-42 108t-104 45q-59 0 -102 -45t-43 -108z" />
<glyph unicode="&#xb1;" d="M121 0v221h1077v-221h-1077zM121 711v229h424v403h229v-403h424v-229h-424v-404h-229v404h-424z" />
<glyph unicode="&#xb2;" horiz-adv-x="808" d="M145 1282q92 117 250 117q102 0 171 -61.5t69 -163.5q0 -117 -115 -234q-68 -68 -131 -119h262v-137h-491v121q113 92 229 209q86 86 86 157q0 90 -94 91q-63 0 -154 -78z" />
<glyph unicode="&#xb3;" horiz-adv-x="808" d="M145 745l78 109q88 -55 150 -55q121 0 121 88q0 82 -148 82h-41v137h29q98 0 131 33q16 16 16 47q0 74 -96 74q-74 0 -145 -62l-84 98q86 104 252 105q102 0 169.5 -56.5t67.5 -148.5q0 -127 -98 -152q57 -6 87 -54t30 -101q0 -104 -75 -168t-202 -64q-168 0 -242 88z " />
<glyph unicode="&#xb4;" horiz-adv-x="712" d="M78 1266l452 252l105 -207l-473 -195z" />
<glyph unicode="&#xb6;" d="M106 948q0 178 115 293q80 80 217 107q100 18 336 18h451v-195h-158v-1429h-193v1429h-135v-1429h-192v762q-215 16 -320 121q-121 121 -121 323z" />
<glyph unicode="&#xb7;" horiz-adv-x="587" d="M125 524q0 70 50 119t120 49t119 -49t49 -119t-49 -120t-119 -50t-120 50.5t-50 119.5z" />
<glyph unicode="&#xb8;" horiz-adv-x="526" d="M70 -408l45 91q51 -31 108 -31q100 0 101 82q0 70 -84 69q-53 0 -90 -22l-68 37l29 182h122l-10 -92q33 6 41 6q84 0 138.5 -49t54.5 -127q0 -88 -65.5 -142.5t-151.5 -54.5q-115 0 -170 51z" />
<glyph unicode="&#xb9;" horiz-adv-x="808" d="M164 1202l266 174h129v-702h-166v508l-149 -97z" />
<glyph unicode="&#xba;" horiz-adv-x="927" d="M82 997q0 176 108.5 289t280.5 113q166 0 270.5 -109.5t104.5 -279.5q0 -178 -108.5 -292t-282.5 -114q-166 0 -269.5 109.5t-103.5 283.5zM295 1004q0 -98 49 -159t125 -61t120 57.5t44 157.5t-48 161t-124 61t-121 -59.5t-45 -157.5z" />
<glyph unicode="&#xbb;" horiz-adv-x="1112" d="M125 195l166 305l-166 291l164 110l305 -401l-303 -400zM518 195l166 305l-166 291l164 110l305 -401l-303 -400z" />
<glyph unicode="&#xbc;" horiz-adv-x="1585" d="M104 1202l267 174h129v-702h-166v508l-150 -97zM236 6l938 1434l141 -94l-938 -1436zM817 131v113l340 458h162v-436h86v-135h-86v-131h-160v131h-342zM1001 266h158v223z" />
<glyph unicode="&#xbd;" horiz-adv-x="1585" d="M72 1202l266 174h129v-702h-166v508l-149 -97zM203 6l938 1434l141 -94l-938 -1436zM967 598q92 117 250 117q102 0 170.5 -61.5t68.5 -164.5q0 -117 -115 -233q-68 -68 -131 -119h263v-137h-492v121q113 92 229 209q86 86 86 157q0 90 -94 91q-63 0 -153 -78z" />
<glyph unicode="&#xbe;" horiz-adv-x="1585" d="M143 745l78 109q88 -55 150 -55q121 0 121 88q0 82 -148 82h-41v137h29q98 0 131 33q16 16 16 47q0 74 -96 74q-74 0 -145 -62l-84 98q86 104 252 105q102 0 169.5 -56.5t67.5 -148.5q0 -127 -98 -152q57 -6 87 -54t30 -101q0 -104 -75 -168t-202 -64q-168 0 -242 88z M272 6l938 1434l142 -94l-938 -1436zM854 131v113l340 458h162v-436h86v-135h-86v-131h-160v131h-342zM1038 266h158v223z" />
<glyph unicode="&#xbf;" horiz-adv-x="1101" d="M119 10q0 154 96 250q47 47 155.5 113.5t114.5 72.5q29 29 29 144v16h250q8 -49 8 -94q0 -135 -61 -197q-31 -31 -123 -87t-131 -95q-53 -53 -54 -123q0 -72 53.5 -114.5t147.5 -42.5q150 0 301 108l117 -176q-55 -43 -137 -84q-160 -78 -316 -78q-203 0 -326.5 105.5 t-123.5 281.5zM473 866q0 70 49 120t119 50t120 -50t50 -120t-50 -119t-120 -49t-119 49.5t-49 118.5z" />
<glyph unicode="&#xc0;" horiz-adv-x="1349" d="M33 0l495 1366h291l498 -1366h-299l-100 285h-492l-100 -285h-293zM385 1655l104 207l453 -252l-84 -150zM498 508h344l-172 549z" />
<glyph unicode="&#xc1;" horiz-adv-x="1349" d="M33 0l495 1366h291l498 -1366h-299l-100 285h-492l-100 -285h-293zM344 1610l452 252l105 -207l-473 -195zM498 508h344l-172 549z" />
<glyph unicode="&#xc2;" horiz-adv-x="1349" d="M33 0l495 1366h291l498 -1366h-299l-100 285h-492l-100 -285h-293zM324 1602l346 258l348 -271l-92 -129l-256 146l-254 -144zM498 508h344l-172 549z" />
<glyph unicode="&#xc3;" horiz-adv-x="1349" d="M33 0l495 1366h291l498 -1366h-299l-100 285h-492l-100 -285h-293zM297 1583q125 166 260 166q49 0 117.5 -32t101.5 -32q51 0 137 76l121 -121q-147 -166 -260 -165q-49 0 -118.5 32.5t-102.5 32.5q-41 0 -135 -78zM498 508h344l-172 549z" />
<glyph unicode="&#xc4;" horiz-adv-x="1349" d="M33 0l495 1366h291l498 -1366h-299l-100 285h-492l-100 -285h-293zM326 1606q0 59 42 101t101 42t101 -42t42 -101t-42 -101.5t-101 -42.5t-101 42t-42 102zM498 508h344l-172 549zM725 1606q0 59 42 101t101 42t101.5 -42t42.5 -101t-42 -101.5t-102 -42.5 q-59 0 -101 42t-42 102z" />
<glyph unicode="&#xc5;" horiz-adv-x="1349" d="M33 0l495 1366h291l498 -1366h-299l-100 285h-492l-100 -285h-293zM447 1687q0 92 66.5 158t158.5 66t157.5 -66t65.5 -158t-65.5 -158.5t-157.5 -66.5t-158.5 66.5t-66.5 158.5zM498 508h344l-172 549zM576 1689q0 -39 27.5 -66.5t66.5 -27.5t66.5 27.5t27.5 66.5 t-27.5 67t-66.5 28t-66.5 -28t-27.5 -67z" />
<glyph unicode="&#xc6;" horiz-adv-x="1880" d="M20 0l803 1366h942v-233h-540v-318h508v-229h-508v-348h557v-238h-844v289h-461l-160 -289h-297zM604 526h334v604z" />
<glyph unicode="&#xc7;" horiz-adv-x="1329" d="M94 672q0 334 207 534q199 193 512 193q195 0 342 -74q78 -39 121 -84l-125 -190q-145 104 -326 104q-190 0 -313 -123q-127 -129 -127 -342t115.5 -342t310.5 -129q113 0 233 51q14 8 115 62l121 -195q-45 -45 -141 -90q-166 -80 -361 -80l-6 -63q33 6 43 6 q88 0 144.5 -51.5t56.5 -132.5q0 -92 -67.5 -147.5t-157.5 -55.5q-121 0 -179 53l47 92q53 -31 113 -30q104 0 105 83q0 74 -86 74q-53 0 -95 -24l-71 39l26 167q-225 33 -377 197q-180 190 -180 498z" />
<glyph unicode="&#xc8;" horiz-adv-x="1087" d="M145 0v1366h828v-233h-541v-318h508v-229h-508v-348h557v-238h-844zM262 1655l104 207l453 -252l-84 -150z" />
<glyph unicode="&#xc9;" horiz-adv-x="1087" d="M145 0v1366h828v-233h-541v-318h508v-229h-508v-348h557v-238h-844zM303 1610l452 252l105 -207l-473 -195z" />
<glyph unicode="&#xca;" horiz-adv-x="1087" d="M145 0v1366h828v-233h-541v-318h508v-229h-508v-348h557v-238h-844zM197 1602l346 258l348 -271l-92 -129l-256 146l-254 -144z" />
<glyph unicode="&#xcb;" horiz-adv-x="1087" d="M145 0v1366h828v-233h-541v-318h508v-229h-508v-348h557v-238h-844zM222 1606q0 59 42 101t101 42t101 -42t42 -101t-42 -101.5t-101 -42.5t-101 42t-42 102zM621 1606q0 59 42 101t101 42t101.5 -42t42.5 -101t-42 -101.5t-102 -42.5q-59 0 -101 42t-42 102z" />
<glyph unicode="&#xcc;" horiz-adv-x="581" d="M15 1655l104 207l453 -252l-84 -150zM145 0v1366h291v-1366h-291z" />
<glyph unicode="&#xcd;" horiz-adv-x="581" d="M15 1610l452 252l105 -207l-473 -195zM145 0v1366h291v-1366h-291z" />
<glyph unicode="&#xce;" horiz-adv-x="581" d="M-51 1602l346 258l348 -271l-92 -129l-256 146l-254 -144zM145 0v1366h291v-1366h-291z" />
<glyph unicode="&#xcf;" horiz-adv-x="581" d="M-49 1606q0 59 42 101t101 42t101 -42t42 -101t-42 -101.5t-101 -42.5t-101 42t-42 102zM145 0v1366h291v-1366h-291zM350 1606q0 59 42 101t101 42t101.5 -42t42.5 -101t-42 -101.5t-102 -42.5q-59 0 -101 42t-42 102z" />
<glyph unicode="&#xd0;" horiz-adv-x="1499" d="M18 586v229h205v551h377q227 0 328 -23q168 -37 291 -159q186 -187 186 -490t-186 -489q-133 -133 -334 -176q-129 -29 -381 -29h-281v586h-205zM510 231h137q469 0 469 471q0 207 -117 324q-78 78 -188 100q-63 12 -219 13h-82v-324h356v-229h-356v-355z" />
<glyph unicode="&#xd1;" horiz-adv-x="1372" d="M145 0v1366h263l561 -905l-6 905h264v-1366h-248l-576 911l7 -911h-265zM307 1583q125 166 260 166q49 0 117.5 -32t101.5 -32q51 0 137 76l121 -121q-147 -166 -260 -165q-49 0 -118.5 32.5t-102.5 32.5q-41 0 -135 -78z" />
<glyph unicode="&#xd2;" horiz-adv-x="1519" d="M94 694q0 313 184.5 509t481.5 196q299 0 482 -197t183 -508q0 -328 -185 -527.5t-478 -199.5q-299 0 -483.5 202t-184.5 525zM387 676q0 -211 107.5 -338t271.5 -127q193 0 289 160q78 128 78 325q0 205 -105.5 335t-277.5 130q-164 0 -263.5 -135t-99.5 -350zM494 1655 l104 207l453 -252l-84 -150z" />
<glyph unicode="&#xd3;" horiz-adv-x="1519" d="M94 694q0 313 184.5 509t481.5 196q299 0 482 -197t183 -508q0 -328 -185 -527.5t-478 -199.5q-299 0 -483.5 202t-184.5 525zM387 676q0 -211 107.5 -338t271.5 -127q193 0 289 160q78 128 78 325q0 205 -105.5 335t-277.5 130q-164 0 -263.5 -135t-99.5 -350zM463 1610 l452 252l105 -207l-473 -195z" />
<glyph unicode="&#xd4;" horiz-adv-x="1519" d="M94 694q0 313 184.5 509t481.5 196q299 0 482 -197t183 -508q0 -328 -185 -527.5t-478 -199.5q-299 0 -483.5 202t-184.5 525zM387 676q0 -211 107.5 -338t271.5 -127q193 0 289 160q78 128 78 325q0 205 -105.5 335t-277.5 130q-164 0 -263.5 -135t-99.5 -350zM416 1602 l346 258l348 -271l-92 -129l-256 146l-254 -144z" />
<glyph unicode="&#xd5;" horiz-adv-x="1519" d="M94 694q0 313 184.5 509t481.5 196q299 0 482 -197t183 -508q0 -328 -185 -527.5t-478 -199.5q-299 0 -483.5 202t-184.5 525zM385 1583q125 166 260 166q49 0 117.5 -32t101.5 -32q51 0 137 76l121 -121q-147 -166 -260 -165q-49 0 -118.5 32.5t-102.5 32.5 q-41 0 -135 -78zM387 676q0 -211 107.5 -338t271.5 -127q193 0 289 160q78 128 78 325q0 205 -105.5 335t-277.5 130q-164 0 -263.5 -135t-99.5 -350z" />
<glyph unicode="&#xd6;" horiz-adv-x="1519" d="M94 694q0 313 184.5 509t481.5 196q299 0 482 -197t183 -508q0 -328 -185 -527.5t-478 -199.5q-299 0 -483.5 202t-184.5 525zM387 676q0 -211 107.5 -338t271.5 -127q193 0 289 160q78 128 78 325q0 205 -105.5 335t-277.5 130q-164 0 -263.5 -135t-99.5 -350zM422 1606 q0 59 42 101t101 42t101 -42t42 -101t-42 -101.5t-101 -42.5t-101 42t-42 102zM821 1606q0 59 42 101t101 42t101.5 -42t42.5 -101t-42 -101.5t-102 -42.5q-59 0 -101 42t-42 102z" />
<glyph unicode="&#xd7;" d="M129 172l369 367l-369 366l164 164l366 -369l367 369l164 -164l-369 -366l369 -367l-164 -164l-367 369l-366 -369z" />
<glyph unicode="&#xd8;" horiz-adv-x="1519" d="M94 694q0 313 184.5 509t481.5 196q156 0 252 -45l98 174l203 -107l-105 -186q217 -189 217 -541q0 -328 -185 -527.5t-478 -199.5q-127 0 -242 41l-100 -174l-201 107l107 182q-231 203 -232 571zM387 676q0 -182 80 -299l428 756q-72 29 -145 28q-164 0 -263.5 -135 t-99.5 -350zM643 233q51 -23 123 -22q193 0 289 160q78 128 78 325q0 182 -70 283z" />
<glyph unicode="&#xd9;" horiz-adv-x="1343" d="M133 604v762h291v-852q0 -162 65.5 -227.5t186.5 -65.5q113 0 186 74q43 43 56 119q10 61 10 227v725h282v-770q0 -190 -24 -289q-29 -111 -107 -188q-152 -152 -409 -152q-254 0 -408 154q-84 84 -110 211q-18 88 -19 272zM381 1655l104 207l453 -252l-84 -150z" />
<glyph unicode="&#xda;" horiz-adv-x="1343" d="M133 604v762h291v-852q0 -162 65.5 -227.5t186.5 -65.5q113 0 186 74q43 43 56 119q10 61 10 227v725h282v-770q0 -190 -24 -289q-29 -111 -107 -188q-152 -152 -409 -152q-254 0 -408 154q-84 84 -110 211q-18 88 -19 272zM393 1610l452 252l105 -207l-473 -195z" />
<glyph unicode="&#xdb;" horiz-adv-x="1343" d="M133 604v762h291v-852q0 -162 65.5 -227.5t186.5 -65.5q113 0 186 74q43 43 56 119q10 61 10 227v725h282v-770q0 -190 -24 -289q-29 -111 -107 -188q-152 -152 -409 -152q-254 0 -408 154q-84 84 -110 211q-18 88 -19 272zM324 1602l346 258l348 -271l-92 -129l-256 146 l-254 -144z" />
<glyph unicode="&#xdc;" horiz-adv-x="1343" d="M133 604v762h291v-852q0 -162 65.5 -227.5t186.5 -65.5q113 0 186 74q43 43 56 119q10 61 10 227v725h282v-770q0 -190 -24 -289q-29 -111 -107 -188q-152 -152 -409 -152q-254 0 -408 154q-84 84 -110 211q-18 88 -19 272zM328 1606q0 59 42 101t101 42t101 -42t42 -101 t-42 -101.5t-101 -42.5t-101 42t-42 102zM727 1606q0 59 42 101t101 42t101.5 -42t42.5 -101t-42 -101.5t-102 -42.5q-59 0 -101 42t-42 102z" />
<glyph unicode="&#xdd;" horiz-adv-x="1249" d="M55 1366h295l289 -592l289 592h266l-430 -821v-545h-279v545zM324 1610l452 252l105 -207l-473 -195z" />
<glyph unicode="&#xde;" horiz-adv-x="1202" d="M145 0v1366h285v-240h100q176 0 267 -18q123 -27 200 -104q111 -111 111 -293q0 -193 -121 -314q-86 -86 -207 -116q-84 -20 -243 -21h-107v-260h-285zM430 492h100q182 0 233.5 51t51.5 155q0 100 -50 150.5t-222 50.5h-113v-407z" />
<glyph unicode="&#xdf;" horiz-adv-x="1185" d="M125 0v1028q0 236 117 352q127 127 331 127q193 0 312 -102t119 -270q0 -109 -58 -189q-29 -43 -104 -106q-57 -47 -58 -74q0 -16 19 -35q88 -63 176 -129q125 -106 125 -266q0 -162 -107.5 -259t-277.5 -97q-127 0 -250 49l76 215q86 -29 137 -29q154 0 154 113 q0 51 -45 96q-29 29 -117 84t-127 94q-53 53 -53 127q0 84 118.5 197.5t118.5 208.5q0 61 -41 101t-106 40q-123 0 -166 -121q-25 -70 -25 -211v-944h-268z" />
<glyph unicode="&#xe0;" horiz-adv-x="1042" d="M82 301q0 365 561 365h29q0 88 -31 118q-41 41 -143 41q-139 0 -269 -73l-92 176q141 109 383 108q217 0 330 -112q55 -55 72 -142q10 -51 10 -178v-604h-240v72q-141 -94 -284 -95q-150 0 -238 89.5t-88 234.5zM250 1311l104 207l453 -252l-84 -150zM324 319 q0 -133 155 -133q97 1 193 62v229h-43q-305 0 -305 -158z" />
<glyph unicode="&#xe1;" horiz-adv-x="1042" d="M82 301q0 365 561 365h29q0 88 -31 118q-41 41 -143 41q-139 0 -269 -73l-92 176q141 109 383 108q217 0 330 -112q55 -55 72 -142q10 -51 10 -178v-604h-240v72q-141 -94 -284 -95q-150 0 -238 89.5t-88 234.5zM254 1266l452 252l105 -207l-473 -195zM324 319 q0 -133 155 -133q97 1 193 62v229h-43q-305 0 -305 -158z" />
<glyph unicode="&#xe2;" horiz-adv-x="1042" d="M82 301q0 365 561 365h29q0 88 -31 118q-41 41 -143 41q-139 0 -269 -73l-92 176q141 109 383 108q217 0 330 -112q55 -55 72 -142q10 -51 10 -178v-604h-240v72q-141 -94 -284 -95q-150 0 -238 89.5t-88 234.5zM172 1262l346 258l348 -271l-92 -129l-256 146l-254 -144z M324 319q0 -133 155 -133q97 1 193 62v229h-43q-305 0 -305 -158z" />
<glyph unicode="&#xe3;" horiz-adv-x="1042" d="M82 301q0 365 561 365h29q0 88 -31 118q-41 41 -143 41q-139 0 -269 -73l-92 176q141 109 383 108q217 0 330 -112q55 -55 72 -142q10 -51 10 -178v-604h-240v72q-141 -94 -284 -95q-150 0 -238 89.5t-88 234.5zM162 1282q125 166 260 166q49 0 117.5 -32t101.5 -32 q51 0 137 76l121 -121q-147 -166 -260 -165q-49 0 -118.5 32.5t-102.5 32.5q-41 0 -135 -78zM324 319q0 -133 155 -133q97 1 193 62v229h-43q-305 0 -305 -158z" />
<glyph unicode="&#xe4;" horiz-adv-x="1042" d="M82 301q0 365 561 365h29q0 88 -31 118q-41 41 -143 41q-139 0 -269 -73l-92 176q141 109 383 108q217 0 330 -112q55 -55 72 -142q10 -51 10 -178v-604h-240v72q-141 -94 -284 -95q-150 0 -238 89.5t-88 234.5zM174 1309q0 59 42 101t101 42t101 -42t42 -101t-42 -101.5 t-101 -42.5t-101 42t-42 102zM324 319q0 -133 155 -133q97 1 193 62v229h-43q-305 0 -305 -158zM573 1309q0 59 42 101t101 42t101.5 -42t42.5 -101t-42 -101.5t-102 -42.5q-59 0 -101 42t-42 102z" />
<glyph unicode="&#xe5;" horiz-adv-x="1042" d="M82 301q0 365 561 365h29q0 88 -31 118q-41 41 -143 41q-139 0 -269 -73l-92 176q141 109 383 108q217 0 330 -112q55 -55 72 -142q10 -51 10 -178v-604h-240v72q-141 -94 -284 -95q-150 0 -238 89.5t-88 234.5zM295 1339q0 92 66.5 158t158.5 66t157.5 -66t65.5 -158 t-65.5 -158.5t-157.5 -66.5t-158.5 66.5t-66.5 158.5zM324 319q0 -133 155 -133q97 1 193 62v229h-43q-305 0 -305 -158zM424 1341q0 -39 27.5 -66.5t66.5 -27.5t66.5 27.5t27.5 66.5t-27.5 67t-66.5 28t-66.5 -28t-27.5 -67z" />
<glyph unicode="&#xe6;" horiz-adv-x="1697" d="M82 305q0 352 561 352h29v9q0 88 -31 118q-41 41 -143 41q-139 0 -269 -73l-92 176q141 109 383 108q215 0 332 -116q117 117 311 116q217 0 338 -145q115 -141 115 -391q0 -25 -2 -53.5t-2 -32.5h-664q-4 -74 51 -142q74 -86 207 -86q117 0 269 72l90 -176 q-33 -27 -111 -57q-131 -53 -272 -54q-238 0 -363 142q-162 -141 -391 -142q-150 0 -242 78q-104 88 -104 256zM324 311q0 -133 155 -133q107 0 234 80q-41 72 -41 211h-43q-305 0 -305 -158zM946 612h414q0 94 -49 156.5t-142 62.5q-90 0 -148 -60t-75 -159z" />
<glyph unicode="&#xe7;" horiz-adv-x="1019" d="M82 496q0 233 152.5 386.5t381.5 153.5q137 0 248 -53q78 -37 101 -70l-111 -170q-98 70 -213 70q-129 0 -211 -98q-72 -88 -72 -205q0 -139 68 -221q74 -90 207 -90q109 0 241 73l107 -176q-29 -29 -104 -63q-131 -61 -283 -62l-6 -63q33 6 41 6q84 0 138 -49t54 -127 q0 -88 -65.5 -142.5t-151.5 -54.5q-115 0 -170 51l45 91q51 -31 109 -31q100 0 100 82q0 70 -84 69q-53 0 -90 -22l-68 37l27 166q-164 35 -270 159q-121 141 -121 353z" />
<glyph unicode="&#xe8;" horiz-adv-x="1099" d="M82 498q0 233 135 385.5t348 152.5q217 0 338 -145q115 -141 115 -391q0 -25 -2 -53.5t-2 -32.5h-664q-4 -74 51 -142q74 -86 207 -86q117 0 269 72l90 -176q-33 -27 -111 -57q-131 -53 -272 -54q-238 0 -373 154q-129 143 -129 373zM285 1311l104 207l453 -252l-84 -150 zM348 612h414q0 94 -49 156.5t-142 62.5q-90 0 -148 -60t-75 -159z" />
<glyph unicode="&#xe9;" horiz-adv-x="1099" d="M82 498q0 233 135 385.5t348 152.5q217 0 338 -145q115 -141 115 -391q0 -25 -2 -53.5t-2 -32.5h-664q-4 -74 51 -142q74 -86 207 -86q117 0 269 72l90 -176q-33 -27 -111 -57q-131 -53 -272 -54q-238 0 -373 154q-129 143 -129 373zM260 1266l452 252l105 -207 l-473 -195zM348 612h414q0 94 -49 156.5t-142 62.5q-90 0 -148 -60t-75 -159z" />
<glyph unicode="&#xea;" horiz-adv-x="1099" d="M82 498q0 233 135 385.5t348 152.5q217 0 338 -145q115 -141 115 -391q0 -25 -2 -53.5t-2 -32.5h-664q-4 -74 51 -142q74 -86 207 -86q117 0 269 72l90 -176q-33 -27 -111 -57q-131 -53 -272 -54q-238 0 -373 154q-129 143 -129 373zM221 1262l346 258l348 -271l-92 -129 l-256 146l-254 -144zM348 612h414q0 94 -49 156.5t-142 62.5q-90 0 -148 -60t-75 -159z" />
<glyph unicode="&#xeb;" horiz-adv-x="1099" d="M82 498q0 233 135 385.5t348 152.5q217 0 338 -145q115 -141 115 -391q0 -25 -2 -53.5t-2 -32.5h-664q-4 -74 51 -142q74 -86 207 -86q117 0 269 72l90 -176q-33 -27 -111 -57q-131 -53 -272 -54q-238 0 -373 154q-129 143 -129 373zM224 1309q0 59 42 101t101 42 t101 -42t42 -101t-42 -101.5t-101 -42.5t-101 42t-42 102zM348 612h414q0 94 -49 156.5t-142 62.5q-90 0 -148 -60t-75 -159zM623 1309q0 59 42 101t101 42t101.5 -42t42.5 -101t-42 -101.5t-102 -42.5q-59 0 -101 42t-42 102z" />
<glyph unicode="&#xec;" horiz-adv-x="524" d="M-14 1311l104 207l453 -252l-84 -150zM125 0v1008h276v-1008h-276z" />
<glyph unicode="&#xed;" horiz-adv-x="524" d="M-14 1266l452 252l105 -207l-473 -195zM125 0v1008h276v-1008h-276z" />
<glyph unicode="&#xee;" horiz-adv-x="524" d="M-82 1262l346 258l348 -271l-92 -129l-256 146l-254 -144zM125 0v1008h276v-1008h-276z" />
<glyph unicode="&#xef;" horiz-adv-x="524" d="M-80 1309q0 59 42 101t101 42t101 -42t42 -101t-42 -101.5t-101 -42.5t-101 42t-42 102zM125 0v1008h276v-1008h-276zM319 1309q0 59 42 101t101 42t101.5 -42t42.5 -101t-42 -101.5t-102 -42.5q-59 0 -101 42t-42 102z" />
<glyph unicode="&#xf0;" horiz-adv-x="1124" d="M82 504q0 229 128 367.5t345 138.5q76 0 156 -27q-47 121 -117 170l-262 -106l-64 155l166 66q-70 41 -237 61l18 195q291 -37 457 -156l229 88l64 -147l-142 -58q104 -102 164 -280q55 -170 55 -365q0 -293 -128 -464t-357 -171q-211 0 -343 148.5t-132 384.5zM358 494 q0 -129 57.5 -205t145.5 -76q199 0 199 387q0 68 -8 125q-70 49 -156 49q-113 0 -175.5 -72.5t-62.5 -207.5z" />
<glyph unicode="&#xf1;" horiz-adv-x="1126" d="M125 0v1008h235v-76q135 104 285 104q164 0 262 -98q76 -76 97 -190q12 -61 12 -205v-543h-277v530q0 190 -43 234q-37 37 -108 37q-92 0 -187 -64v-737h-276zM213 1282q125 166 260 166q49 0 117.5 -32t101.5 -32q51 0 137 76l121 -121q-147 -166 -260 -165 q-49 0 -118.5 32.5t-102.5 32.5q-41 0 -135 -78z" />
<glyph unicode="&#xf2;" horiz-adv-x="1189" d="M82 498q0 236 146.5 387t375.5 151q223 0 363.5 -146.5t140.5 -375.5q0 -242 -145.5 -392.5t-378.5 -150.5q-223 0 -362.5 146.5t-139.5 380.5zM322 1311l104 207l453 -252l-84 -150zM358 508q0 -137 68 -222t176 -85q106 0 167.5 82t61.5 219t-66.5 222t-172.5 85 t-170 -83t-64 -218z" />
<glyph unicode="&#xf3;" horiz-adv-x="1189" d="M82 498q0 236 146.5 387t375.5 151q223 0 363.5 -146.5t140.5 -375.5q0 -242 -145.5 -392.5t-378.5 -150.5q-223 0 -362.5 146.5t-139.5 380.5zM318 1266l452 252l105 -207l-473 -195zM358 508q0 -137 68 -222t176 -85q106 0 167.5 82t61.5 219t-66.5 222t-172.5 85 t-170 -83t-64 -218z" />
<glyph unicode="&#xf4;" horiz-adv-x="1189" d="M82 498q0 236 146.5 387t375.5 151q223 0 363.5 -146.5t140.5 -375.5q0 -242 -145.5 -392.5t-378.5 -150.5q-223 0 -362.5 146.5t-139.5 380.5zM260 1262l346 258l348 -271l-92 -129l-256 146l-254 -144zM358 508q0 -137 68 -222t176 -85q106 0 167.5 82t61.5 219 t-66.5 222t-172.5 85t-170 -83t-64 -218z" />
<glyph unicode="&#xf5;" horiz-adv-x="1189" d="M82 498q0 236 146.5 387t375.5 151q223 0 363.5 -146.5t140.5 -375.5q0 -242 -145.5 -392.5t-378.5 -150.5q-223 0 -362.5 146.5t-139.5 380.5zM211 1282q125 166 260 166q49 0 117.5 -32t101.5 -32q51 0 137 76l121 -121q-147 -166 -260 -165q-49 0 -118.5 32.5 t-102.5 32.5q-41 0 -135 -78zM358 508q0 -137 68 -222t176 -85q106 0 167.5 82t61.5 219t-66.5 222t-172.5 85t-170 -83t-64 -218z" />
<glyph unicode="&#xf6;" horiz-adv-x="1189" d="M82 498q0 236 146.5 387t375.5 151q223 0 363.5 -146.5t140.5 -375.5q0 -242 -145.5 -392.5t-378.5 -150.5q-223 0 -362.5 146.5t-139.5 380.5zM260 1309q0 59 42 101t101 42t101 -42t42 -101t-42 -101.5t-101 -42.5t-101 42t-42 102zM358 508q0 -137 68 -222t176 -85 q106 0 167.5 82t61.5 219t-66.5 222t-172.5 85t-170 -83t-64 -218zM659 1309q0 59 42 101t101 42t101.5 -42t42.5 -101t-42 -101.5t-102 -42.5q-59 0 -101 42t-42 102z" />
<glyph unicode="&#xf7;" horiz-adv-x="1320" d="M100 424v229h1121v-229h-1121zM494 152q0 74 49 124t119 50t118.5 -50t48.5 -124q0 -72 -50 -123.5t-117 -51.5q-70 0 -119 51.5t-49 123.5zM494 913q0 74 49 124t119 50t118.5 -50t48.5 -124q0 -72 -50 -123t-117 -51q-70 0 -119 51.5t-49 122.5z" />
<glyph unicode="&#xf8;" horiz-adv-x="1189" d="M82 498q0 236 146.5 387t375.5 151q102 0 180 -28l86 145l164 -96l-90 -148q164 -131 164 -395q0 -242 -145.5 -392.5t-378.5 -150.5q-106 0 -168 27l-86 -148l-168 93l88 149q-168 135 -168 406zM342 485q0 -94 39 -172l291 502q-33 14 -70 14q-123 0 -191.5 -92 t-68.5 -252zM524 190q37 -10 72 -10q125 0 190.5 89t65.5 243q0 80 -39 174z" />
<glyph unicode="&#xf9;" horiz-adv-x="1126" d="M111 465v543h276v-531q0 -190 43 -233q37 -37 109 -37q92 0 186 63v738h276v-1008h-235v76q-135 -104 -285 -105q-164 0 -262 99q-76 76 -96 190q-12 61 -12 205zM271 1311l104 207l453 -252l-84 -150z" />
<glyph unicode="&#xfa;" horiz-adv-x="1126" d="M111 465v543h276v-531q0 -190 43 -233q37 -37 109 -37q92 0 186 63v738h276v-1008h-235v76q-135 -104 -285 -105q-164 0 -262 99q-76 76 -96 190q-12 61 -12 205zM295 1266l452 252l105 -207l-473 -195z" />
<glyph unicode="&#xfb;" horiz-adv-x="1126" d="M111 465v543h276v-531q0 -190 43 -233q37 -37 109 -37q92 0 186 63v738h276v-1008h-235v76q-135 -104 -285 -105q-164 0 -262 99q-76 76 -96 190q-12 61 -12 205zM191 1262l346 258l348 -271l-92 -129l-256 146l-254 -144z" />
<glyph unicode="&#xfc;" horiz-adv-x="1126" d="M111 465v543h276v-531q0 -190 43 -233q37 -37 109 -37q92 0 186 63v738h276v-1008h-235v76q-135 -104 -285 -105q-164 0 -262 99q-76 76 -96 190q-12 61 -12 205zM193 1309q0 59 42 101t101 42t101 -42t42 -101t-42 -101.5t-101 -42.5t-101 42t-42 102zM592 1309 q0 59 42 101t101 42t101.5 -42t42.5 -101t-42 -101.5t-102 -42.5q-59 0 -101 42t-42 102z" />
<glyph unicode="&#xfd;" horiz-adv-x="1183" d="M-12 -414l82 197q82 -35 155 -35q86 0 137 51q41 41 101 201l-422 1008h293l270 -707l252 707h272l-399 -1018q-109 -276 -194 -363q-104 -104 -295 -104q-137 0 -252 63zM295 1266l452 252l105 -207l-473 -195z" />
<glyph unicode="&#xfe;" horiz-adv-x="1155" d="M125 -444v1927h256v-531q96 84 248 84q197 0 320.5 -142.5t123.5 -375.5q0 -229 -147.5 -388t-354.5 -159q-106 0 -176 43v-458h-270zM395 236q72 -41 142 -41q98 0 172 75q84 88 84 240q0 133 -59.5 213t-160.5 80q-90 0 -178 -64v-503z" />
<glyph unicode="&#xff;" horiz-adv-x="1183" d="M-12 -414l82 197q82 -35 155 -35q86 0 137 51q41 41 101 201l-422 1008h293l270 -707l252 707h272l-399 -1018q-109 -276 -194 -363q-104 -104 -295 -104q-137 0 -252 63zM260 1309q0 59 42 101t101 42t101 -42t42 -101t-42 -101.5t-101 -42.5t-101 42t-42 102zM659 1309 q0 59 42 101t101 42t101.5 -42t42.5 -101t-42 -101.5t-102 -42.5q-59 0 -101 42t-42 102z" />
<glyph unicode="&#x152;" horiz-adv-x="1828" d="M94 672q0 303 187 489q133 133 333 176q129 29 381 29h719v-233h-506v-318h473v-229h-473v-348h523v-238h-832q-227 0 -328 23q-168 37 -290 159q-186 186 -187 490zM383 664q0 -207 117 -324q78 -78 188 -100q63 -12 219 -13h23v908h-78q-469 0 -469 -471z" />
<glyph unicode="&#x153;" horiz-adv-x="1839" d="M63 498q0 236 147.5 387t379.5 151q219 0 377 -159q63 63 98 86q115 74 258 73q217 0 338 -145q115 -141 115 -391q0 -25 -2 -53.5t-2 -32.5h-664q-4 -74 51 -142q74 -86 207 -86q117 0 268 72l90 -176q-33 -27 -110 -57q-131 -53 -273 -54q-227 0 -380 162 q-162 -164 -392 -164q-225 0 -365.5 147.5t-140.5 381.5zM336 496q0 -135 69.5 -218t176.5 -83q109 0 176 85t67 232q0 145 -66.5 224t-176.5 79q-109 0 -177.5 -86t-68.5 -233zM1106 612h414q0 94 -49.5 156.5t-141.5 62.5q-90 0 -148.5 -60t-74.5 -159z" />
<glyph unicode="&#x178;" horiz-adv-x="1249" d="M55 1366h295l289 -592l289 592h266l-430 -821v-545h-279v545zM295 1606q0 59 42 101t101 42t101 -42t42 -101t-42 -101.5t-101 -42.5t-101 42t-42 102zM694 1606q0 59 42 101t101 42t101.5 -42t42.5 -101t-42 -101.5t-102 -42.5q-59 0 -101 42t-42 102z" />
<glyph unicode="&#x2c6;" horiz-adv-x="811" d="M80 1262l346 258l348 -271l-92 -129l-256 146l-254 -144z" />
<glyph unicode="&#x2dc;" horiz-adv-x="815" d="M78 1282q125 166 260 166q49 0 117.5 -32t101.5 -32q51 0 137 76l121 -121q-147 -166 -260 -165q-49 0 -118.5 32.5t-102.5 32.5q-41 0 -135 -78z" />
<glyph unicode="&#x2000;" horiz-adv-x="955" />
<glyph unicode="&#x2001;" horiz-adv-x="1911" />
<glyph unicode="&#x2002;" horiz-adv-x="955" />
<glyph unicode="&#x2003;" horiz-adv-x="1911" />
<glyph unicode="&#x2004;" horiz-adv-x="637" />
<glyph unicode="&#x2005;" horiz-adv-x="477" />
<glyph unicode="&#x2006;" horiz-adv-x="318" />
<glyph unicode="&#x2007;" horiz-adv-x="318" />
<glyph unicode="&#x2008;" horiz-adv-x="238" />
<glyph unicode="&#x2009;" horiz-adv-x="382" />
<glyph unicode="&#x200a;" horiz-adv-x="106" />
<glyph unicode="&#x2010;" horiz-adv-x="1015" d="M152 424v229h712v-229h-712z" />
<glyph unicode="&#x2011;" horiz-adv-x="1015" d="M152 424v229h712v-229h-712z" />
<glyph unicode="&#x2012;" horiz-adv-x="1015" d="M152 424v229h712v-229h-712z" />
<glyph unicode="&#x2013;" horiz-adv-x="1374" d="M152 424v229h1071v-229h-1071z" />
<glyph unicode="&#x2014;" horiz-adv-x="2027" d="M152 424v229h1724v-229h-1724z" />
<glyph unicode="&#x2018;" horiz-adv-x="618" d="M82 879q0 123 31 208q41 106 149 216q57 57 119 98l156 -139q-10 -10 -31 -29q-92 -92 -121 -205q-12 -53 -12 -149h-291z" />
<glyph unicode="&#x2019;" horiz-adv-x="618" d="M82 983q10 10 31 29q92 92 120 205q12 53 13 149h291q0 -123 -31 -209q-41 -106 -150 -215q-57 -57 -118 -98z" />
<glyph unicode="&#x201a;" horiz-adv-x="618" d="M82 -109q10 10 31 29q92 92 120 205q12 53 13 149h291q0 -123 -31 -208q-41 -106 -150 -216q-57 -57 -118 -98z" />
<glyph unicode="&#x201c;" horiz-adv-x="1011" d="M82 879q0 123 31 208q41 106 149 216q57 57 119 98l156 -139q-10 -10 -31 -29q-92 -92 -121 -205q-12 -53 -12 -149h-291zM475 879q0 123 31 208q41 106 149 216q57 57 119 98l156 -139q-10 -10 -31 -29q-92 -92 -121 -205q-12 -53 -12 -149h-291z" />
<glyph unicode="&#x201d;" horiz-adv-x="1011" d="M82 983q10 10 31 29q92 92 120 205q12 53 13 149h291q0 -123 -31 -209q-41 -106 -150 -215q-57 -57 -118 -98zM475 983q10 10 31 29q92 92 121 205q12 53 12 149h291q0 -123 -31 -209q-41 -106 -149 -215q-57 -57 -119 -98z" />
<glyph unicode="&#x201e;" horiz-adv-x="1015" d="M82 -109q10 10 31 29q92 92 120 205q12 53 13 149h291q0 -123 -31 -208q-41 -106 -150 -216q-57 -57 -118 -98zM479 -109q10 10 31 29q92 92 121 205q12 53 12 149h291q0 -123 -31 -208q-41 -106 -149 -216q-57 -57 -119 -98z" />
<glyph unicode="&#x2022;" horiz-adv-x="909" d="M219 569q0 98 68.5 167t167.5 69q98 0 166.5 -69t68.5 -167t-68.5 -166.5t-166.5 -68.5t-167 68.5t-69 166.5z" />
<glyph unicode="&#x2026;" horiz-adv-x="1802" d="M125 160q0 72 51 123t123 51t123 -51t51 -123t-51 -123t-123 -51t-123 51t-51 123zM727 160q0 72 51 123t123 51t123 -51t51 -123t-51 -123t-123 -51t-123 51t-51 123zM1329 160q0 72 51.5 123t122.5 51q72 0 123 -51t51 -123t-51 -123t-123 -51t-123 51t-51 123z" />
<glyph unicode="&#x202f;" horiz-adv-x="382" />
<glyph unicode="&#x2039;" horiz-adv-x="718" d="M125 500l305 401l164 -110l-166 -291l166 -305l-166 -95z" />
<glyph unicode="&#x203a;" horiz-adv-x="718" d="M125 195l166 305l-166 291l164 110l305 -401l-303 -400z" />
<glyph unicode="&#x205f;" horiz-adv-x="477" />
<glyph unicode="&#x20ac;" d="M113 438v185h137q-2 33 -2 63q0 33 2 57h-137v185h151q12 125 105 254q150 217 428 217q281 0 428 -176l-129 -156q-131 109 -279 109q-242 0 -285 -248h439v-185h-459q-2 -25 -2 -57q0 -31 2 -63h459v-185h-434q6 -70 47 -131q76 -113 241 -112q139 0 277 98l131 -164 q-162 -162 -434 -162q-276 0 -426 209q-94 133 -107 262h-153z" />
<glyph unicode="&#x2122;" horiz-adv-x="1722" d="M94 1217v149h600v-149h-209v-576h-180v576h-211zM803 641l67 725h183l166 -477l155 477h185l69 -725h-170l-35 434l-141 -434h-143l-146 434l-28 -434h-162z" />
<glyph unicode="&#xe000;" horiz-adv-x="1003" d="M0 0v1004h1004v-1004h-1004z" />
</font>
</defs>
</svg>
