<?xml version="1.0" standalone="no"?>
<!DOCTYPE svg PUBLIC "-//W3C//DTD SVG 1.1//EN" "http://www.w3.org/Graphics/SVG/1.1/DTD/svg11.dtd" >
<svg xmlns="http://www.w3.org/2000/svg">
<metadata></metadata>
<defs>
<font id="foundrysterling-mediumregular" horiz-adv-x="1249" >
<font-face units-per-em="2048" ascent="1638" descent="-410" />
<missing-glyph horiz-adv-x="487" />
<glyph horiz-adv-x="2048" />
<glyph horiz-adv-x="2048" />
<glyph unicode="&#xd;" horiz-adv-x="1048" />
<glyph unicode=" "  horiz-adv-x="487" />
<glyph unicode="&#x09;" horiz-adv-x="487" />
<glyph unicode="&#xa0;" horiz-adv-x="487" />
<glyph unicode="!" horiz-adv-x="659" d="M211 102q0 49 35 83t84 34t82.5 -34t33.5 -83t-33.5 -83.5t-82.5 -34.5t-84 34.5t-35 83.5zM223 1366h209l-26 -1006h-150z" />
<glyph unicode="&#x22;" horiz-adv-x="681" d="M106 1366h191l-21 -485h-149zM387 1366h191l-21 -485h-149z" />
<glyph unicode="#" horiz-adv-x="1185" d="M143 573l19 136h182l31 219h-182l18 135h182l43 303h137l-43 -303h193l43 303h137l-43 -303h182l-18 -135h-182l-31 -219h182l-18 -136h-182l-50 -335h-137l49 335h-192l-49 -335h-138l50 335h-183zM481 709h193l31 219h-193z" />
<glyph unicode="$" d="M176 131l90 125q63 -41 101 -59q100 -49 198 -56v508q-190 86 -256 152q-94 94 -94 217q0 139 95.5 235.5t254.5 118.5v180h150v-176q217 -16 342 -135l-92 -113q-37 29 -78 50q-84 43 -172 51v-445q178 -82 258 -161q100 -101 100 -236q0 -152 -94 -259.5t-264 -133.5 v-203h-150v197q-152 8 -280 71q-70 37 -109 72zM397 1030q0 -55 49 -104q39 -39 121 -80v377q-170 -45 -170 -193zM713 152q170 51 170 223q0 76 -66 141q-39 39 -104 72v-436z" />
<glyph unicode="%" horiz-adv-x="1523" d="M92 1024q0 174 81 273.5t224 99.5q137 0 219 -98.5t82 -260.5q0 -170 -81.5 -268t-225.5 -98q-139 0 -219 95t-80 257zM227 -8l963 1446l106 -74l-962 -1444zM229 1026q0 -242 162 -242q170 0 170 252q0 117 -44 182.5t-118 65.5q-170 0 -170 -258zM825 324q0 174 81 273 t224 99q137 0 219.5 -98t82.5 -260q0 -170 -82 -268.5t-226 -98.5q-139 0 -219 95.5t-80 257.5zM963 326q0 -242 161 -242q170 0 170 252q0 117 -44 182.5t-117 65.5q-170 0 -170 -258z" />
<glyph unicode="&#x26;" horiz-adv-x="1384" d="M106 383q0 160 107 270q59 63 172 123q-141 188 -141 297q0 137 104.5 227.5t261.5 90.5q152 0 246 -79t94 -210q0 -139 -104 -238q-68 -63 -209 -131l311 -360q37 45 72 145q41 119 41 234h156q-2 -160 -60 -316q-45 -121 -96 -182q98 -106 223 -117v-137l-41 -2 q-100 0 -157.5 25.5t-137.5 109.5q-170 -158 -407 -158q-186 0 -310.5 117t-124.5 291zM281 389q0 -111 78.5 -185.5t199.5 -72.5q158 2 281 115l-361 420q-199 -100 -198 -277zM418 1079q0 -84 123 -233q235 107 235 250q0 158 -166 157q-84 0 -138 -49t-54 -125z" />
<glyph unicode="'" horiz-adv-x="403" d="M106 1366h191l-21 -485h-149z" />
<glyph unicode="(" horiz-adv-x="792" d="M147 608q0 303 152 563q125 215 301 330l92 -115q-150 -119 -241 -307q-109 -219 -109 -477q0 -483 348 -776l-96 -109q-184 131 -301 334q-145 252 -146 557z" />
<glyph unicode=")" horiz-adv-x="792" d="M100 1386l93 115q176 -115 301 -330q151 -260 151 -563q0 -305 -145 -557q-117 -203 -301 -334l-97 109q348 293 349 776q0 258 -109 477q-92 188 -242 307z" />
<glyph unicode="*" horiz-adv-x="903" d="M109 1085l45 136l225 -84v229h145v-229l226 84l45 -136l-236 -73l162 -213l-119 -82l-149 213l-152 -213l-115 82l158 213z" />
<glyph unicode="+" d="M139 453v147h412v410h147v-410h410v-147h-410v-412h-147v412h-412z" />
<glyph unicode="," horiz-adv-x="540" d="M82 -184q129 145 129 323v56h190v-31q0 -268 -217 -436z" />
<glyph unicode="-" horiz-adv-x="1005" d="M166 453v147h676v-147h-676z" />
<glyph unicode="." horiz-adv-x="489" d="M127 102q0 49 35 83t84 34t82.5 -34t33.5 -83t-33.5 -83.5t-82.5 -34.5t-84 34.5t-35 83.5z" />
<glyph unicode="/" horiz-adv-x="944" d="M78 -252l624 1671l146 -53l-625 -1671z" />
<glyph unicode="0" d="M100 688q0 324 138.5 515.5t379.5 191.5q250 0 390.5 -190.5t140.5 -518.5q0 -334 -138.5 -523.5t-387.5 -189.5q-250 0 -386.5 189.5t-136.5 525.5zM285 676q0 -266 87 -408.5t249 -142.5q166 0 255 143.5t89 413.5t-88.5 415.5t-249.5 145.5q-342 0 -342 -567z" />
<glyph unicode="1" d="M199 1065l450 301h146v-1366h-181v1153l-325 -219z" />
<glyph unicode="2" d="M178 1214q31 43 119 95q143 86 313 86q193 0 310.5 -109.5t117.5 -296.5q0 -150 -100 -301q-68 -104 -227 -264q-219 -219 -285 -268h631v-156h-875v141q117 96 340 320q178 178 250 284q82 123 82 236q0 121 -70.5 189.5t-193.5 68.5q-172 0 -316 -133z" />
<glyph unicode="3" d="M147 121l91 117l86 -58q104 -51 219 -51q150 0 233.5 66.5t83.5 183.5q0 98 -67 164q-86 82 -330 82h-33v151h33q117 0 172 12q90 18 147.5 76t57.5 150q0 98 -73 161.5t-196 63.5q-176 0 -307 -121l-92 109q25 35 115 88q141 80 307 80q193 0 309.5 -102.5t116.5 -268.5 q0 -115 -66 -205q-70 -98 -186 -114q127 -12 203 -103.5t76 -216.5q0 -188 -132.5 -300t-347.5 -112q-176 0 -309 68q-78 39 -111 80z" />
<glyph unicode="4" d="M115 309v137l653 920h180v-907h180v-150h-180v-309h-172v309h-661zM305 459h471v674z" />
<glyph unicode="5" d="M162 115l88 118q147 -104 299 -104t240 81t88 220q0 129 -80 211q-88 88 -246 88q-133 0 -234 -63l-71 43v657h764v-152h-592v-368q84 35 188 35q209 0 331 -120t122 -317q0 -215 -136.5 -343t-359.5 -128q-166 0 -295 68q-78 39 -106 74z" />
<glyph unicode="6" d="M147 647q0 319 123 518q145 229 424 230q158 0 283 -62q78 -39 102 -71l-84 -119q-131 100 -282 100q-207 0 -307 -168q-84 -135 -89 -362v-51q35 113 144 180q100 63 227 63q195 0 310.5 -125.5t115.5 -324.5q0 -209 -129 -345.5t-336 -136.5q-252 0 -385 207 q-117 182 -117 467zM362 434q0 -133 83 -221t212 -88q131 0 209 92t78 229q0 135 -72.5 221.5t-203.5 86.5q-135 0 -220.5 -92.5t-85.5 -227.5z" />
<glyph unicode="7" d="M162 1210v156h938v-141l-553 -1225h-199l561 1210h-747z" />
<glyph unicode="8" d="M139 369q0 133 75 230t200 110q-113 27 -173.5 110.5t-60.5 196.5q0 170 123 274.5t320 104.5q201 0 323.5 -102.5t122.5 -270.5q0 -117 -60.5 -202t-168.5 -111q131 -23 200.5 -113t69.5 -225q0 -182 -131 -290t-348 -108q-223 0 -357.5 106.5t-134.5 289.5zM317 381 q0 -123 83 -193.5t233 -70.5q139 0 219 70.5t80 191.5q0 119 -81 187.5t-224 68.5t-226.5 -69.5t-83.5 -184.5zM356 1016q0 -106 76 -174t197 -68q117 0 191.5 68t74.5 172q0 106 -73.5 171.5t-194.5 65.5t-196 -66.5t-75 -168.5z" />
<glyph unicode="9" d="M133 913q0 209 130 345.5t337 136.5q252 0 385 -207q115 -180 115 -467q0 -319 -123 -518q-143 -229 -422 -230q-158 0 -283 62q-80 39 -104 71l86 119q135 -102 283 -102q207 0 307 168q84 137 88 364v50q-35 -113 -144 -179q-100 -63 -227 -63q-195 0 -311.5 127 t-116.5 323zM305 920q0 -135 73 -220.5t204 -85.5q135 0 220 92.5t85 227.5q0 133 -83 221t-212 88q-131 0 -209 -93t-78 -230z" />
<glyph unicode=":" horiz-adv-x="489" d="M127 102q0 49 35 83t84 34t82.5 -34t33.5 -83t-33.5 -83.5t-82.5 -34.5t-84 34.5t-35 83.5zM127 893q0 49 35 83t84 34t82.5 -34t33.5 -83t-33.5 -84t-82.5 -35t-84 35t-35 84z" />
<glyph unicode=";" horiz-adv-x="540" d="M82 -184q129 172 129 323v56h190v-31q0 -158 -84 -291q-57 -90 -133 -145zM180 893q0 49 35 83t84 34t83 -34t34 -83t-34 -84t-83 -35t-84 35t-35 84z" />
<glyph unicode="&#x3c;" d="M123 469v115l944 448l59 -137l-786 -371l786 -368l-59 -133z" />
<glyph unicode="=" d="M115 305v148h1020v-148h-1020zM115 598v147h1020v-147h-1020z" />
<glyph unicode="&#x3e;" d="M123 156l786 368l-786 371l61 137l942 -448v-115l-944 -446z" />
<glyph unicode="?" horiz-adv-x="1036" d="M106 1260q27 29 119 71q139 63 279 64q176 0 288.5 -99.5t112.5 -265.5q0 -154 -121 -274q-37 -37 -123 -100.5t-104 -82.5q-29 -29 -37 -75q-6 -33 -8 -138h-150q-8 121 -8 127q0 111 54 164q33 33 112.5 93.5t118.5 99.5q76 76 76 180q0 96 -65.5 156.5t-178.5 60.5 q-145 0 -289 -98zM319 102q0 49 35 83t84 34t83 -34t34 -83t-34 -83.5t-83 -34.5t-84 34.5t-35 83.5z" />
<glyph unicode="@" horiz-adv-x="1609" d="M96 629q0 324 224.5 539.5t558.5 215.5q274 0 454 -152t180 -388q0 -221 -152.5 -358.5t-395.5 -137.5q-10 0 -50 4l15 88q-131 -94 -232 -94q-106 0 -170.5 73t-64.5 187q0 188 133 317.5t330 129.5q119 0 227 -43l-104 -545q145 14 240 113.5t95 263.5q0 184 -141 302 t-366 118q-279 0 -460 -180.5t-181 -456.5q0 -238 153.5 -382.5t394.5 -144.5q156 0 303 62q20 10 125 67l70 -98q-229 -158 -512 -158q-291 0 -482.5 184.5t-191.5 473.5zM598 610q0 -61 36 -101t91 -40q102 0 209 102l67 361q-43 8 -75 8q-133 0 -230.5 -97.5 t-97.5 -232.5z" />
<glyph unicode="A" horiz-adv-x="1243" d="M27 0l495 1366h195l500 -1366h-193l-125 356h-563l-125 -356h-184zM387 506h461l-232 665z" />
<glyph unicode="B" horiz-adv-x="1169" d="M166 0v1366h377q129 0 198 -16q102 -23 168 -88q106 -106 107 -263q0 -139 -86 -225q-61 -61 -133 -74q113 -16 182 -88q80 -82 80 -217q0 -166 -103 -268q-88 -88 -231 -113q-84 -14 -317 -14h-242zM344 150h152q115 0 168 10q92 18 150 76.5t58 154.5q0 92 -61 154 q-53 53 -156 67q-51 8 -198 9h-113v-471zM344 762h105q238 0 319 76q63 59 63 157q0 94 -51 149.5t-145 69.5q-45 6 -172 7h-119v-459z" />
<glyph unicode="C" horiz-adv-x="1269" d="M106 672q0 332 201 532q188 190 481 191q172 0 306 -58q80 -35 114 -69l-80 -127q-147 92 -329 92q-215 0 -357 -146q-147 -150 -147 -399q0 -252 132 -401.5t357 -149.5q162 0 357 107l80 -127q-33 -35 -131 -78q-152 -66 -328 -66q-283 0 -465 185q-190 193 -191 514z " />
<glyph unicode="D" horiz-adv-x="1394" d="M166 0v1366h301q236 0 350 -27q164 -35 277 -147q194 -195 194 -500q0 -313 -194 -508q-117 -117 -285 -157q-117 -27 -344 -27h-299zM348 150h170q150 0 240 22q123 31 207 117q137 141 137 407q0 248 -146 394q-82 82 -200 108q-90 20 -289 21h-119v-1069z" />
<glyph unicode="E" horiz-adv-x="1042" d="M166 0v1366h756v-152h-576v-430h541v-147h-541v-481h592v-156h-772z" />
<glyph unicode="F" horiz-adv-x="991" d="M166 0v1366h739v-152h-557v-430h524v-147h-524v-637h-182z" />
<glyph unicode="G" horiz-adv-x="1376" d="M106 672q0 332 201 532q188 190 481 191q172 0 306 -58q80 -35 114 -69l-80 -127q-129 92 -329 92q-215 0 -357 -146q-147 -150 -147 -399q0 -254 132 -405.5t359 -151.5q158 0 277 59v340h-293v146h471v-576q-43 -33 -131 -67q-160 -61 -344 -62q-287 0 -469 185 q-190 193 -191 516z" />
<glyph unicode="H" horiz-adv-x="1327" d="M166 0v1366h184v-573h627v573h184v-1366h-184v637h-627v-637h-184z" />
<glyph unicode="I" horiz-adv-x="516" d="M166 0v1366h184v-1366h-184z" />
<glyph unicode="J" horiz-adv-x="770" d="M16 55l66 131q98 -53 178 -53q113 0 152 80q24 51 24 174v10v969h185v-932q0 -141 -11 -198q-18 -109 -84 -175q-88 -88 -237 -88q-170 0 -273 82z" />
<glyph unicode="K" horiz-adv-x="1157" d="M166 0v1366h182v-641l551 641h205l-580 -668l609 -698h-224l-561 647v-647h-182z" />
<glyph unicode="L" horiz-adv-x="995" d="M166 0v1366h184v-1210h568v-156h-752z" />
<glyph unicode="M" horiz-adv-x="1783" d="M143 0l146 1366h203l403 -1116l391 1116h203l151 -1366h-180l-112 1104l-387 -1104h-152l-395 1104l-105 -1104h-166z" />
<glyph unicode="N" horiz-adv-x="1323" d="M166 0v1366h182l645 -1092l-4 1092h168v-1366h-182l-645 1087l4 -1087h-168z" />
<glyph unicode="O" horiz-adv-x="1462" d="M106 680q0 315 175.5 514t455.5 199q272 0 445.5 -197t173.5 -506q0 -319 -175 -518t-454 -199q-270 0 -445.5 199t-175.5 508zM295 684q0 -246 125 -399.5t315 -153.5q207 0 324 162q108 153 108 403q0 244 -122.5 392.5t-319.5 148.5q-195 0 -312.5 -151.5 t-117.5 -401.5z" />
<glyph unicode="P" horiz-adv-x="1142" d="M166 0v1366h342q154 0 231 -16q113 -25 183 -95q114 -114 114 -292q0 -184 -112 -297q-88 -88 -215 -111q-68 -12 -265 -12h-96v-543h-182zM348 692h92q145 0 193 6q92 14 141 64q78 78 78 203q0 119 -76 194q-61 61 -282 62h-146v-529z" />
<glyph unicode="Q" horiz-adv-x="1462" d="M106 680q0 315 175.5 514t455.5 199q272 0 445.5 -197t173.5 -506q0 -266 -127 -457q-145 -215 -410 -243q111 -135 379 -135h-2q0 1 143 12l21 -129q-90 -23 -209 -23q-365 0 -545 275q-201 29 -340 200q-160 197 -160 490zM295 684q0 -246 125 -399.5t315 -153.5 q207 0 324 162q108 153 108 403q0 244 -122.5 392.5t-319.5 148.5q-195 0 -312.5 -151.5t-117.5 -401.5z" />
<glyph unicode="R" horiz-adv-x="1159" d="M166 0v1366h303q174 0 244 -12q117 -23 190 -97q106 -106 107 -272q0 -145 -86 -237.5t-217 -106.5q63 -2 116 -55q39 -39 107 -191l176 -395h-193l-157 356q-68 154 -127 195q-53 35 -197 35h-86v-586h-180zM346 731h64q137 0 192 8q100 16 158 74q67 68 67 172t-59 164 q-49 49 -127 63q-43 8 -154 9h-141v-490z" />
<glyph unicode="S" horiz-adv-x="1073" d="M88 119l88 127q174 -117 324 -117q123 0 194.5 64.5t71.5 160.5q0 98 -107 176q-49 37 -215 119q-158 78 -223 144q-94 94 -94 231q0 162 120 265.5t308 103.5q160 0 285 -64q72 -39 104 -76l-92 -118q-127 102 -285 102q-115 0 -185.5 -53.5t-70.5 -143.5q0 -84 78 -141 q23 -18 178 -98q190 -98 240 -137q149 -121 149 -293q0 -174 -120.5 -287t-327.5 -113q-154 0 -295 68q-86 41 -125 80z" />
<glyph unicode="T" horiz-adv-x="1107" d="M61 1214v152h986v-152h-400v-1214h-184v1214h-402z" />
<glyph unicode="U" horiz-adv-x="1288" d="M147 526v840h185v-860q0 -109 8 -154q16 -82 70 -135q86 -86 241 -86q141 0 226 84q61 61 75 162q8 53 9 266v723h180v-694q0 -246 -13 -328q-23 -147 -110 -235q-135 -135 -373 -136q-240 0 -379 140q-80 80 -104 202q-14 66 -15 211z" />
<glyph unicode="V" horiz-adv-x="1247" d="M47 1366h191l387 -1178l397 1178h178l-479 -1366h-203z" />
<glyph unicode="W" horiz-adv-x="1830" d="M80 1366h184l260 -1176l291 1176h219l285 -1176l262 1176h170l-332 -1366h-221l-278 1178l-289 -1178h-221z" />
<glyph unicode="X" horiz-adv-x="1189" d="M55 0l439 709l-410 657h207l307 -518l309 518h193l-408 -657l443 -709h-203l-342 565l-340 -565h-195z" />
<glyph unicode="Y" horiz-adv-x="1153" d="M53 1366h195l340 -666l336 666h176l-432 -825v-541h-183v541z" />
<glyph unicode="Z" horiz-adv-x="1130" d="M92 0v131l711 1083h-674v152h891v-137l-701 -1073h717v-156h-944z" />
<glyph unicode="[" horiz-adv-x="708" d="M166 -252v1618h455v-147h-273v-1323h273v-148h-455z" />
<glyph unicode="\" horiz-adv-x="944" d="M96 1366l146 53l624 -1671l-145 -53z" />
<glyph unicode="]" horiz-adv-x="708" d="M88 -104h272v1323h-272v147h455v-1618h-455v148z" />
<glyph unicode="^" d="M154 510l407 856h131l404 -856h-172l-299 655l-299 -655h-172z" />
<glyph unicode="_" horiz-adv-x="995" d="M-4 -104h1003v-148h-1003v148z" />
<glyph unicode="`" horiz-adv-x="657" d="M76 1292l71 148l435 -219l-56 -103z" />
<glyph unicode="a" horiz-adv-x="980" d="M80 287q0 336 565 336h45v63q0 98 -41 139q-51 51 -174 52q-135 0 -272 -78l-64 116q29 25 101 56q117 47 252 47q186 0 286 -100q51 -51 68 -125q12 -53 12 -170v-623h-156v74q-160 -94 -303 -94t-231 85t-88 222zM246 291q0 -76 52 -123t144 -47q98 0 248 74v297h-51 q-262 0 -348 -86q-45 -45 -45 -115z" />
<glyph unicode="b" horiz-adv-x="1095" d="M137 47v1430h174v-541q115 82 264 82q195 0 315 -137.5t120 -366.5q0 -240 -141.5 -389.5t-368.5 -149.5q-164 0 -363 72zM311 154q102 -31 185 -31q154 0 246 106.5t92 282.5q0 164 -80 261t-207 97q-115 0 -236 -84v-632z" />
<glyph unicode="c" horiz-adv-x="972" d="M86 479q0 238 141.5 388.5t362.5 150.5q119 0 223 -49q72 -33 92 -58l-74 -112q-113 71 -234 71h-3q-147 0 -239.5 -108.5t-92.5 -265.5q0 -166 88 -266.5t234 -100.5q113 0 264 78l72 -119q-18 -23 -103 -59q-121 -51 -250 -52q-215 0 -348 137.5t-133 364.5z" />
<glyph unicode="d" horiz-adv-x="1095" d="M86 483q0 238 137 386.5t346 148.5q117 0 215 -60v519h174v-1477h-155v78q-117 -100 -279 -101q-197 0 -317.5 140.5t-120.5 365.5zM262 483q0 -160 83 -259t210 -99q104 0 229 86v594q-91 65 -195 65h-3q-145 0 -234.5 -104t-89.5 -283z" />
<glyph unicode="e" horiz-adv-x="1040" d="M86 489q0 238 127 383.5t334 145.5q188 0 297.5 -132.5t109.5 -363.5q0 -10 -2 -37.5t-2 -35.5h-690v-7q0 -132 74 -219q86 -98 237 -98q125 0 281 78l66 -119q-160 -106 -361 -107q-221 0 -348 146q-123 139 -123 366zM262 586h524q0 111 -49 190q-63 102 -188 103 q-117 0 -197 -80t-90 -213z" />
<glyph unicode="f" horiz-adv-x="782" d="M57 848v143h170v121q0 209 97 305q84 84 233 84q88 0 166 -33q52 -23 70 -41l-68 -116q-66 43 -145 43q-84 0 -131.5 -49.5t-47.5 -190.5v-123h310v-143h-310v-848h-174v848h-170z" />
<glyph unicode="g" horiz-adv-x="1097" d="M86 487q0 229 142.5 380t363.5 151q160 0 369 -92v-930q0 -123 -13 -184q-23 -98 -86 -164q-117 -117 -336 -117q-152 0 -282 59q-88 41 -115 72l76 117q86 -49 94 -53q106 -47 211 -48q139 0 211 68q43 41 55 102q10 47 10 156v72q-139 -78 -270 -78q-195 0 -315 143 q-115 137 -115 346zM262 494q0 -158 80 -254.5t205 -96.5q112 0 239 82v604q-96 41 -198 41q-145 0 -235.5 -103t-90.5 -273z" />
<glyph unicode="h" horiz-adv-x="1062" d="M137 0v1477h174v-547q25 20 92 47q104 41 199 41q152 0 238 -86q63 -63 84 -154q14 -63 14 -203v-575h-174v563q0 113 -8 158q-10 66 -45 100q-49 49 -140 49q-80 0 -174 -41q-61 -27 -86 -45v-784h-174z" />
<glyph unicode="i" horiz-adv-x="446" d="M117 1307q0 45 30.5 75.5t75.5 30.5t76 -30.5t31 -75.5t-31 -76t-76 -31t-75.5 31t-30.5 76zM137 0v991h174v-991h-174z" />
<glyph unicode="j" horiz-adv-x="446" d="M-170 -432l43 129q59 -20 102 -21q74 0 118 44t44 171v1100h174v-1083q0 -205 -90 -295q-82 -82 -229 -82q-98 0 -162 37zM117 1307q0 45 30.5 75.5t75.5 30.5t76 -30.5t31 -75.5t-31 -76t-76 -31t-75.5 31t-30.5 76z" />
<glyph unicode="k" horiz-adv-x="1009" d="M137 0v1477h174v-908l422 422h221l-458 -444l479 -547h-215l-449 518v-518h-174z" />
<glyph unicode="l" horiz-adv-x="448" d="M137 0v1477h174v-1477h-174z" />
<glyph unicode="m" horiz-adv-x="1642" d="M137 0v991h156v-73q147 100 303 100q158 0 244 -115q182 115 344 115q152 0 237 -86q63 -63 84 -154q14 -63 15 -203v-575h-174v580q0 186 -48.5 238t-136.5 52q-127 0 -262 -84q16 -39 16 -231v-555h-172v549q0 127 -6 168q-8 74 -43 108q-45 45 -129 45 q-131 0 -254 -82v-788h-174z" />
<glyph unicode="n" horiz-adv-x="1060" d="M137 0v991h156v-73q150 100 309 100q152 0 238 -86q63 -63 84 -154q14 -63 14 -203v-575h-174v563q0 113 -8 158q-10 66 -45 100q-49 49 -140 49q-80 0 -174 -41q-61 -27 -86 -45v-784h-174z" />
<glyph unicode="o" horiz-adv-x="1105" d="M86 496q0 233 130 377.5t345 144.5q207 0 333 -142t126 -380q0 -233 -129 -376t-344 -143q-207 0 -334 142.5t-127 376.5zM260 502q0 -170 84 -274.5t213 -104.5q137 0 213 99.5t76 271.5q0 170 -83 275t-212 105q-133 0 -212 -102t-79 -270z" />
<glyph unicode="p" horiz-adv-x="1095" d="M137 -438v1429h156v-73q117 100 278 100q197 0 318 -140.5t121 -365.5q0 -238 -137.5 -386.5t-346.5 -148.5q-117 0 -215 60v-475h-174zM311 190q91 -65 196 -65h3q145 0 234.5 104.5t89.5 282.5q0 160 -83 259t-210 99q-104 0 -230 -86v-594z" />
<glyph unicode="q" horiz-adv-x="1097" d="M86 477q0 233 142.5 387t363.5 154q160 0 369 -94v-1362h-175v497q-137 -82 -270 -82q-195 0 -312.5 143.5t-117.5 356.5zM262 483q0 -162 80 -259t205 -97q114 0 239 82v616q-98 43 -198 43q-145 0 -235.5 -105.5t-90.5 -279.5z" />
<glyph unicode="r" horiz-adv-x="776" d="M137 0v991h156v-129q33 43 88 82q104 74 231 74q58 -1 107 -19l-41 -139q-35 6 -74 6q-170 0 -293 -161v-705h-174z" />
<glyph unicode="s" horiz-adv-x="845" d="M61 72l66 121q139 -76 264 -76q82 0 136.5 41t54.5 106q0 82 -127 144q-117 55 -236 112q-127 82 -127 217q0 125 97.5 203t248.5 78q203 0 314 -88l-66 -117q-119 68 -235 68q-88 0 -135.5 -38t-47.5 -95q0 -76 129 -138q229 -109 238 -114q129 -85 129 -220 q0 -139 -105.5 -221t-257.5 -82q-125 0 -239 45q-70 29 -101 54z" />
<glyph unicode="t" horiz-adv-x="761" d="M43 848v143h174v279h174v-279h305v-143h-305v-535q0 -96 21 -131q31 -57 125 -57q49 0 137 27l45 -123q-96 -53 -213 -54q-147 0 -223 76q-47 47 -60 129q-6 37 -6 162v506h-174z" />
<glyph unicode="u" horiz-adv-x="1060" d="M123 416v575h174v-563q0 -113 8 -158q10 -66 45 -100q49 -49 139 -49q80 0 175 41q61 27 86 45v784h174v-991h-156v74q-150 -100 -309 -101q-160 0 -242 82q-63 63 -82 156q-12 59 -12 205z" />
<glyph unicode="v" horiz-adv-x="1042" d="M37 991h184l299 -805l297 805h172l-385 -991h-184z" />
<glyph unicode="w" horiz-adv-x="1542" d="M66 991h172l208 -809l224 809h192l221 -809l215 809h166l-284 -991h-197l-225 813l-226 -813h-192z" />
<glyph unicode="x" horiz-adv-x="1038" d="M47 0l363 504l-340 487h204l246 -358l244 358h188l-334 -483l361 -508h-203l-268 387l-268 -387h-193z" />
<glyph unicode="y" horiz-adv-x="1052" d="M-31 -424l49 131q86 -29 144 -29q96 0 152.5 56.5t131.5 249.5l-411 1007h188l316 -803l286 803h176l-393 -1040q-88 -233 -181 -326.5t-257 -93.5q-86 0 -201 45z" />
<glyph unicode="z" horiz-adv-x="993" d="M92 0v127l553 719h-530v145h745v-131l-545 -713h566v-147h-789z" />
<glyph unicode="{" horiz-adv-x="751" d="M104 514v143q47 4 68 21q33 27 33 160v178q0 197 69 266q84 84 271 84h119v-145h-68q-137 0 -172 -33t-35 -189v-155q0 -190 -49 -234q-20 -18 -51 -24q72 -14 92 -105q8 -39 8 -153v-215q0 -154 33 -185q39 -37 174 -37h68v-143h-119q-186 0 -271 84q-70 70 -69 266v236 q0 133 -33 160q-18 16 -68 20z" />
<glyph unicode="|" horiz-adv-x="532" d="M176 -252v1618h180v-1618h-180z" />
<glyph unicode="}" horiz-adv-x="751" d="M88 -109h68q135 0 174 37q33 31 32 185v215q0 115 9 153q20 90 92 105q-31 6 -51 24q-49 43 -50 234v155q0 98 -4 119q-12 70 -63 88q-39 14 -139 15h-68v145h119q186 0 270 -84q70 -70 70 -266v-178q0 -133 33 -160q20 -16 67 -21v-143q-25 -2 -67 -20q-33 -27 -33 -160 v-236q0 -197 -70 -266q-84 -84 -270 -84h-119v143z" />
<glyph unicode="~" d="M162 502q80 143 260 143q86 0 220 -55t200 -55q68 0 155 88l90 -91q-104 -137 -243 -137q-74 0 -168 35q-80 29 -160 59q-53 16 -96 17q-74 0 -158 -84z" />
<glyph unicode="&#xa1;" horiz-adv-x="659" d="M213 899q0 49 35 84t84 35t83 -35t34 -84t-34 -83t-83 -34t-84 34t-35 83zM225 -365l33 1006h150l26 -1006h-209z" />
<glyph unicode="&#xa2;" d="M213 500q0 209 113.5 355t298.5 175v203h149v-197q98 -12 182 -55q59 -29 76 -49l-74 -113q-33 20 -61 33q-59 27 -123 37v-735q78 10 201 73l72 -118q-14 -16 -80 -48q-92 -45 -193 -57v-213h-149v211q-186 23 -299 157t-113 341zM389 516q0 -137 62.5 -232t173.5 -124 v717q-106 -33 -171 -133.5t-65 -227.5z" />
<glyph unicode="&#xa3;" d="M166 0v137q100 31 147 97.5t47 205.5q0 66 -6 135h-184v148h170q-16 123 -16 195q0 221 121.5 348t332.5 127q145 0 260 -62q70 -37 101 -76l-86 -108q-127 96 -265 96q-133 0 -208.5 -85t-75.5 -240q0 -66 14 -195h397v-148h-383q6 -80 7 -100q0 -236 -113 -319h688 v-156h-948z" />
<glyph unicode="&#xa5;" d="M109 1366h194l326 -623l332 623h178l-367 -641h238v-129h-297v-119h295v-127h-297v-350h-176v350h-299v127h299v119h-302v129h236z" />
<glyph unicode="&#xa6;" horiz-adv-x="532" d="M176 -252v623h180v-623h-180zM176 743v623h180v-623h-180z" />
<glyph unicode="&#xa7;" horiz-adv-x="1228" d="M233 -184l74 123q150 -88 273 -89q111 0 170 52q53 45 53 118q0 63 -42 105.5t-196.5 107t-220.5 129.5q-84 84 -84 193q0 190 217 274q-174 100 -174 261q0 139 97.5 222t263.5 83q180 0 305 -103l-68 -112q-106 74 -231 73q-96 0 -147.5 -41t-51.5 -104q0 -55 39 -94 t200.5 -109.5t217.5 -126.5q84 -83 84 -200q0 -195 -207 -285q166 -92 166 -254q0 -145 -101 -240q-106 -98 -280 -98q-207 0 -357 115zM420 580q0 -51 43 -95.5t221 -119.5q166 65 166 186q0 57 -41 100q-47 47 -205 117q-184 -59 -184 -188z" />
<glyph unicode="&#xa8;" horiz-adv-x="704" d="M74 1276q0 45 31.5 76.5t76.5 31.5t78 -31.5t33 -76.5t-33 -77t-78 -32t-76.5 32t-31.5 77zM414 1276q0 45 31.5 76.5t76.5 31.5t78 -31.5t33 -76.5t-33 -77t-78 -32t-76.5 32t-31.5 77z" />
<glyph unicode="&#xa9;" horiz-adv-x="1607" d="M96 682q0 293 208 501t501 208t499.5 -211t206.5 -498q0 -293 -206.5 -500t-499.5 -207t-501 207t-208 500zM233 682q0 -233 168 -400t404 -167t402.5 165.5t166.5 401.5q0 238 -167 403.5t-402 165.5q-236 0 -404 -169t-168 -400zM455 680q0 176 105.5 289.5 t270.5 113.5q158 0 236 -82l-57 -90q-86 55 -174 56q-109 0 -175.5 -80t-66.5 -195q0 -121 64.5 -195.5t170.5 -74.5q82 0 195 57l53 -92q-16 -20 -80 -47q-88 -37 -182 -37q-160 0 -260 103.5t-100 273.5z" />
<glyph unicode="&#xaa;" horiz-adv-x="870" d="M127 850q0 254 420 254h26v41q0 72 -26 98q-37 37 -125 37q-96 0 -201 -59l-51 94q23 20 78 43q86 35 186 35q139 0 213 -74q61 -61 62 -221v-463h-125v51q-102 -66 -217 -65q-109 0 -174.5 63.5t-65.5 165.5zM260 854q0 -121 137 -121q76 0 176 53v211h-30 q-190 0 -252 -61q-31 -31 -31 -82z" />
<glyph unicode="&#xab;" horiz-adv-x="1003" d="M127 504l291 391l114 -76l-188 -315l188 -326l-114 -72zM471 504l291 391l115 -76l-189 -315l189 -326l-115 -72z" />
<glyph unicode="&#xac;" d="M121 602v148h1007v-435h-161v287h-846z" />
<glyph unicode="&#xad;" horiz-adv-x="1005" d="M166 453v147h676v-147h-676z" />
<glyph unicode="&#xae;" horiz-adv-x="1099" d="M96 940q0 188 133 320.5t322 132.5q188 0 320.5 -132.5t132.5 -320.5t-132.5 -319.5t-320.5 -131.5t-321.5 131.5t-133.5 319.5zM197 940q0 -147 102 -248.5t252 -101.5t252 101.5t102 248.5t-102.5 249.5t-251.5 102.5q-150 0 -252 -102.5t-102 -249.5zM393 700v490h137 q117 0 156 -39t39 -98q0 -51 -30.5 -84t-78.5 -39q23 0 39.5 -16.5t40.5 -71.5l64 -142h-90l-52 113q-25 55 -45 69.5t-69 14.5h-21v-197h-90zM483 979h39q68 0 88.5 20.5t20.5 47.5t-15 40q-20 20 -73 21h-60v-129z" />
<glyph unicode="&#xaf;" horiz-adv-x="778" d="M76 1210v131h651v-131h-651z" />
<glyph unicode="&#xb0;" horiz-adv-x="1245" d="M319 1094q0 125 89.5 214t216.5 89q125 0 214 -89t89 -214t-89 -214t-214 -89q-127 0 -216.5 89t-89.5 214zM440 1094q0 -78 54.5 -131.5t130.5 -53.5t129 53.5t53 131.5t-53.5 131t-128.5 53q-76 0 -130.5 -53.5t-54.5 -130.5z" />
<glyph unicode="&#xb1;" horiz-adv-x="1247" d="M139 0v147h969v-147h-969zM139 657v148h412v424h147v-424h410v-148h-410v-419h-147v419h-412z" />
<glyph unicode="&#xb2;" horiz-adv-x="772" d="M152 1286q78 106 233 107q100 0 163.5 -58.5t63.5 -156.5q0 -127 -161 -287q-33 -33 -107 -98h277v-111h-463v94q59 49 172 160q154 152 153 240q0 106 -108 106q-78 0 -156 -72z" />
<glyph unicode="&#xb3;" horiz-adv-x="755" d="M139 754l62 75q80 -59 149 -59q133 0 133 107q0 68 -63 92q-35 14 -109 14h-32v107h32q162 0 162 100q0 94 -111 94q-80 0 -145 -61l-65 71q80 98 221 99q98 0 159.5 -55.5t61.5 -143.5q0 -49 -29 -92q-33 -49 -86 -62q59 -10 94 -56t35 -101q0 -100 -69.5 -159.5 t-178.5 -59.5q-150 0 -221 90z" />
<glyph unicode="&#xb4;" horiz-adv-x="657" d="M76 1221l434 219l72 -148l-451 -174z" />
<glyph unicode="&#xb6;" d="M104 971q0 166 111 276q76 76 203 101q98 18 317 18h449v-152h-135v-1466h-156v1466h-133v-1466h-156v803q-119 4 -184 16q-129 29 -201 101q-115 115 -115 303z" />
<glyph unicode="&#xb7;" horiz-adv-x="489" d="M127 522q0 49 35 83t84 34t82.5 -34t33.5 -83t-33.5 -84t-82.5 -35t-84 35t-35 84z" />
<glyph unicode="&#xb8;" horiz-adv-x="630" d="M143 -406l37 78q43 -27 103 -26q100 0 100 84q0 80 -86 80q-47 0 -84 -27l-57 35l32 182h101l-17 -102q16 8 47 8q78 0 127.5 -48t49.5 -124q0 -84 -60.5 -134.5t-140.5 -50.5q-100 0 -152 45z" />
<glyph unicode="&#xb9;" horiz-adv-x="761" d="M160 1221l252 157h100v-698h-129v547l-160 -101z" />
<glyph unicode="&#xba;" horiz-adv-x="864" d="M84 1004q0 174 97.5 281.5t256.5 107.5q156 0 249 -106.5t93 -282.5q0 -174 -96 -280t-256 -106q-156 0 -250 105.5t-94 280.5zM221 1008q0 -123 60.5 -198t152.5 -75q98 0 153.5 72t55.5 197q0 123 -60.5 198.5t-152.5 75.5q-94 0 -151.5 -74t-57.5 -196z" />
<glyph unicode="&#xbb;" horiz-adv-x="1003" d="M127 178l188 326l-188 315l115 76l290 -391l-290 -398zM471 178l188 326l-188 315l115 76l291 -391l-291 -398z" />
<glyph unicode="&#xbc;" horiz-adv-x="1533" d="M164 1221l252 157h100v-698h-129v547l-160 -101zM219 -8l981 1446l111 -74l-983 -1444zM815 150v92l340 456h113v-444h86v-104h-86v-150h-117v150h-336zM948 254h203v262z" />
<glyph unicode="&#xbd;" horiz-adv-x="1533" d="M78 1221l252 157h100v-698h-129v547l-160 -101zM133 -8l981 1446l111 -74l-983 -1444zM961 604q78 106 233 107q100 0 163.5 -58.5t63.5 -156.5q0 -127 -161 -287q-33 -33 -107 -98h277v-111h-463v94q59 49 172 160q154 152 153 240q0 106 -108 106q-78 0 -156 -72z" />
<glyph unicode="&#xbe;" horiz-adv-x="1533" d="M147 754l62 75q80 -59 149 -59q133 0 134 107q0 68 -64 92q-35 14 -109 14h-32v107h32q162 0 162 100q0 94 -110 94q-80 0 -146 -61l-65 71q80 98 221 99q98 0 159.5 -55.5t61.5 -143.5q0 -49 -29 -92q-33 -49 -86 -62q59 -10 94 -56t35 -101q0 -100 -69.5 -159.5 t-177.5 -59.5q-150 0 -222 90zM219 -8l981 1446l111 -74l-983 -1444zM815 150v92l340 456h113v-444h86v-104h-86v-150h-117v150h-336zM948 254h203v262z" />
<glyph unicode="&#xbf;" horiz-adv-x="1036" d="M131 -29q0 154 121 275q37 37 123 100.5t104 81.5q29 29 37 76q6 33 8 137h150q8 -121 8 -127q0 -111 -53 -164q-33 -33 -113 -93t-119 -99q-76 -76 -75 -181q0 -96 65.5 -156.5t177.5 -60.5q145 0 289 99l76 -117q-27 -29 -119 -72q-139 -63 -279 -63q-176 0 -288.5 99 t-112.5 265zM481 899q0 49 34 84t83 35t84 -35t35 -84t-35 -83t-84 -34t-83 34t-34 83z" />
<glyph unicode="&#xc0;" horiz-adv-x="1243" d="M27 0l495 1366h195l500 -1366h-193l-125 356h-563l-125 -356h-184zM369 1640l71 148l435 -219l-56 -103zM387 506h461l-232 665z" />
<glyph unicode="&#xc1;" horiz-adv-x="1243" d="M27 0l495 1366h195l500 -1366h-193l-125 356h-563l-125 -356h-184zM352 1569l434 219l72 -148l-451 -174zM387 506h461l-232 665z" />
<glyph unicode="&#xc2;" horiz-adv-x="1243" d="M27 0l495 1366h195l500 -1366h-193l-125 356h-563l-125 -356h-184zM291 1567l325 221l324 -225l-68 -97l-256 144l-258 -144zM387 506h461l-232 665z" />
<glyph unicode="&#xc3;" horiz-adv-x="1243" d="M27 0l495 1366h195l500 -1366h-193l-125 356h-563l-125 -356h-184zM285 1567q121 106 219 106q43 0 114.5 -25.5t108.5 -25.5q70 0 141 61l78 -100q-109 -111 -221 -110q-43 0 -114.5 25.5t-108.5 25.5q-49 0 -137 -58zM387 506h461l-232 665z" />
<glyph unicode="&#xc4;" horiz-adv-x="1243" d="M27 0l495 1366h195l500 -1366h-193l-125 356h-563l-125 -356h-184zM338 1587q0 45 31.5 76.5t76.5 31.5t78 -31.5t33 -76.5t-33 -77t-78 -32t-76.5 32t-31.5 77zM387 506h461l-232 665zM678 1587q0 45 31.5 76.5t76.5 31.5t78 -31.5t33 -76.5t-33 -77t-78 -32t-76.5 32 t-31.5 77z" />
<glyph unicode="&#xc5;" horiz-adv-x="1243" d="M27 0l495 1366h195l500 -1366h-193l-125 356h-563l-125 -356h-184zM387 506h461l-232 665zM408 1676q0 88 61.5 147.5t147.5 59.5t147.5 -60.5t61.5 -146.5t-61.5 -147.5t-147.5 -61.5t-147.5 61.5t-61.5 147.5zM508 1676q0 -45 32 -77t77 -32t76.5 32t31.5 77 q0 47 -31.5 77.5t-76.5 30.5t-77 -31.5t-32 -76.5z" />
<glyph unicode="&#xc6;" horiz-adv-x="1779" d="M35 0l780 1366h844v-152h-576v-430h541v-147h-541v-481h592v-156h-772v358h-479l-195 -358h-194zM506 512h397v719z" />
<glyph unicode="&#xc7;" horiz-adv-x="1269" d="M106 672q0 332 201 532q188 190 481 191q172 0 306 -58q80 -35 114 -69l-80 -127q-147 92 -329 92q-215 0 -357 -146q-147 -150 -147 -399q0 -252 132 -401.5t357 -149.5q162 0 357 107l80 -127q-33 -35 -131 -78q-152 -66 -328 -66l-17 -96q16 8 48 8q78 0 127 -48 t49 -124q0 -84 -60.5 -134t-140.5 -50q-100 0 -152 45l37 78q43 -27 103 -27q100 0 100 84q0 80 -86 80q-47 0 -84 -27l-57 35l33 183q-246 33 -398 213q-158 188 -158 479z" />
<glyph unicode="&#xc8;" horiz-adv-x="1042" d="M166 0v1366h756v-152h-576v-430h541v-147h-541v-481h592v-156h-772zM279 1640l71 148l435 -219l-56 -103z" />
<glyph unicode="&#xc9;" horiz-adv-x="1042" d="M166 0v1366h756v-152h-576v-430h541v-147h-541v-481h592v-156h-772zM299 1569l434 219l72 -148l-451 -174z" />
<glyph unicode="&#xca;" horiz-adv-x="1042" d="M166 0v1366h756v-152h-576v-430h541v-147h-541v-481h592v-156h-772zM207 1567l325 221l324 -225l-68 -97l-256 144l-258 -144z" />
<glyph unicode="&#xcb;" horiz-adv-x="1042" d="M166 0v1366h756v-152h-576v-430h541v-147h-541v-481h592v-156h-772zM250 1587q0 45 31.5 76.5t76.5 31.5t78 -31.5t33 -76.5t-33 -77t-78 -32t-76.5 32t-31.5 77zM590 1587q0 45 31.5 76.5t76.5 31.5t78 -31.5t33 -76.5t-33 -77t-78 -32t-76.5 32t-31.5 77z" />
<glyph unicode="&#xcc;" horiz-adv-x="516" d="M8 1640l71 148l435 -219l-56 -103zM166 0v1366h184v-1366h-184z" />
<glyph unicode="&#xcd;" horiz-adv-x="516" d="M6 1569l434 219l72 -148l-451 -174zM166 0v1366h184v-1366h-184z" />
<glyph unicode="&#xce;" horiz-adv-x="516" d="M-65 1567l325 221l324 -225l-68 -97l-256 144l-258 -144zM166 0v1366h184v-1366h-184z" />
<glyph unicode="&#xcf;" horiz-adv-x="516" d="M-20 1587q0 45 31.5 76.5t76.5 31.5t78 -31.5t33 -76.5t-33 -77t-78 -32t-76.5 32t-31.5 77zM166 0v1366h184v-1366h-184zM320 1587q0 45 31.5 76.5t76.5 31.5t78 -31.5t33 -76.5t-33 -77t-78 -32t-76.5 32t-31.5 77z" />
<glyph unicode="&#xd0;" horiz-adv-x="1431" d="M0 637v147h205v582h301q236 0 350 -27q164 -35 277 -147q194 -195 194 -500q0 -313 -194 -508q-117 -117 -285 -157q-117 -27 -344 -27h-299v637h-205zM387 150h170q150 0 240 22q123 31 207 117q137 141 137 407q0 248 -146 394q-82 82 -200 108q-90 20 -289 21h-119 v-435h395v-147h-395v-487z" />
<glyph unicode="&#xd1;" horiz-adv-x="1323" d="M166 0v1366h182l645 -1092l-4 1092h168v-1366h-182l-645 1087l4 -1087h-168zM312 1567q121 106 219 106q43 0 114.5 -25.5t108.5 -25.5q70 0 141 61l78 -100q-109 -111 -221 -110q-43 0 -114.5 25.5t-108.5 25.5q-49 0 -137 -58z" />
<glyph unicode="&#xd2;" horiz-adv-x="1462" d="M106 680q0 315 175.5 514t455.5 199q272 0 445.5 -197t173.5 -506q0 -319 -175 -518t-454 -199q-270 0 -445.5 199t-175.5 508zM295 684q0 -246 125 -399.5t315 -153.5q207 0 324 162q108 153 108 403q0 244 -122.5 392.5t-319.5 148.5q-195 0 -312.5 -151.5 t-117.5 -401.5zM479 1640l71 148l435 -219l-56 -103z" />
<glyph unicode="&#xd3;" horiz-adv-x="1462" d="M106 680q0 315 175.5 514t455.5 199q272 0 445.5 -197t173.5 -506q0 -319 -175 -518t-454 -199q-270 0 -445.5 199t-175.5 508zM295 684q0 -246 125 -399.5t315 -153.5q207 0 324 162q108 153 108 403q0 244 -122.5 392.5t-319.5 148.5q-195 0 -312.5 -151.5 t-117.5 -401.5zM457 1569l434 219l72 -148l-451 -174z" />
<glyph unicode="&#xd4;" horiz-adv-x="1462" d="M106 680q0 315 175.5 514t455.5 199q272 0 445.5 -197t173.5 -506q0 -319 -175 -518t-454 -199q-270 0 -445.5 199t-175.5 508zM295 684q0 -246 125 -399.5t315 -153.5q207 0 324 162q108 153 108 403q0 244 -122.5 392.5t-319.5 148.5q-195 0 -312.5 -151.5 t-117.5 -401.5zM400 1567l325 221l324 -225l-68 -97l-256 144l-258 -144z" />
<glyph unicode="&#xd5;" horiz-adv-x="1462" d="M106 680q0 315 175.5 514t455.5 199q272 0 445.5 -197t173.5 -506q0 -319 -175 -518t-454 -199q-270 0 -445.5 199t-175.5 508zM295 684q0 -246 125 -399.5t315 -153.5q207 0 324 162q108 153 108 403q0 244 -122.5 392.5t-319.5 148.5q-195 0 -312.5 -151.5 t-117.5 -401.5zM395 1567q121 106 219 106q43 0 114.5 -25.5t108.5 -25.5q70 0 141 61l78 -100q-109 -111 -221 -110q-43 0 -114.5 25.5t-108.5 25.5q-49 0 -137 -58z" />
<glyph unicode="&#xd6;" horiz-adv-x="1462" d="M106 680q0 315 175.5 514t455.5 199q272 0 445.5 -197t173.5 -506q0 -319 -175 -518t-454 -199q-270 0 -445.5 199t-175.5 508zM295 684q0 -246 125 -399.5t315 -153.5q207 0 324 162q108 153 108 403q0 244 -122.5 392.5t-319.5 148.5q-195 0 -312.5 -151.5 t-117.5 -401.5zM457 1587q0 45 31.5 76.5t76.5 31.5t78 -31.5t33 -76.5t-33 -77t-78 -32t-76.5 32t-31.5 77zM797 1587q0 45 31.5 76.5t76.5 31.5t78 -31.5t33 -76.5t-33 -77t-78 -32t-76.5 32t-31.5 77z" />
<glyph unicode="&#xd7;" d="M139 145l381 379l-381 383l105 105l381 -381l381 381l104 -105l-381 -383l381 -379l-104 -106l-381 381l-381 -381z" />
<glyph unicode="&#xd8;" horiz-adv-x="1462" d="M106 680q0 315 175.5 514t455.5 199q170 0 285 -68l108 182l132 -73l-119 -197q213 -199 213 -547q0 -319 -175 -518t-454 -199q-143 0 -268 62l-105 -182l-129 71l111 193q-229 201 -230 563zM295 684q0 -254 135 -410l512 906q-90 57 -217 57q-195 0 -312.5 -151.5 t-117.5 -401.5zM541 180q76 -49 194 -49q207 0 324 162q108 153 108 403q0 244 -114 385z" />
<glyph unicode="&#xd9;" horiz-adv-x="1288" d="M147 526v840h185v-860q0 -109 8 -154q16 -82 70 -135q86 -86 241 -86q141 0 226 84q61 61 75 162q8 53 9 266v723h180v-694q0 -246 -13 -328q-23 -147 -110 -235q-135 -135 -373 -136q-240 0 -379 140q-80 80 -104 202q-14 66 -15 211zM377 1640l71 148l435 -219 l-56 -103z" />
<glyph unicode="&#xda;" horiz-adv-x="1288" d="M147 526v840h185v-860q0 -109 8 -154q16 -82 70 -135q86 -86 241 -86q141 0 226 84q61 61 75 162q8 53 9 266v723h180v-694q0 -246 -13 -328q-23 -147 -110 -235q-135 -135 -373 -136q-240 0 -379 140q-80 80 -104 202q-14 66 -15 211zM393 1569l434 219l72 -148 l-451 -174z" />
<glyph unicode="&#xdb;" horiz-adv-x="1288" d="M147 526v840h185v-860q0 -109 8 -154q16 -82 70 -135q86 -86 241 -86q141 0 226 84q61 61 75 162q8 53 9 266v723h180v-694q0 -246 -13 -328q-23 -147 -110 -235q-135 -135 -373 -136q-240 0 -379 140q-80 80 -104 202q-14 66 -15 211zM311 1567l325 221l324 -225 l-68 -97l-256 144l-258 -144z" />
<glyph unicode="&#xdc;" horiz-adv-x="1288" d="M147 526v840h185v-860q0 -109 8 -154q16 -82 70 -135q86 -86 241 -86q141 0 226 84q61 61 75 162q8 53 9 266v723h180v-694q0 -246 -13 -328q-23 -147 -110 -235q-135 -135 -373 -136q-240 0 -379 140q-80 80 -104 202q-14 66 -15 211zM367 1587q0 45 31.5 76.5 t76.5 31.5t78 -31.5t33 -76.5t-33 -77t-78 -32t-76.5 32t-31.5 77zM707 1587q0 45 31.5 76.5t76.5 31.5t78 -31.5t33 -76.5t-33 -77t-78 -32t-76.5 32t-31.5 77z" />
<glyph unicode="&#xdd;" horiz-adv-x="1153" d="M53 1366h195l340 -666l336 666h176l-432 -825v-541h-183v541zM312 1569l434 219l72 -148l-451 -174z" />
<glyph unicode="&#xde;" horiz-adv-x="1142" d="M166 0v1366h182v-256h160q154 0 231 -16q113 -25 183 -95q114 -114 114 -292q0 -184 -112 -297q-88 -88 -215 -111q-68 -12 -265 -12h-96v-287h-182zM348 436h92q145 0 193 6q92 14 141 64q78 78 78 203q0 119 -76 194q-61 61 -282 62h-146v-529z" />
<glyph unicode="&#xdf;" horiz-adv-x="1116" d="M137 0v948q0 166 19 254q25 121 94 191q111 111 289 110q168 0 275.5 -97t107.5 -253q0 -106 -56 -192q-29 -43 -104 -113q-55 -53 -55 -80q0 -23 26 -49q88 -70 178 -139q119 -109 119 -254q0 -160 -107.5 -254.5t-269.5 -94.5q-131 0 -247 60l55 137q102 -43 176 -43 q98 0 156.5 50t58.5 134q0 70 -57 134q-27 31 -111 89t-117 93q-51 51 -51 117q0 70 112.5 185.5t112.5 217.5q0 90 -56 145.5t-148 55.5q-94 0 -152 -60q-74 -76 -74 -325v-967h-174z" />
<glyph unicode="&#xe0;" horiz-adv-x="980" d="M80 287q0 336 565 336h45v63q0 98 -41 139q-51 51 -174 52q-135 0 -272 -78l-64 116q29 25 101 56q117 47 252 47q186 0 286 -100q51 -51 68 -125q12 -53 12 -170v-623h-156v74q-160 -94 -303 -94t-231 85t-88 222zM246 291q0 -76 52 -123t144 -47q98 0 248 74v297h-51 q-262 0 -348 -86q-45 -45 -45 -115zM246 1292l71 148l435 -219l-56 -103z" />
<glyph unicode="&#xe1;" horiz-adv-x="980" d="M80 287q0 336 565 336h45v63q0 98 -41 139q-51 51 -174 52q-135 0 -272 -78l-64 116q29 25 101 56q117 47 252 47q186 0 286 -100q51 -51 68 -125q12 -53 12 -170v-623h-156v74q-160 -94 -303 -94t-231 85t-88 222zM242 1221l434 219l72 -148l-451 -174zM246 291 q0 -76 52 -123t144 -47q98 0 248 74v297h-51q-262 0 -348 -86q-45 -45 -45 -115z" />
<glyph unicode="&#xe2;" horiz-adv-x="980" d="M80 287q0 336 565 336h45v63q0 98 -41 139q-51 51 -174 52q-135 0 -272 -78l-64 116q29 25 101 56q117 47 252 47q186 0 286 -100q51 -51 68 -125q12 -53 12 -170v-623h-156v74q-160 -94 -303 -94t-231 85t-88 222zM160 1221l325 221l324 -225l-68 -97l-256 144 l-258 -144zM246 291q0 -76 52 -123t144 -47q98 0 248 74v297h-51q-262 0 -348 -86q-45 -45 -45 -115z" />
<glyph unicode="&#xe3;" horiz-adv-x="980" d="M80 287q0 336 565 336h45v63q0 98 -41 139q-51 51 -174 52q-135 0 -272 -78l-64 116q29 25 101 56q117 47 252 47q186 0 286 -100q51 -51 68 -125q12 -53 12 -170v-623h-156v74q-160 -94 -303 -94t-231 85t-88 222zM168 1250q121 106 219 106q43 0 114.5 -25.5 t108.5 -25.5q70 0 141 61l78 -100q-109 -111 -221 -110q-43 0 -114.5 25.5t-108.5 25.5q-49 0 -137 -58zM246 291q0 -76 52 -123t144 -47q98 0 248 74v297h-51q-262 0 -348 -86q-45 -45 -45 -115z" />
<glyph unicode="&#xe4;" horiz-adv-x="980" d="M80 287q0 336 565 336h45v63q0 98 -41 139q-51 51 -174 52q-135 0 -272 -78l-64 116q29 25 101 56q117 47 252 47q186 0 286 -100q51 -51 68 -125q12 -53 12 -170v-623h-156v74q-160 -94 -303 -94t-231 85t-88 222zM217 1276q0 45 31.5 76.5t76.5 31.5t78 -31.5t33 -76.5 t-33 -77t-78 -32t-76.5 32t-31.5 77zM246 291q0 -76 52 -123t144 -47q98 0 248 74v297h-51q-262 0 -348 -86q-45 -45 -45 -115zM557 1276q0 45 31.5 76.5t76.5 31.5t78 -31.5t33 -76.5t-33 -77t-78 -32t-76.5 32t-31.5 77z" />
<glyph unicode="&#xe5;" horiz-adv-x="980" d="M80 287q0 336 565 336h45v63q0 98 -41 139q-51 51 -174 52q-135 0 -272 -78l-64 116q29 25 101 56q117 47 252 47q186 0 286 -100q51 -51 68 -125q12 -53 12 -170v-623h-156v74q-160 -94 -303 -94t-231 85t-88 222zM246 291q0 -76 52 -123t144 -47q98 0 248 74v297h-51 q-262 0 -348 -86q-45 -45 -45 -115zM281 1309q0 88 61.5 147.5t147.5 59.5t147.5 -60.5t61.5 -146.5t-61.5 -147.5t-147.5 -61.5t-147.5 61.5t-61.5 147.5zM381 1309q0 -45 32 -77t77 -32t76.5 32t31.5 77q0 47 -31.5 77.5t-76.5 30.5t-77 -31.5t-32 -76.5z" />
<glyph unicode="&#xe6;" horiz-adv-x="1646" d="M86 279q0 326 555 325h51v43q0 135 -41 176q-51 53 -172 54q-133 0 -270 -78l-66 116q29 25 101 56q119 47 254 47q170 0 264 -82q39 -33 55 -68q119 150 336 150q188 0 298 -132.5t110 -363.5q0 -10 -2.5 -37.5t-2.5 -35.5h-690q-2 -137 74 -226q86 -98 238 -98 q125 0 280 78l66 -119q-160 -106 -361 -107q-211 0 -338 136q-158 -135 -395 -136q-154 0 -249 80t-95 222zM250 281q0 -76 61 -119q55 -39 142 -39q174 0 299 96q-59 102 -56 252h-61q-385 0 -385 -190zM868 586h525q0 111 -50 190q-63 102 -188 103q-117 0 -196.5 -80 t-90.5 -213z" />
<glyph unicode="&#xe7;" horiz-adv-x="972" d="M86 479q0 238 141.5 388.5t362.5 150.5q119 0 223 -49q72 -33 92 -58l-74 -112q-115 72 -237 71q-147 0 -239.5 -108.5t-92.5 -265.5q0 -166 88 -266.5t234 -100.5q113 0 264 78l72 -119q-18 -23 -103 -57q-123 -53 -250 -54l-12 -79q16 8 47 8q78 0 127 -48t49 -124 q0 -84 -60.5 -134.5t-139.5 -50.5q-100 0 -152 45l37 78q43 -27 102 -26q100 0 101 84q0 80 -86 80q-47 0 -84 -27l-58 35l31 168q-174 31 -278.5 163t-104.5 330z" />
<glyph unicode="&#xe8;" horiz-adv-x="1040" d="M86 489q0 238 127 383.5t334 145.5q188 0 297.5 -132.5t109.5 -363.5q0 -10 -2 -37.5t-2 -35.5h-690q-2 -137 74 -226q86 -98 237 -98q125 0 281 78l66 -119q-160 -106 -361 -107q-221 0 -348 146q-123 139 -123 366zM262 586h524q0 111 -49 190q-63 102 -188 103 q-117 0 -197 -80t-90 -213zM277 1292l71 148l435 -219l-56 -103z" />
<glyph unicode="&#xe9;" horiz-adv-x="1040" d="M86 489q0 238 127 383.5t334 145.5q188 0 297.5 -132.5t109.5 -363.5q0 -10 -2 -37.5t-2 -35.5h-690q-2 -137 74 -226q86 -98 237 -98q125 0 281 78l66 -119q-160 -106 -361 -107q-221 0 -348 146q-123 139 -123 366zM262 586h524q0 111 -49 190q-63 102 -188 103 q-117 0 -197 -80t-90 -213zM281 1221l434 219l72 -148l-451 -174z" />
<glyph unicode="&#xea;" horiz-adv-x="1040" d="M86 489q0 238 127 383.5t334 145.5q188 0 297.5 -132.5t109.5 -363.5q0 -10 -2 -37.5t-2 -35.5h-690q-2 -137 74 -226q86 -98 237 -98q125 0 281 78l66 -119q-160 -106 -361 -107q-221 0 -348 146q-123 139 -123 366zM215 1221l325 221l324 -225l-68 -97l-256 144 l-258 -144zM262 586h524q0 111 -49 190q-63 102 -188 103q-117 0 -197 -80t-90 -213z" />
<glyph unicode="&#xeb;" horiz-adv-x="1040" d="M86 489q0 238 127 383.5t334 145.5q188 0 297.5 -132.5t109.5 -363.5q0 -10 -2 -37.5t-2 -35.5h-690q-2 -137 74 -226q86 -98 237 -98q125 0 281 78l66 -119q-160 -106 -361 -107q-221 0 -348 146q-123 139 -123 366zM262 586h524q0 111 -49 190q-63 102 -188 103 q-117 0 -197 -80t-90 -213zM262 1276q0 45 31.5 76.5t76.5 31.5t78 -31.5t33 -76.5t-33 -77t-78 -32t-76.5 32t-31.5 77zM602 1276q0 45 31.5 76.5t76.5 31.5t78 -31.5t33 -76.5t-33 -77t-78 -32t-76.5 32t-31.5 77z" />
<glyph unicode="&#xec;" horiz-adv-x="446" d="M-26 1292l71 148l435 -219l-56 -103zM137 0v991h174v-991h-174z" />
<glyph unicode="&#xed;" horiz-adv-x="446" d="M-28 1221l434 219l72 -148l-451 -174zM137 0v991h174v-991h-174z" />
<glyph unicode="&#xee;" horiz-adv-x="446" d="M-96 1221l325 221l324 -225l-68 -97l-256 144l-258 -144zM137 0v991h174v-991h-174z" />
<glyph unicode="&#xef;" horiz-adv-x="446" d="M-53 1276q0 45 31.5 76.5t76.5 31.5t78 -31.5t33 -76.5t-33 -77t-78 -32t-76.5 32t-31.5 77zM137 0v991h174v-991h-174zM287 1276q0 45 31.5 76.5t76.5 31.5t78 -31.5t33 -76.5t-33 -77t-78 -32t-76.5 32t-31.5 77z" />
<glyph unicode="&#xf0;" horiz-adv-x="1064" d="M86 504q0 225 111 364q119 150 323 150q113 0 252 -78q-27 178 -154 283l-258 -115l-59 119l188 84q-100 59 -317 82l12 131q301 -16 475 -135l201 92l60 -119l-144 -66q203 -194 203 -647q0 -311 -122 -493.5t-335 -182.5q-195 0 -315.5 146.5t-120.5 384.5zM264 500 q0 -170 72 -273.5t188 -103.5q139 0 211 151q64 136 64 363q0 57 -6 131q-117 102 -254 102q-129 0 -202 -99t-73 -271z" />
<glyph unicode="&#xf1;" horiz-adv-x="1060" d="M137 0v991h156v-73q150 100 309 100q152 0 238 -86q63 -63 84 -154q14 -63 14 -203v-575h-174v563q0 113 -8 158q-10 66 -45 100q-49 49 -140 49q-80 0 -174 -41q-61 -27 -86 -45v-784h-174zM209 1250q121 106 219 106q43 0 114.5 -25.5t108.5 -25.5q70 0 141 61l78 -100 q-109 -111 -221 -110q-43 0 -114.5 25.5t-108.5 25.5q-49 0 -137 -58z" />
<glyph unicode="&#xf2;" horiz-adv-x="1105" d="M86 496q0 233 130 377.5t345 144.5q207 0 333 -142t126 -380q0 -233 -129 -376t-344 -143q-207 0 -334 142.5t-127 376.5zM260 502q0 -170 84 -274.5t213 -104.5q137 0 213 99.5t76 271.5q0 170 -83 275t-212 105q-133 0 -212 -102t-79 -270zM297 1292l71 148l435 -219 l-56 -103z" />
<glyph unicode="&#xf3;" horiz-adv-x="1105" d="M86 496q0 233 130 377.5t345 144.5q207 0 333 -142t126 -380q0 -233 -129 -376t-344 -143q-207 0 -334 142.5t-127 376.5zM260 502q0 -170 84 -274.5t213 -104.5q137 0 213 99.5t76 271.5q0 170 -83 275t-212 105q-133 0 -212 -102t-79 -270zM305 1221l434 219l72 -148 l-451 -174z" />
<glyph unicode="&#xf4;" horiz-adv-x="1105" d="M86 496q0 233 130 377.5t345 144.5q207 0 333 -142t126 -380q0 -233 -129 -376t-344 -143q-207 0 -334 142.5t-127 376.5zM238 1221l325 221l324 -225l-68 -97l-256 144l-258 -144zM260 502q0 -170 84 -274.5t213 -104.5q137 0 213 99.5t76 271.5q0 170 -83 275t-212 105 q-133 0 -212 -102t-79 -270z" />
<glyph unicode="&#xf5;" horiz-adv-x="1105" d="M86 496q0 233 130 377.5t345 144.5q207 0 333 -142t126 -380q0 -233 -129 -376t-344 -143q-207 0 -334 142.5t-127 376.5zM221 1250q121 106 219 106q43 0 114.5 -25.5t108.5 -25.5q70 0 141 61l78 -100q-109 -111 -221 -110q-43 0 -114.5 25.5t-108.5 25.5 q-49 0 -137 -58zM260 502q0 -170 84 -274.5t213 -104.5q137 0 213 99.5t76 271.5q0 170 -83 275t-212 105q-133 0 -212 -102t-79 -270z" />
<glyph unicode="&#xf6;" horiz-adv-x="1105" d="M86 496q0 233 130 377.5t345 144.5q207 0 333 -142t126 -380q0 -233 -129 -376t-344 -143q-207 0 -334 142.5t-127 376.5zM260 502q0 -170 84 -274.5t213 -104.5q137 0 213 99.5t76 271.5q0 170 -83 275t-212 105q-133 0 -212 -102t-79 -270zM277 1276q0 45 31.5 76.5 t76.5 31.5t78 -31.5t33 -76.5t-33 -77t-78 -32t-76.5 32t-31.5 77zM617 1276q0 45 31.5 76.5t76.5 31.5t78 -31.5t33 -76.5t-33 -77t-78 -32t-76.5 32t-31.5 77z" />
<glyph unicode="&#xf7;" d="M115 453v147h1020v-147h-1020zM508 111q0 49 35 82.5t84 33.5t82.5 -33.5t33.5 -82.5t-33.5 -84t-82.5 -35t-84 34.5t-35 84.5zM508 940q0 49 35 83t84 34t82.5 -34t33.5 -83t-33.5 -84t-82.5 -35t-84 35t-35 84z" />
<glyph unicode="&#xf8;" horiz-adv-x="1105" d="M86 496q0 233 130 377.5t345 144.5q125 0 209 -47l82 133l115 -70l-90 -141q143 -135 143 -397q0 -233 -129 -376t-344 -143q-109 0 -182 35l-82 -133l-115 66l82 137q-164 143 -164 414zM260 502q0 -166 80 -273l352 605q-51 41 -141 40q-133 0 -212 -102t-79 -270z M442 147q45 -25 115 -24q137 0 213 99.5t76 271.5q0 168 -60 241z" />
<glyph unicode="&#xf9;" horiz-adv-x="1060" d="M123 416v575h174v-563q0 -113 8 -158q10 -66 45 -100q49 -49 139 -49q80 0 175 41q61 27 86 45v784h174v-991h-156v74q-150 -100 -309 -101q-160 0 -242 82q-63 63 -82 156q-12 59 -12 205zM254 1292l71 148l435 -219l-56 -103z" />
<glyph unicode="&#xfa;" horiz-adv-x="1060" d="M123 416v575h174v-563q0 -113 8 -158q10 -66 45 -100q49 -49 139 -49q80 0 175 41q61 27 86 45v784h174v-991h-156v74q-150 -100 -309 -101q-160 0 -242 82q-63 63 -82 156q-12 59 -12 205zM279 1221l434 219l72 -148l-451 -174z" />
<glyph unicode="&#xfb;" horiz-adv-x="1060" d="M123 416v575h174v-563q0 -113 8 -158q10 -66 45 -100q49 -49 139 -49q80 0 175 41q61 27 86 45v784h174v-991h-156v74q-150 -100 -309 -101q-160 0 -242 82q-63 63 -82 156q-12 59 -12 205zM197 1221l325 221l324 -225l-68 -97l-256 144l-258 -144z" />
<glyph unicode="&#xfc;" horiz-adv-x="1060" d="M123 416v575h174v-563q0 -113 8 -158q10 -66 45 -100q49 -49 139 -49q80 0 175 41q61 27 86 45v784h174v-991h-156v74q-150 -100 -309 -101q-160 0 -242 82q-63 63 -82 156q-12 59 -12 205zM240 1276q0 45 31.5 76.5t76.5 31.5t78 -31.5t33 -76.5t-33 -77t-78 -32 t-76.5 32t-31.5 77zM580 1276q0 45 31.5 76.5t76.5 31.5t78 -31.5t33 -76.5t-33 -77t-78 -32t-76.5 32t-31.5 77z" />
<glyph unicode="&#xfd;" horiz-adv-x="1052" d="M-31 -424l49 131q86 -29 144 -29q96 0 152.5 56.5t131.5 249.5l-411 1007h188l316 -803l286 803h176l-393 -1040q-88 -233 -181 -326.5t-257 -93.5q-86 0 -201 45zM262 1221l434 219l72 -148l-451 -174z" />
<glyph unicode="&#xfe;" horiz-adv-x="1095" d="M137 -438v1915h162v-555q113 96 272 96q197 0 318 -140.5t121 -365.5q0 -238 -137.5 -386.5t-346.5 -148.5q-117 0 -215 60v-475h-174zM311 190q92 -66 199 -65q145 0 234.5 104.5t89.5 282.5q0 160 -83 259t-210 99q-104 0 -230 -86v-594z" />
<glyph unicode="&#xff;" horiz-adv-x="1052" d="M-31 -424l49 131q86 -29 144 -29q96 0 152.5 56.5t131.5 249.5l-411 1007h188l316 -803l286 803h176l-393 -1040q-88 -233 -181 -326.5t-257 -93.5q-86 0 -201 45zM256 1276q0 45 31.5 76.5t76.5 31.5t78 -31.5t33 -76.5t-33 -77t-78 -32t-76.5 32t-31.5 77zM596 1276 q0 45 31.5 76.5t76.5 31.5t78 -31.5t33 -76.5t-33 -77t-78 -32t-76.5 32t-31.5 77z" />
<glyph unicode="&#x152;" horiz-adv-x="1816" d="M106 674q0 313 195 508q117 117 285 157q117 27 344 27h766v-152h-576v-430h541v-147h-541v-481h592v-156h-784q-236 0 -350 27q-164 35 -277 147q-195 195 -195 500zM293 670q0 -248 145 -394q82 -82 201 -108q90 -20 289 -21h12v1070h-63q-150 0 -240 -23 q-123 -31 -207 -117q-137 -141 -137 -407z" />
<glyph unicode="&#x153;" horiz-adv-x="1808" d="M86 496q0 233 130 377.5t345 144.5q162 0 279 -90q68 -53 98 -115q137 205 377 205q188 0 297.5 -132.5t109.5 -363.5q0 -10 -2 -37.5t-2 -35.5h-690q-2 -137 74 -226q86 -98 237 -98q125 0 281 78l66 -119q-160 -106 -361 -107q-240 0 -391 201q-129 -201 -387 -201 q-207 0 -334 142.5t-127 376.5zM260 502q0 -170 84 -274.5t213 -104.5q137 0 213 99.5t76 271.5q0 170 -83 275t-212 105q-133 0 -212 -102t-79 -270zM1030 586h524q0 111 -49 190q-63 102 -188 103q-117 0 -197 -80t-90 -213z" />
<glyph unicode="&#x178;" horiz-adv-x="1153" d="M53 1366h195l340 -666l336 666h176l-432 -825v-541h-183v541zM307 1587q0 45 31.5 76.5t76.5 31.5t78 -31.5t33 -76.5t-33 -77t-78 -32t-76.5 32t-31.5 77zM647 1587q0 45 31.5 76.5t76.5 31.5t78 -31.5t33 -76.5t-33 -77t-78 -32t-76.5 32t-31.5 77z" />
<glyph unicode="&#x2c6;" horiz-adv-x="788" d="M78 1221l325 221l324 -225l-68 -97l-256 144l-258 -144z" />
<glyph unicode="&#x2dc;" horiz-adv-x="813" d="M76 1268q121 106 219 106q43 0 114.5 -25.5t108.5 -25.5q70 0 141 61l78 -100q-109 -111 -221 -110q-43 0 -114.5 25.5t-108.5 25.5q-49 0 -137 -58z" />
<glyph unicode="&#x2000;" horiz-adv-x="941" />
<glyph unicode="&#x2001;" horiz-adv-x="1883" />
<glyph unicode="&#x2002;" horiz-adv-x="941" />
<glyph unicode="&#x2003;" horiz-adv-x="1883" />
<glyph unicode="&#x2004;" horiz-adv-x="627" />
<glyph unicode="&#x2005;" horiz-adv-x="470" />
<glyph unicode="&#x2006;" horiz-adv-x="313" />
<glyph unicode="&#x2007;" horiz-adv-x="313" />
<glyph unicode="&#x2008;" horiz-adv-x="235" />
<glyph unicode="&#x2009;" horiz-adv-x="376" />
<glyph unicode="&#x200a;" horiz-adv-x="104" />
<glyph unicode="&#x2010;" horiz-adv-x="1005" d="M166 453v147h676v-147h-676z" />
<glyph unicode="&#x2011;" horiz-adv-x="1005" d="M166 453v147h676v-147h-676z" />
<glyph unicode="&#x2012;" horiz-adv-x="1005" d="M166 453v147h676v-147h-676z" />
<glyph unicode="&#x2013;" horiz-adv-x="1335" d="M166 453v147h1005v-147h-1005z" />
<glyph unicode="&#x2014;" horiz-adv-x="2031" d="M166 453v147h1700v-147h-1700z" />
<glyph unicode="&#x2018;" horiz-adv-x="473" d="M76 956q0 250 215 441l106 -90q-131 -156 -131 -351h-190z" />
<glyph unicode="&#x2019;" horiz-adv-x="473" d="M76 1016q131 156 131 350h190q0 -250 -215 -440z" />
<glyph unicode="&#x201a;" horiz-adv-x="473" d="M76 -156q131 156 131 351h190q0 -250 -215 -441z" />
<glyph unicode="&#x201c;" horiz-adv-x="784" d="M76 956q0 250 215 441l106 -90q-131 -156 -131 -351h-190zM387 956q0 250 215 441l107 -90q-131 -156 -131 -351h-191z" />
<glyph unicode="&#x201d;" horiz-adv-x="784" d="M76 1016q131 156 131 350h190q0 -250 -215 -440zM387 1016q131 156 131 350h191q0 -250 -215 -440z" />
<glyph unicode="&#x201e;" horiz-adv-x="784" d="M76 -156q131 156 131 351h190q0 -250 -215 -441zM387 -156q131 156 131 351h191q0 -250 -215 -441z" />
<glyph unicode="&#x2022;" horiz-adv-x="1050" d="M336 535q0 78 56.5 134t133.5 56q78 0 134.5 -56t56.5 -134q0 -80 -55.5 -135.5t-135.5 -55.5q-78 0 -134 55.5t-56 135.5z" />
<glyph unicode="&#x2026;" horiz-adv-x="1472" d="M127 102q0 49 35 83t84 34t82.5 -34t33.5 -83t-33.5 -83.5t-82.5 -34.5t-84 34.5t-35 83.5zM618 102q0 49 35 83t84 34t83 -34t34 -83t-34 -83.5t-83 -34.5t-84 34.5t-35 83.5zM1110 102q0 49 35 83t84 34t83 -34t34 -83t-34 -83.5t-83 -34.5t-84 34.5t-35 83.5z" />
<glyph unicode="&#x202f;" horiz-adv-x="376" />
<glyph unicode="&#x2039;" horiz-adv-x="659" d="M127 504l291 391l114 -76l-188 -315l188 -326l-114 -72z" />
<glyph unicode="&#x203a;" horiz-adv-x="659" d="M127 178l188 326l-188 315l115 76l290 -391l-290 -398z" />
<glyph unicode="&#x205f;" horiz-adv-x="470" />
<glyph unicode="&#x20ac;" d="M82 489v129h133q-2 39 -2 72q0 25 2 58h-133v129h141q4 133 96 282q145 236 424 236q137 0 258 -64q70 -35 101 -69l-84 -111q-125 96 -264 96q-199 0 -293 -170q-55 -98 -60 -200h502v-129h-514q-2 -27 -2 -68q0 -27 2 -62h514v-129h-502q2 -98 58 -196 q92 -168 289 -168q135 0 294 104l86 -114q-160 -141 -387 -142q-279 0 -422 224q-92 147 -96 292h-141z" />
<glyph unicode="&#x2122;" horiz-adv-x="1564" d="M72 1260v106h544v-106h-208v-621h-125v621h-211zM672 639l78 727h129l194 -537l191 537h127l82 -727h-125l-52 506l-178 -506h-100l-182 506l-48 -506h-116z" />
<glyph unicode="&#xe000;" horiz-adv-x="993" d="M0 0v993h993v-993h-993z" />
</font>
</defs>
</svg>
