<?xml version="1.0" standalone="no"?>
<!DOCTYPE svg PUBLIC "-//W3C//DTD SVG 1.1//EN" "http://www.w3.org/Graphics/SVG/1.1/DTD/svg11.dtd" >
<svg xmlns="http://www.w3.org/2000/svg">
<metadata>
This is a custom SVG webfont generated by Font Squirrel.
Copyright   : HTF Knockout   19909 The Hoefler Type Foundry Inc httpwwwtypographycom
</metadata>
<defs>
<font id="KnockoutHTF28JuniorFeatherwRg" horiz-adv-x="317" >
<font-face units-per-em="2048" ascent="1638" descent="-410" />
<missing-glyph horiz-adv-x="284" />
<glyph unicode=" "  horiz-adv-x="284" />
<glyph unicode="&#x09;" horiz-adv-x="284" />
<glyph unicode="&#xa0;" horiz-adv-x="284" />
<glyph unicode="!" horiz-adv-x="337" d="M88 772v592h162v-592l-57 -412h-48zM94 0v213h148v-213h-148z" />
<glyph unicode="&#x22;" horiz-adv-x="444" d="M41 969l61 395h136l-105 -395h-92zM233 969l86 395h136l-129 -395h-93z" />
<glyph unicode="#" horiz-adv-x="958" d="M10 385v98h228l59 398h-236v98h252l58 385h106l-55 -385h211l57 385h107l-58 -385h209v-98h-225l-61 -398h235v-98h-252l-57 -385h-107l58 385h-211l-58 -385h-106l57 385h-211zM344 483h211l61 398h-213z" />
<glyph unicode="$" horiz-adv-x="749" d="M70 283v125h159v-111q0 -180 148 -180q70 0 108.5 46t38.5 118q0 90 -47 165.5t-143 180.5q-242 233 -242 436q0 123 54.5 207t158.5 108v160h144v-154q109 -18 172 -100t63 -203v-127h-156v111q0 82 -34.5 130t-106.5 48q-63 0 -99 -40t-36 -107q0 -61 26.5 -121 t52 -93.5t93.5 -115.5q86 -86 129 -137t86 -143.5t43 -188.5q0 -131 -64.5 -213t-168.5 -102v-158h-144v158q-109 20 -172 102t-63 199z" />
<glyph unicode="%" horiz-adv-x="997" d="M57 885v313q0 88 48.5 139.5t124 51.5t124.5 -51.5t49 -139.5v-313q0 -88 -48 -140.5t-126 -52.5q-76 0 -124 52.5t-48 140.5zM88 8l764 1395l68 -49l-766 -1397zM168 854q0 -27 17.5 -44t43.5 -17q29 0 46.5 17t17.5 44v375q0 27 -18.5 44t-45 17t-44 -17.5t-17.5 -43.5 v-375zM602 164v313q0 88 49 140.5t125 52.5t124 -52.5t48 -140.5v-313q0 -88 -48 -140.5t-124 -52.5t-125 52.5t-49 140.5zM713 133q0 -27 18.5 -44t45 -17t44 17t17.5 44v375q0 27 -17.5 44t-44 17t-45 -17t-18.5 -44v-375z" />
<glyph unicode="&#x26;" horiz-adv-x="964" d="M53 305q0 131 58.5 233.5t173.5 198.5q-59 168 -60 322q0 145 70 237.5t190 92.5q113 0 169.5 -80t56.5 -209q0 -217 -252 -412q68 -266 131 -379q51 90 83 197.5t32 191.5h135q-2 -115 -48.5 -262t-115.5 -252q45 -66 104 -65q55 0 56 67v125h114v-131 q0 -100 -46 -152.5t-130 -52.5q-100 0 -190 101q-96 -100 -240 -101q-131 0 -211 93.5t-80 236.5zM215 330q0 -102 44 -154.5t122 -52.5q68 0 115 53q-88 133 -166 412q-115 -115 -115 -258zM377 1061q0 -74 37 -244q78 63 114.5 138t36.5 139q0 141 -82 141 q-106 0 -106 -174z" />
<glyph unicode="'" d="M70 969l77 395h158l-139 -395h-96z" />
<glyph unicode="(" horiz-adv-x="559" d="M156 622.5q0 608.5 356 927.5l43 -45q-246 -299 -246 -882q0 -582 246 -881l-43 -45q-356 317 -356 925.5z" />
<glyph unicode=")" horiz-adv-x="559" d="M4 -258q244 301 244 881q0 582 -244 882l43 45q356 -324 356 -927q0 -606 -356 -926z" />
<glyph unicode="*" horiz-adv-x="546" d="M51 1210l29 54q12 14 33 2q72 -43 129 -95q-18 90 -19 160q0 25 19 25h63q18 0 19 -25q0 -80 -19 -160q61 55 129 97q20 12 33 -4l31 -52q2 -4 2 -8q0 -11 -17 -20q-66 -41 -147 -66q86 -27 147 -63q17 -9 17 -22q0 -4 -2 -9l-31 -51q-8 -14 -33 -4q-76 47 -129 96 q18 -76 19 -160q0 -27 -19 -26h-61q-18 0 -19 26q0 78 19 160q-74 -66 -129 -96q-20 -12 -33 2l-29 53q-3 4 -3 9q0 10 16 20q68 39 147 63q-63 20 -150 66q-15 9 -14 19q0 4 2 9z" />
<glyph unicode="+" horiz-adv-x="628" d="M72 627v129h178v194h131v-194h176v-129h-176v-195h-131v195h-178z" />
<glyph unicode="," d="M61 -123q90 0 91 123h-66v217h145v-194q0 -197 -170 -197v51z" />
<glyph unicode="-" horiz-adv-x="456" d="M45 567v140h367v-140h-367z" />
<glyph unicode="." d="M86 0v217h145v-217h-145z" />
<glyph unicode="/" horiz-adv-x="479" d="M-12 -131l391 1624h110l-389 -1624h-112z" />
<glyph unicode="0" horiz-adv-x="776" d="M82 287v790q0 139 84 225.5t223 86.5q137 0 221 -86t84 -226v-790q0 -139 -84 -225.5t-221 -86.5q-139 0 -223 86.5t-84 225.5zM242 262q0 -57 41 -97t106.5 -40t105.5 40t40 97v840q0 57 -41 97t-105 40q-66 0 -106.5 -40t-40.5 -97v-840z" />
<glyph unicode="1" horiz-adv-x="401" d="M119 0v1284q80 0 80 80h82v-1364h-162z" />
<glyph unicode="2" horiz-adv-x="673" d="M43 0v61q0 135 49 262.5t201 344.5q106 133 149 223t43 194q0 160 -139 160t-139 -153v-160h-141v155q0 127 72.5 214.5t205.5 87.5q150 0 220.5 -87.5t70.5 -234.5q0 -246 -248 -506q-174 -246 -174 -405h410v-156h-580z" />
<glyph unicode="3" horiz-adv-x="690" d="M63 256v150h142v-138q0 -147 131 -147q135 0 135 139v270q0 96 -109 97h-98v131h98q109 0 109 96v246q0 143 -135 143q-131 0 -131 -149v-136h-142v148q0 127 70 205t209 78q133 0 210 -78t77 -207v-221q0 -70 -36 -120t-99 -67q135 -41 135 -178v-258q0 -127 -77 -206 t-210 -79q-137 0 -208 79t-71 202z" />
<glyph unicode="4" horiz-adv-x="667" d="M18 295v123l394 946h135v-926h100v-143h-100v-295h-146v295h-383zM180 438h221v545z" />
<glyph unicode="5" horiz-adv-x="696" d="M72 256v135h141v-121q0 -68 35 -108.5t98 -40.5q137 0 137 149v383q0 57 -29.5 89t-80.5 32q-119 0 -158 -137l-139 25l33 702h536q-4 -92 -32.5 -123t-102.5 -31h-264l-23 -407q61 96 209 96q96 0 152.5 -62.5t56.5 -162.5v-408q0 -133 -78 -212t-217 -79 q-131 0 -202.5 81t-71.5 200z" />
<glyph unicode="6" horiz-adv-x="737" d="M80 279v796q0 141 81 227.5t220 86.5q131 0 206 -83t75 -200v-129h-142v117q0 150 -145 149q-139 0 -139 -158v-354q80 98 217 98q104 0 163.5 -65.5t59.5 -167.5v-317q0 -137 -80 -220.5t-219 -83.5q-137 0 -217 83.5t-80 220.5zM236 264q0 -63 38.5 -103t102.5 -40 q66 0 103.5 38t37.5 95v319q0 131 -137 132q-68 0 -106.5 -38t-38.5 -94v-309z" />
<glyph unicode="7" horiz-adv-x="647" d="M41 1210v154h594v-102q-176 -432 -251 -699.5t-81 -562.5h-174q25 520 338 1210h-426z" />
<glyph unicode="8" horiz-adv-x="739" d="M74 260v227q0 143 119 203q-115 57 -115 203v211q0 129 77.5 207t215 78t214.5 -78t77 -207v-211q0 -145 -113 -203q51 -27 84 -80t33 -123v-227q0 -129 -79 -207t-216.5 -78t-217 78t-79.5 207zM225 264q0 -66 41 -104.5t104.5 -38.5t103.5 39t40 104v236q0 53 -37 93 t-106.5 40t-107.5 -40t-38 -93v-236zM229 877q0 -55 36 -95.5t105.5 -40.5t105.5 40t36 96v223q0 66 -39 104.5t-102.5 38.5t-102.5 -38t-39 -105v-223z" />
<glyph unicode="9" horiz-adv-x="751" d="M78 758v327q0 135 79 219.5t216 84.5q141 0 220 -83t79 -225v-800q0 -139 -81 -222.5t-220 -83.5q-135 0 -213 78t-78 197v127h141v-111q0 -70 41 -107.5t113 -37.5q139 0 139 149v346q-76 -98 -207 -98q-106 0 -167.5 69t-61.5 171zM231 778q0 -57 36 -94t106 -37 q66 0 103.5 38t37.5 93v322q0 61 -37 102t-104.5 41t-104.5 -37t-37 -96v-332z" />
<glyph unicode=":" d="M86 0v217h145v-217h-145zM86 662v219h145v-219h-145z" />
<glyph unicode=";" d="M61 -123q90 0 91 123h-66v217h145v-194q0 -197 -170 -197v51zM86 662v219h145v-219h-145z" />
<glyph unicode="&#x3c;" horiz-adv-x="866" d="M104 659v48l617 401v-166l-402 -258l402 -262v-166z" />
<glyph unicode="=" horiz-adv-x="591" d="M51 477v144h490v-144h-490zM51 762v143h490v-143h-490z" />
<glyph unicode="&#x3e;" horiz-adv-x="866" d="M145 258v164l402 260l-402 262v164l617 -403v-46z" />
<glyph unicode="?" horiz-adv-x="628" d="M39 930v162q0 135 67.5 216t200.5 81q152 0 221.5 -87.5t69.5 -228.5q0 -209 -172 -428q-53 -66 -72.5 -122t-19.5 -136h-123q0 104 31.5 183t130.5 245q68 123 67 258q0 92 -31.5 131t-97.5 39q-131 0 -131 -162v-151h-141zM197 0v213h147v-213h-147z" />
<glyph unicode="@" horiz-adv-x="1085" d="M51 569q0 262 147.5 437.5t364.5 175.5q96 0 177 -32t135.5 -83t93.5 -119.5t56 -139.5t17 -142q0 -162 -78.5 -277t-211.5 -115q-61 0 -100.5 39t-37.5 103q-66 -125 -165 -125q-68 0 -109 52t-41 144q0 133 80 250t188 117q96 0 109 -94l26 86h117l-100 -350 q-10 -36 -11 -64q0 -21 7 -38q14 -38 63 -38q76 0 125 86t49 228q0 193 -109.5 310.5t-279.5 117.5q-182 0 -303 -151.5t-121 -377.5q0 -229 119 -370.5t305 -141.5q174 0 285 111l49 -62q-131 -131 -334 -131q-221 0 -366.5 163t-145.5 431zM418 496q0 -51 21.5 -81 t54.5 -30q74 0 116 143l41 152q-4 94 -65 94q-70 0 -119 -90t-49 -188z" />
<glyph unicode="A" horiz-adv-x="722" d="M16 0l256 1364h181l254 -1364h-175l-55 313h-241l-58 -313h-162zM262 465h189l-93 584z" />
<glyph unicode="B" horiz-adv-x="772" d="M92 0v1364h334q270 0 270 -274v-170q0 -182 -145 -222q154 -37 154 -223v-201q0 -274 -273 -274h-340zM264 154h168q102 0 103 112v223q0 133 -121 134h-150v-469zM264 760h144q121 0 120 133v203q0 115 -102 114h-162v-450z" />
<glyph unicode="C" horiz-adv-x="765" d="M78 303v758q0 141 84 234.5t235.5 93.5t231.5 -88.5t80 -227.5v-186h-152v190q0 72 -40 114t-113.5 42t-114.5 -42t-41 -108v-802q0 -68 41 -109t114.5 -41t113.5 42t40 114v192h152v-188q0 -139 -80 -227.5t-231.5 -88.5t-235.5 93.5t-84 234.5z" />
<glyph unicode="D" horiz-adv-x="802" d="M92 0v1364h326q156 0 231.5 -88t75.5 -246v-696q0 -158 -76 -246t-231 -88h-326zM264 160h146q145 0 145 172v698q0 174 -145 174h-146v-1044z" />
<glyph unicode="E" horiz-adv-x="677" d="M92 0v1364h535v-156h-365v-424h264v-149h-264v-479h365v-156h-535z" />
<glyph unicode="F" horiz-adv-x="649" d="M92 0v1364h526v-154h-354v-446h275v-150h-275v-614h-172z" />
<glyph unicode="G" horiz-adv-x="784" d="M78 301v762q0 141 85 233.5t236.5 92.5t228.5 -88.5t77 -237.5v-133h-160v155q0 63 -37 105.5t-108.5 42.5t-111.5 -44t-40 -106v-802q0 -66 39 -110t112.5 -44t112.5 44t39 110v262h-145v145h309v-688h-80l-37 92q-57 -117 -225 -117q-137 0 -216 89.5t-79 236.5z" />
<glyph unicode="H" horiz-adv-x="835" d="M92 0v1364h172v-606h309v606h170v-1364h-170v604h-309v-604h-172z" />
<glyph unicode="I" horiz-adv-x="356" d="M92 0v1364h172v-1364h-172z" />
<glyph unicode="J" horiz-adv-x="729" d="M49 283v260h162v-260q0 -152 133 -152q127 0 127 152v1081h170v-1067q0 -150 -73.5 -236t-219.5 -86q-143 0 -221 81.5t-78 226.5z" />
<glyph unicode="K" horiz-adv-x="763" d="M92 0v1364h170v-688l301 688h176l-276 -588l278 -776h-182l-205 606l-92 -207v-399h-170z" />
<glyph unicode="L" horiz-adv-x="645" d="M92 0v1364h170v-1206h354v-158h-524z" />
<glyph unicode="M" horiz-adv-x="1058" d="M92 0v1364h242l153 -848l45 -248l43 250l152 846h238v-1364h-156v1047l-45 -248l-156 -799h-164l-155 799l-45 248v-1047h-152z" />
<glyph unicode="N" horiz-adv-x="839" d="M90 0v1364h146l268 -688l84 -232v920h162v-1364h-123l-285 678l-90 229v-907h-162z" />
<glyph unicode="O" horiz-adv-x="798" d="M78 311v742q0 150 85 243t236.5 93t236.5 -93.5t85 -242.5v-742q0 -150 -84 -243t-237.5 -93t-237.5 93t-84 243zM248 293q0 -74 39 -118t112.5 -44t112.5 44t39 118v778q0 72 -39 117t-112.5 45t-112.5 -45t-39 -117v-778z" />
<glyph unicode="P" horiz-adv-x="743" d="M92 0v1364h332q133 0 203.5 -70.5t70.5 -210.5v-241q0 -137 -70.5 -208t-203.5 -71h-162v-563h-170zM262 711h164q100 0 100 120v261q0 119 -100 118h-164v-499z" />
<glyph unicode="Q" horiz-adv-x="798" d="M78 301v762q0 141 85 233.5t236 92.5q150 0 235 -92.5t85 -233.5v-780q0 -86 -39 -152q33 -31 106 -31v-100q-33 -25 -94 -25q-66 0 -117 43q-76 -43 -176 -43q-152 0 -236.5 92.5t-84.5 233.5zM248 281q0 -63 39 -106.5t112 -43.5q51 0 86 23l-51 47l115 96v786 q0 61 -39 105.5t-110.5 44.5t-111.5 -44t-40 -106v-802z" />
<glyph unicode="R" horiz-adv-x="782" d="M92 0v1364h334q272 0 272 -274v-207q0 -182 -145 -217q76 -16 114 -75t38 -138v-291q0 -53 47 -53v-121h-45q-96 0 -134 34.5t-38 129.5v311q0 135 -117 135h-154v-598h-172zM264 735h144q57 0 88.5 35t31.5 98v228q0 115 -104 114h-160v-475z" />
<glyph unicode="S" horiz-adv-x="739" d="M51 281v125h168v-107q0 -86 39 -133t111 -47q74 0 111.5 42t37.5 115q0 94 -43 172t-147 173q-262 231 -262 446q0 141 80.5 231.5t228.5 90.5q137 0 220 -85t83 -223v-127h-162v109q0 176 -145 176q-68 0 -103 -37t-35 -102q0 -98 45.5 -171t167.5 -186 q123 -111 181.5 -213t58.5 -223q0 -158 -91 -245t-226 -87q-143 0 -230.5 85.5t-87.5 220.5z" />
<glyph unicode="T" horiz-adv-x="677" d="M25 1206v158h628v-158h-227v-1206h-170v1206h-231z" />
<glyph unicode="U" horiz-adv-x="813" d="M88 289v1075h170v-1079q0 -156 149.5 -156t149.5 156v1079h168v-1075q0 -145 -88 -229.5t-231 -84.5q-141 0 -229.5 84.5t-88.5 229.5z" />
<glyph unicode="V" horiz-adv-x="739" d="M23 1364h178l172 -1049l180 1049h170l-270 -1364h-168z" />
<glyph unicode="W" horiz-adv-x="1073" d="M23 1364h172l114 -993l164 993h148l145 -993l125 993h164l-215 -1364h-164l-139 911l-154 -911h-164z" />
<glyph unicode="X" horiz-adv-x="745" d="M20 0l261 686l-244 678h178l164 -518l168 518h172l-248 -659l256 -705h-180l-176 526l-178 -526h-173z" />
<glyph unicode="Y" horiz-adv-x="706" d="M-2 1364h176l184 -633l185 633h168l-275 -821v-543h-170v543z" />
<glyph unicode="Z" horiz-adv-x="698" d="M37 0v82l422 1122h-400v160h600v-82l-417 -1126h399v-156h-604z" />
<glyph unicode="[" horiz-adv-x="501" d="M170 -272v1790h350v-123h-213v-1545h213v-122h-350z" />
<glyph unicode="\" horiz-adv-x="477" d="M-16 1493h112l389 -1624h-110z" />
<glyph unicode="]" horiz-adv-x="501" d="M-20 -150h215v1545h-215v123h352v-1790h-352v122z" />
<glyph unicode="^" horiz-adv-x="489" d="M18 1143v47q55 0 99.5 44t66.5 130h123q23 -86 67 -130t99 -44v-47q-37 -12 -80 -13q-55 0 -96 37t-55 105q-31 -141 -154 -142q-33 1 -70 13z" />
<glyph unicode="_" horiz-adv-x="610" d="M0 0h610v-139h-610v139z" />
<glyph unicode="`" d="M37 1346h158l77 -263h-96z" />
<glyph unicode="a" horiz-adv-x="638" d="M51 219v35q0 129 96.5 203.5t260.5 122.5v145q0 109 -97 109q-55 0 -74.5 -28t-19.5 -87v-72h-137v80q0 109 60.5 176.5t172.5 67.5q121 0 178.5 -71t57.5 -193v-562q0 -49 43 -49v-112h-41q-100 0 -113 102q-70 -102 -186 -102q-94 0 -147.5 63t-53.5 172zM190 221 q0 -109 91 -108q49 0 88 40t39 95v211q-106 -25 -162 -75t-56 -118v-45z" />
<glyph unicode="b" horiz-adv-x="663" d="M82 0v1364h147v-516q55 123 183 123q88 0 135 -65.5t47 -174.5v-506q0 -113 -55.5 -178t-145.5 -65q-139 0 -184 133l-21 -115h-106zM229 242q0 -61 32 -96t79 -35q109 0 109 137v450q0 137 -107 138q-53 0 -83 -35t-30 -96v-463z" />
<glyph unicode="c" horiz-adv-x="614" d="M70 266v420q0 129 68.5 207t180.5 78q117 0 178.5 -75t61.5 -206v-74h-129v99q0 53 -27.5 87t-79 34t-80 -34t-28.5 -93v-463q0 -125 109 -125q51 0 78.5 31.5t27.5 87.5v94h129v-70q0 -133 -61.5 -206.5t-178.5 -73.5q-115 0 -182 75.5t-67 206.5z" />
<glyph unicode="d" horiz-adv-x="663" d="M70 225v496q0 115 53 182.5t139 67.5q109 0 172 -101v494h148v-1364h-115l-12 115q-47 -133 -183 -133q-92 0 -147 65t-55 178zM215 248q0 -137 109 -137q47 0 78.5 34.5t31.5 96.5v467q0 59 -29.5 95t-80.5 36q-109 0 -109 -138v-454z" />
<glyph unicode="e" horiz-adv-x="620" d="M70 266v420q0 129 68.5 207t183.5 78q113 0 175 -77t62 -208v-223h-344v-219q0 -125 109 -125q104 0 104 125v92h131v-72q0 -131 -62.5 -205.5t-174.5 -74.5q-115 0 -183.5 76.5t-68.5 205.5zM215 559h213v150q0 127 -104 127q-109 0 -109 -127v-150z" />
<glyph unicode="f" horiz-adv-x="399" d="M31 821v131h92v119q0 293 223 293h51v-131h-37q-96 0 -96 -117v-164h117v-131h-109v-821h-149v821h-92z" />
<glyph unicode="g" horiz-adv-x="636" d="M51 -72q0 113 123 152q-51 14 -81 53t-30 84q0 49 36 90t89 49q-113 51 -112 234v119q0 113 70.5 187.5t175.5 74.5q33 0 64.5 -8.5t37.5 -8.5q94 0 94 107h107q6 -35 6 -76q0 -49 -25.5 -75.5t-62.5 -26.5q-35 0 -56 12q78 -76 78 -184v-129q0 -115 -67.5 -189 t-175.5 -74q-23 0 -64 9q-27 0 -47.5 -22.5t-20.5 -51.5q0 -78 160 -78q127 0 191.5 -54t64.5 -155v-67q0 -117 -74.5 -187.5t-203.5 -70.5q-123 0 -200 62.5t-77 164.5v59zM186 -49v-72q0 -45 37 -74.5t106.5 -29.5t105.5 31.5t36 76.5v72q0 96 -141 96q-72 0 -108 -27.5 t-36 -72.5zM211 567q0 -53 29.5 -87t81.5 -34q49 0 78.5 35t29.5 86v154q0 53 -29.5 88t-78.5 35q-51 0 -81 -35t-30 -88v-154z" />
<glyph unicode="h" horiz-adv-x="675" d="M82 0v1364h149v-543q25 72 75 110t110 38q84 0 133 -62.5t49 -167.5v-739h-149v727q0 51 -27 83t-70 32q-53 0 -87 -55.5t-34 -108.5v-678h-149z" />
<glyph unicode="i" horiz-adv-x="313" d="M82 0v958h149v-958h-149zM88 1100v168h137v-168h-137z" />
<glyph unicode="j" horiz-adv-x="313" d="M-27 -223h19q90 0 90 90v1091h149v-1038q0 -133 -49 -199.5t-162 -66.5h-47v123zM88 1100v168h137v-168h-137z" />
<glyph unicode="k" horiz-adv-x="632" d="M82 0v1364h149v-895l218 492h149l-186 -412l202 -549h-153l-142 420l-88 -166v-254h-149z" />
<glyph unicode="l" horiz-adv-x="313" d="M82 0v1364h149v-1364h-149z" />
<glyph unicode="m" horiz-adv-x="954" d="M82 0v958h129l8 -139q57 150 180 150q111 0 144 -131q53 131 174 131q76 0 118 -55.5t42 -157.5v-756h-148v731q0 106 -76 107q-49 0 -73.5 -53.5t-24.5 -112.5v-672h-149v735q0 106 -74 107q-51 0 -76 -53.5t-25 -112.5v-676h-149z" />
<glyph unicode="n" horiz-adv-x="677" d="M82 0v958h127l10 -157q57 168 187 168q92 0 142 -61.5t50 -168.5v-739h-149v727q0 53 -26 84t-71 31q-53 0 -87 -55.5t-34 -108.5v-678h-149z" />
<glyph unicode="o" horiz-adv-x="647" d="M70 266v420q0 129 69.5 207t184 78t183 -78t68.5 -207v-420q0 -129 -68.5 -205.5t-183 -76.5t-184 76.5t-69.5 205.5zM217 240q0 -55 27.5 -87t79 -32t79 31.5t27.5 87.5v475q0 53 -27.5 87t-79 34t-79 -34t-27.5 -87v-475z" />
<glyph unicode="p" horiz-adv-x="663" d="M82 -340v1298h115l12 -114q49 133 184 133q90 0 144.5 -65.5t54.5 -178.5v-514q0 -102 -51.5 -166.5t-128.5 -64.5q-117 0 -183 100v-428h-147zM229 254q0 -61 30 -97t81 -36q106 0 106 139v451q0 137 -106 137q-45 0 -78 -35t-33 -96v-463z" />
<glyph unicode="q" horiz-adv-x="663" d="M70 213v514q0 111 55 176.5t147 65.5q137 0 183 -131l20 114h107v-1298h-148v450q-57 -123 -188 -122q-76 0 -126 64.5t-50 166.5zM215 254q0 -139 109 -139q51 0 80.5 35.5t29.5 97.5v463q0 61 -31.5 96t-78.5 35q-109 0 -109 -137v-451z" />
<glyph unicode="r" horiz-adv-x="460" d="M82 0v958h129l10 -143q51 152 183 152q17 0 36 -2v-158q-25 2 -47 2q-162 0 -162 -119v-690h-149z" />
<glyph unicode="s" horiz-adv-x="591" d="M53 246v55h125v-63q0 -127 117 -127q111 0 111 106q0 66 -27 109t-113 104q-203 119 -203 295q0 109 66 177.5t172 68.5q233 0 234 -250v-55h-121v67q0 102 -111 103q-49 0 -75.5 -26t-26.5 -69q0 -57 33.5 -101t125.5 -103q182 -111 183 -304q0 -106 -66.5 -177.5 t-177.5 -71.5q-121 0 -183.5 69.5t-62.5 192.5z" />
<glyph unicode="t" horiz-adv-x="405" d="M27 821v131h102v162l139 51v-213h109v-131h-109v-536q0 -180 39 -285h-147q-41 98 -41 285v536h-92z" />
<glyph unicode="u" horiz-adv-x="679" d="M80 215v743h149v-733q0 -51 27 -82.5t70 -31.5q53 0 86.5 55t33.5 108v684h150v-958h-127l-10 135q-53 -154 -187 -153q-92 0 -142 62t-50 171z" />
<glyph unicode="v" horiz-adv-x="581" d="M18 958h144l96 -538l33 -215l33 215l92 538h145l-199 -958h-145z" />
<glyph unicode="w" horiz-adv-x="864" d="M18 958h144l71 -526l29 -217l29 217l84 526h123l75 -526l31 -217l27 217l80 526h133l-174 -958h-133l-74 401l-31 211l-33 -211l-73 -401h-136z" />
<glyph unicode="x" horiz-adv-x="571" d="M14 0l201 477l-201 481h150l125 -340l123 340h147l-201 -481l201 -477h-151l-123 338l-123 -338h-148z" />
<glyph unicode="y" horiz-adv-x="581" d="M18 958h146l92 -534l31 -213l35 213l92 534h145l-215 -1038q-29 -141 -76 -203.5t-155 -62.5h-47v127h36q49 0 70 19.5t31 66.5l18 115z" />
<glyph unicode="z" horiz-adv-x="538" d="M35 0v84l311 745h-295v129h451v-84l-307 -745h294v-129h-454z" />
<glyph unicode="{" horiz-adv-x="561" d="M113 575v95h63q66 0 92.5 23.5t26.5 70.5q0 37 -74 198.5t-74 276.5q0 121 71 200t204 79h61v-109h-67q-63 0 -96 -45t-33 -119q0 -82 63.5 -235.5t63.5 -202.5q0 -145 -156 -184q156 -35 156 -185q0 -49 -63.5 -201.5t-63.5 -234.5q0 -74 32.5 -119t96.5 -45h67v-110 h-61q-133 0 -204 78.5t-71 199.5q0 88 37 186.5t74 175t37 113.5q0 47 -26.5 70.5t-92.5 23.5h-63z" />
<glyph unicode="|" horiz-adv-x="294" d="M92 -131v1624h109v-1624h-109z" />
<glyph unicode="}" horiz-adv-x="561" d="M78 -162h65q63 0 97 45t34 119q0 82 -64.5 234.5t-64.5 201.5q0 150 158 185q-158 39 -158 184q0 49 64.5 202.5t64.5 235.5q0 72 -33.5 118t-97.5 46h-65v109h59q133 0 205 -79t72 -200q0 -115 -75 -276.5t-75 -198.5q0 -94 119 -94h66v-95h-66q-119 0 -119 -94 q0 -37 38 -113.5t75 -175t37 -186.5q0 -121 -72 -199.5t-205 -78.5h-59v110z" />
<glyph unicode="~" horiz-adv-x="493" d="M18 647q0 137 119 137q47 0 123 -47t90 -47q35 0 35 37v59h68q23 -31 22 -73q0 -135 -119 -135q-45 0 -120.5 47t-92.5 47q-33 0 -32 -37v-60h-70q-23 35 -23 72z" />
<glyph horiz-adv-x="276" d="M41 -123q90 0 90 123h-65v217h145v-194q0 -197 -170 -197v51z" />
<glyph horiz-adv-x="503" d="M57 639v139h121v293q0 145 50.5 219t166.5 74h45v-135h-22q-47 0 -64.5 -21.5t-17.5 -72.5v-357h127v-139h-127v-381q0 -145 -49 -219t-168 -74h-43v135h20q49 0 65.5 20.5t16.5 74.5v444h-121z" />
<glyph horiz-adv-x="489" d="M41 -123q90 0 90 123h-65v217h145v-194q0 -197 -170 -197v51zM254 -123q90 0 90 123h-68v217h146v-194q0 -197 -168 -197v51z" />
<glyph unicode="&#x85;" horiz-adv-x="888" d="M86 0v217h145v-217h-145zM371 0v217h145v-217h-145zM655 0v217h146v-217h-146z" />
<glyph horiz-adv-x="669" d="M25 881v82q0 18 24 18q160 0 242 -18q-20 72 -21 376q0 25 21 25h86q23 0 22 -25q0 -295 -20 -376q80 18 239 18q25 0 25 -18v-82q0 -23 -25 -23q-160 0 -241 23q23 -82 22 -361q0 -504 -18 -643q0 -25 -21 -24h-53q-23 0 -22 24q-14 162 -15 643q0 276 21 361 q-82 -23 -242 -23q-24 0 -24 23z" />
<glyph horiz-adv-x="669" d="M25 254v82q0 23 24 22q147 0 242 -22q-20 84 -20.5 272.5t20.5 272.5q-82 -23 -242 -23q-25 0 -24 23v82q0 18 24 18q160 0 242 -18q-20 72 -21 376q0 25 21 25h86q23 0 22 -25q0 -295 -20 -376q80 18 239 18q25 0 25 -18v-82q0 -23 -25 -23q-160 0 -241 23 q23 -82 22.5 -272.5t-22.5 -272.5q94 23 241 22q25 0 25 -22v-82q0 -20 -25 -21q-152 0 -239 21q20 -84 20 -377q0 -25 -22 -24h-86q-20 0 -21 24q0 303 21 377q-90 -20 -242 -21q-24 1 -24 21z" />
<glyph horiz-adv-x="489" d="M18 1102v45q55 0 99.5 44t66.5 132h123q23 -88 67 -132t99 -44v-45q-43 -14 -80 -15q-55 0 -96 37t-55 105q-31 -141 -154 -142q-27 1 -70 15z" />
<glyph horiz-adv-x="1417" d="M57 885v313q0 88 48.5 139.5t124 51.5t124.5 -51.5t49 -139.5v-313q0 -88 -48 -140.5t-126 -52.5q-76 0 -124 52.5t-48 140.5zM88 8l764 1395l68 -49l-766 -1397zM168 854q0 -27 17.5 -44t43.5 -17q29 0 46.5 17t17.5 44v375q0 27 -18.5 44t-45 17t-44 -17.5t-17.5 -43.5 v-375zM602 164v313q0 88 49 140.5t125 52.5t124 -52.5t48 -140.5v-313q0 -88 -48 -140.5t-124 -52.5t-125 52.5t-49 140.5zM713 133q0 -27 18.5 -44t45 -17t44 17t17.5 44v375q0 27 -17.5 44t-44 17t-45 -17t-18.5 -44v-375zM1030 164v313q0 88 49 140.5t125 52.5t124 -52.5 t48 -140.5v-313q0 -88 -48 -140.5t-124 -52.5t-125 52.5t-49 140.5zM1141 133q0 -27 18.5 -44t45 -17t44 17t17.5 44v375q0 27 -17.5 44t-44 17t-45 -17t-18.5 -44v-375z" />
<glyph horiz-adv-x="739" />
<glyph horiz-adv-x="423" d="M39 332v129q96 41 161.5 128t86.5 204h84q0 -129 -50.5 -233.5t-136.5 -164.5q88 -59 137.5 -162.5t49.5 -232.5h-84q-20 117 -86 204t-162 128z" />
<glyph horiz-adv-x="1124" d="M78 352v660q0 168 80 260t241 92h674v-156h-362v-424h264v-147h-264v-481h362v-156h-674q-162 0 -241.5 92t-79.5 260zM248 344q0 -96 38 -141t120 -45h135v1046h-135q-82 0 -120 -44t-38 -142v-674z" />
<glyph horiz-adv-x="698" />
<glyph horiz-adv-x="276" d="M63 973v194q0 197 170 197v-49q-90 0 -90 -123h66v-219h-146z" />
<glyph horiz-adv-x="276" d="M41 973v51q90 0 90 123h-65v217h145v-195q0 -196 -170 -196z" />
<glyph horiz-adv-x="489" d="M63 973v194q0 197 170 197v-49q-90 0 -90 -123h66v-219h-146zM276 973v194q0 197 168 197v-49q-90 0 -90 -123h68v-219h-146z" />
<glyph horiz-adv-x="489" d="M41 973v51q90 0 90 123h-65v217h145v-195q0 -196 -170 -196zM254 973v51q90 0 90 123h-68v217h146v-195q0 -196 -168 -196z" />
<glyph horiz-adv-x="522" d="M49 682q0 98 59.5 155.5t153.5 57.5q92 0 151.5 -57.5t59.5 -155.5t-59.5 -156.5t-151.5 -58.5q-94 0 -153.5 57.5t-59.5 157.5z" />
<glyph horiz-adv-x="921" d="M129 567v140h666v-140h-666z" />
<glyph horiz-adv-x="1382" d="M129 567v140h1126v-140h-1126z" />
<glyph horiz-adv-x="493" d="M18 1178q0 137 119 137q47 0 123 -48t90 -48q35 0 35 38v60h68q23 -31 22 -74q0 -137 -119 -137q-45 0 -120.5 48t-92.5 48q-33 0 -32 -37v-59h-70q-23 33 -23 72z" />
<glyph horiz-adv-x="1007" d="M37 1288v76h348v-76h-129v-383h-90v383h-129zM467 905v459h125l76 -254l28 -121l33 121l70 254h129v-459h-84v373l-33 -129l-76 -244h-80l-73 244l-33 129v-373h-82z" />
<glyph horiz-adv-x="591" />
<glyph horiz-adv-x="423" d="M55 0q0 270 187 395q-88 59 -137.5 164t-49.5 234h82q20 -117 87 -204t163 -128v-129q-96 -41 -162.5 -128t-87.5 -204h-82z" />
<glyph horiz-adv-x="978" d="M70 266v420q0 127 68.5 206t168.5 79q133 0 195 -113q61 113 192 113q98 0 161 -78t63 -207v-223h-345v-219q0 -125 106.5 -125t106.5 125v92h132v-72q0 -129 -61.5 -204.5t-162.5 -75.5q-133 0 -192 110q-59 -111 -195 -110q-100 0 -168.5 77.5t-68.5 204.5zM215 240 q0 -55 28.5 -87t78.5 -32q51 0 79.5 31.5t28.5 87.5v475q0 53 -28.5 87t-79.5 34q-49 0 -78 -34t-29 -87v-475zM573 559h213v150q0 127 -106.5 127t-106.5 -127v-150z" />
<glyph horiz-adv-x="538" />
<glyph horiz-adv-x="706" d="M-2 1364h176l184 -633l185 633h168l-275 -821v-543h-170v543zM174 1485v176h133v-176h-133zM401 1485v176h134v-176h-134z" />
<glyph unicode="&#xa1;" horiz-adv-x="337" d="M88 186l57 412h48l57 -412v-592h-162v592zM94 745v213h148v-213h-148z" />
<glyph unicode="&#xa2;" horiz-adv-x="636" d="M84 463v442q0 104 52 176t138 93v190h127v-195q80 -23 125 -92t45 -172v-80h-133v103q0 51 -26.5 82.5t-75.5 31.5q-47 0 -73.5 -31.5t-26.5 -82.5v-486q0 -53 26.5 -82.5t73.5 -29.5q49 0 75.5 29.5t26.5 82.5v99h133v-78q0 -104 -45 -172t-125 -90v-201h-127v197 q-88 20 -139 90t-51 176z" />
<glyph unicode="&#xa3;" horiz-adv-x="839" d="M-12 135q0 78 50 125t138 47q57 0 123 -43q49 80 49 219q0 78 -29 135h-219v140h166q-66 154 -65 295q0 145 72.5 240.5t213.5 95.5q131 0 202 -85t71 -214v-121h-144v110q0 158 -131 158q-127 0 -127 -166q0 -143 74 -313h230v-140h-181q14 -51 15 -114q0 -180 -80 -320 q74 -63 143 -63q90 0 90 102v185h142v-158q0 -141 -51.5 -208t-159.5 -67q-150 0 -244 95q-72 -94 -174 -95q-78 0 -126 44t-48 116zM111 145q0 -47 53 -47q57 0 80 54q-41 41 -80 41q-25 0 -39 -14t-14 -34z" />
<glyph unicode="&#xa4;" horiz-adv-x="749" d="M78 301v762q0 141 79 234.5t226 93.5q152 0 229.5 -87t77.5 -233v-141h-147v141q0 76 -40 118t-114 42q-76 0 -116 -42t-40 -114v-317h353v-148h-353v-321q0 -72 40 -114t116 -42q74 0 114 42t40 118v141h147v-141q0 -145 -77.5 -232.5t-229.5 -87.5q-150 0 -227.5 92.5 t-77.5 235.5z" />
<glyph unicode="&#xa5;" horiz-adv-x="743" d="M35 1364h174l164 -590l166 590h170l-215 -655h178v-142h-226v-135h226v-143h-226v-289h-159v289h-228v143h228v135h-228v142h183z" />
<glyph unicode="&#xa7;" horiz-adv-x="745" d="M55 20h152v-79q0 -66 43 -104t117 -38q160 0 159 135q0 59 -48 115.5t-116 106.5l-136 102q-69 53 -117 126t-48 157q0 160 148 288q-127 127 -127 265q0 127 75.5 211t221.5 84q152 0 225.5 -86t73.5 -218v-63h-154v78q0 139 -147 139q-133 0 -133 -133q0 -57 47 -113.5 t113 -105.5l134 -103q67 -53 113.5 -125.5t46.5 -154.5q0 -193 -141 -293q127 -131 127 -264q0 -123 -81 -208t-224 -85q-154 0 -239 79t-85 222v65zM219 582q0 -80 45 -136.5t195 -146.5q39 25 65.5 71t26.5 93q0 78 -51 140.5t-191 146.5q-39 -27 -64.5 -74t-25.5 -94z " />
<glyph unicode="&#xa8;" horiz-adv-x="401" d="M20 1133v176h134v-176h-134zM248 1133v176h133v-176h-133z" />
<glyph unicode="&#xa9;" horiz-adv-x="1251" d="M39 653.5q0 245.5 168 418.5t417.5 173t418.5 -173t169 -418.5t-169 -418t-418.5 -172.5t-417.5 172.5t-168 418zM131 653q0 -213 139.5 -359.5t354.5 -146.5q217 0 356 146.5t139 359.5t-139 359.5t-356 146.5q-215 0 -354.5 -146.5t-139.5 -359.5zM434 541v223 q0 76 55.5 124t143.5 48q86 0 138 -46t52 -122v-37h-90v35q0 41 -25.5 66.5t-72.5 25.5t-72.5 -26.5t-25.5 -67.5v-221q0 -41 25.5 -66.5t72.5 -25.5t72.5 24.5t25.5 63.5v36h90v-36q0 -74 -52 -121t-138 -47t-142.5 48t-56.5 122z" />
<glyph unicode="&#xaa;" horiz-adv-x="550" d="M51 819v21q0 106 82 162.5t221 84.5v107q0 86 -82 86q-49 0 -65.5 -21.5t-16.5 -70.5v-45h-114v51q0 86 50 140.5t146 54.5q199 0 199 -215v-408q0 -20 9 -28.5t38 -8.5v-94h-45q-86 0 -92 84q-61 -84 -162 -84q-78 0 -123 49t-45 135zM166 823q0 -86 76 -86 q45 0 78.5 31t33.5 76v151q-188 -33 -188 -147v-25z" />
<glyph unicode="&#xab;" horiz-adv-x="735" d="M39 332v129q96 41 161.5 128t86.5 204h84q0 -129 -50.5 -233.5t-136.5 -164.5q88 -59 137.5 -162.5t49.5 -232.5h-84q-20 117 -86 204t-162 128zM350 332v129q96 41 162 128t86 204h84q0 -129 -50 -233.5t-136 -164.5q88 -59 137 -162.5t49 -232.5h-84q-20 117 -86 204 t-162 128z" />
<glyph unicode="&#xac;" horiz-adv-x="716" d="M102 526l160 160l-160 162l97 94l159 -162l160 162l96 -94l-163 -160l163 -160l-96 -96l-162 162l-159 -162z" />
<glyph unicode="&#xad;" horiz-adv-x="456" d="M45 567v140h367v-140h-367z" />
<glyph unicode="&#xae;" horiz-adv-x="1251" d="M39 653.5q0 245.5 168 418.5t417.5 173t418.5 -173t169 -418.5t-169 -418t-418.5 -172.5t-417.5 172.5t-168 418zM131 653q0 -213 139.5 -359.5t354.5 -146.5q217 0 356 146.5t139 359.5t-139 359.5t-356 146.5q-215 0 -354.5 -146.5t-139.5 -359.5zM451 389v537h213 q158 0 157 -146v-16q0 -98 -88 -115q45 -4 68.5 -35.5t23.5 -74.5v-62q0 -23 29 -22v-72h-27q-59 0 -81.5 18.5t-22.5 67.5v68q0 78 -70 77h-100v-225h-102zM553 684h94q72 0 72 74v24q0 63 -64 64h-102v-162z" />
<glyph unicode="&#xaf;" horiz-adv-x="430" d="M16 1149v113h396v-113h-396z" />
<glyph unicode="&#xb0;" horiz-adv-x="491" d="M29 1178q0 86 61.5 148.5t155.5 62.5t155.5 -62.5t61.5 -148.5t-61.5 -149.5t-155.5 -63.5t-155.5 63.5t-61.5 149.5zM139 1178q0 -53 29 -86t78 -33t77.5 32.5t28.5 86.5q0 51 -28.5 83.5t-77.5 32.5t-78 -32.5t-29 -83.5z" />
<glyph unicode="&#xb1;" horiz-adv-x="1038" d="M49 0v983h940v-983h-940zM154 100h731v783h-731v-783z" />
<glyph unicode="&#xb2;" horiz-adv-x="673" d="M43 0v61q0 135 49 262.5t201 344.5q106 133 149 223t43 194q0 160 -139 160t-139 -153v-160h-141v155q0 127 72.5 214.5t205.5 87.5q150 0 220.5 -87.5t70.5 -234.5q0 -246 -248 -506q-174 -246 -174 -405h410v-156h-580z" />
<glyph unicode="&#xb3;" horiz-adv-x="690" d="M63 256v150h142v-138q0 -147 131 -147q135 0 135 139v270q0 96 -109 97h-98v131h98q109 0 109 96v246q0 143 -135 143q-131 0 -131 -149v-136h-142v148q0 127 70 205t209 78q133 0 210 -78t77 -207v-221q0 -70 -36 -120t-99 -67q135 -41 135 -178v-258q0 -127 -77 -206 t-210 -79q-137 0 -208 79t-71 202z" />
<glyph unicode="&#xb4;" d="M70 1083l77 263h158l-139 -263h-96z" />
<glyph unicode="&#xb6;" horiz-adv-x="987" d="M70 860v33q0 211 109.5 341t277.5 130h434v-1696h-121v1540h-121v-1540h-121v723h-71q-166 0 -276.5 130t-110.5 339zM348 715q0 -168 146 -168h34v661h-34q-66 0 -106 -51t-40 -141v-301z" />
<glyph unicode="&#xb7;" horiz-adv-x="276" d="M66 571v217h145v-217h-145z" />
<glyph unicode="&#xb8;" horiz-adv-x="319" d="M12 -182l150 217l53 -39l-88 -127q16 12 59 12q68 0 105 -41t37 -108q0 -63 -44 -106.5t-112 -43.5q-41 0 -63 17v55h36q70 0 70 63v37q0 70 -70 70q-43 0 -79 -43z" />
<glyph unicode="&#xb9;" horiz-adv-x="401" d="M119 0v1284q80 0 80 80h82v-1364h-162z" />
<glyph unicode="&#xba;" horiz-adv-x="518" d="M47 860v303q0 102 60.5 164t152.5 62t152.5 -61.5t60.5 -164.5v-303q0 -102 -60.5 -163.5t-152.5 -61.5t-152.5 61.5t-60.5 163.5zM168 834q0 -43 24.5 -69t67.5 -26q41 0 65.5 27t24.5 68v356q0 43 -24.5 69.5t-65.5 26.5q-43 0 -67.5 -26.5t-24.5 -69.5v-356z" />
<glyph unicode="&#xbb;" horiz-adv-x="735" d="M51 0q0 129 49.5 232.5t137.5 162.5q-86 59 -136.5 164t-50.5 234h84q20 -117 86 -204t162 -128v-129q-96 -41 -161.5 -128t-86.5 -204h-84zM362 0q0 129 49.5 232.5t137.5 162.5q-86 59 -136.5 164t-50.5 234h84q20 -117 86 -204t162 -128v-129q-96 -41 -161.5 -128 t-86.5 -204h-84z" />
<glyph unicode="&#xbf;" horiz-adv-x="567" d="M-23 -115q0 211 170 428q53 66 73 122.5t20 135.5h122q0 -104 -31.5 -183t-129.5 -245q-68 -123 -68 -258q0 -92 32 -131t97 -39q131 0 131 162v152h142v-162q0 -135 -68 -216t-201 -81q-150 0 -219.5 87t-69.5 228zM229 745v213h148v-213h-148z" />
<glyph unicode="&#xc0;" horiz-adv-x="722" d="M16 0l256 1364h181l254 -1364h-175l-55 313h-241l-58 -313h-162zM170 1698h158l78 -262h-97zM262 465h189l-93 584z" />
<glyph unicode="&#xc1;" horiz-adv-x="722" d="M16 0l256 1364h181l254 -1364h-175l-55 313h-241l-58 -313h-162zM262 465h189l-93 584zM307 1436l78 262h158l-140 -262h-96z" />
<glyph unicode="&#xc2;" horiz-adv-x="722" d="M16 0l256 1364h181l254 -1364h-175l-55 313h-241l-58 -313h-162zM135 1454v45q55 0 99.5 44t66.5 132h123q23 -88 67 -132t99 -44v-45q-43 -14 -80 -14q-55 0 -96 36.5t-56 104.5q-31 -141 -153 -141q-27 0 -70 14zM262 465h189l-93 584z" />
<glyph unicode="&#xc3;" horiz-adv-x="722" d="M16 0l256 1364h181l254 -1364h-175l-55 313h-241l-58 -313h-162zM121 1530q0 137 119 137q47 0 122.5 -48t90.5 -48q35 0 34 39v59h68q23 -31 23 -74q0 -137 -119 -137q-45 0 -121 48t-92 48q-33 0 -33 -36v-60h-70q-22 33 -22 72zM262 465h189l-93 584z" />
<glyph unicode="&#xc4;" horiz-adv-x="722" d="M16 0l256 1364h181l254 -1364h-175l-55 313h-241l-58 -313h-162zM170 1485v176h133v-176h-133zM262 465h189l-93 584zM397 1485v176h133v-176h-133z" />
<glyph unicode="&#xc5;" horiz-adv-x="722" d="M16 0l256 1364h27q-78 37 -78 127q0 59 41 103t100.5 44t99.5 -44t40 -103q0 -90 -78 -127h29l254 -1364h-175l-55 313h-241l-58 -313h-162zM262 465h189l-93 584zM293 1491q0 -37 18.5 -59.5t51 -22.5t51 22.5t18.5 59.5q0 39 -18.5 61.5t-51 22.5t-51 -22.5 t-18.5 -61.5z" />
<glyph unicode="&#xc6;" horiz-adv-x="1083" d="M14 0l414 1364h606v-156h-364v-424h262v-147h-262v-481h364v-156h-534v313h-221l-97 -313h-168zM326 467h174v655z" />
<glyph unicode="&#xc7;" horiz-adv-x="765" d="M78 303v758q0 141 84 234.5t235.5 93.5t231.5 -88.5t80 -227.5v-186h-152v190q0 72 -40 114t-113.5 42t-114.5 -42t-41 -108v-802q0 -68 41 -109t114.5 -41t113.5 42t40 114v192h152v-188q0 -137 -77 -224t-220 -92l-74 -106q16 12 61 12q68 0 104 -41t36 -108 q0 -63 -44 -106.5t-112 -43.5q-37 0 -64 17v55h37q72 0 72 63v37q0 70 -72 70q-43 0 -80 -43l-51 37l109 162q-121 18 -188.5 108t-67.5 215z" />
<glyph unicode="&#xc8;" horiz-adv-x="677" d="M92 0v1364h535v-156h-365v-424h264v-149h-264v-479h365v-156h-535zM178 1698h158l78 -262h-97z" />
<glyph unicode="&#xc9;" horiz-adv-x="677" d="M92 0v1364h535v-156h-365v-424h264v-149h-264v-479h365v-156h-535zM289 1436l78 262h157l-139 -262h-96z" />
<glyph unicode="&#xca;" horiz-adv-x="677" d="M92 0v1364h535v-156h-365v-424h264v-149h-264v-479h365v-156h-535zM125 1454v45q55 0 99 44t67 132h123q23 -88 66.5 -132t99.5 -44v-45q-43 -14 -80 -14q-55 0 -96 36.5t-56 104.5q-31 -141 -153 -141q-27 0 -70 14z" />
<glyph unicode="&#xcb;" horiz-adv-x="677" d="M92 0v1364h535v-156h-365v-424h264v-149h-264v-479h365v-156h-535zM172 1485v176h133v-176h-133zM399 1485v176h133v-176h-133z" />
<glyph unicode="&#xcc;" horiz-adv-x="356" d="M-12 1698h157l78 -262h-96zM92 0v1364h172v-1364h-172z" />
<glyph unicode="&#xcd;" horiz-adv-x="356" d="M92 0v1364h172v-1364h-172zM123 1436l78 262h157l-139 -262h-96z" />
<glyph unicode="&#xce;" horiz-adv-x="356" d="M-47 1454v45q55 0 99 44t67 132h123q23 -88 66.5 -132t99.5 -44v-45q-43 -14 -80 -14q-55 0 -96.5 36.5t-55.5 104.5q-31 -141 -153 -141q-27 0 -70 14zM92 0v1364h172v-1364h-172z" />
<glyph unicode="&#xcf;" horiz-adv-x="356" d="M-4 1485v176h133v-176h-133zM92 0v1364h172v-1364h-172zM223 1485v176h133v-176h-133z" />
<glyph unicode="&#xd0;" horiz-adv-x="866" d="M2 608v144h154v612h323q156 0 232.5 -89t76.5 -245v-696q0 -156 -76.5 -245t-232.5 -89h-323v608h-154zM326 158h145q147 0 147 174v698q0 174 -147 174h-145v-452h145v-144h-145v-450z" />
<glyph unicode="&#xd1;" horiz-adv-x="839" d="M90 0v1364h146l268 -688l84 -232v920h162v-1364h-123l-285 678l-90 229v-907h-162zM180 1530q0 137 119 137q45 0 121 -48t92 -48q35 0 35 39v59h67q23 -31 23 -74q0 -137 -119 -137q-45 0 -120.5 48t-92.5 48q-33 0 -33 -36v-60h-69q-23 33 -23 72z" />
<glyph unicode="&#xd2;" horiz-adv-x="798" d="M78 311v742q0 150 85 243t236.5 93t236.5 -93.5t85 -242.5v-742q0 -150 -84 -243t-237.5 -93t-237.5 93t-84 243zM209 1698h158l77 -262h-96zM248 293q0 -74 39 -118t112.5 -44t112.5 44t39 118v778q0 72 -39 117t-112.5 45t-112.5 -45t-39 -117v-778z" />
<glyph unicode="&#xd3;" horiz-adv-x="798" d="M78 311v742q0 150 85 243t236.5 93t236.5 -93.5t85 -242.5v-742q0 -150 -84 -243t-237.5 -93t-237.5 93t-84 243zM248 293q0 -74 39 -118t112.5 -44t112.5 44t39 118v778q0 72 -39 117t-112.5 45t-112.5 -45t-39 -117v-778zM346 1436l78 262h158l-140 -262h-96z" />
<glyph unicode="&#xd4;" horiz-adv-x="798" d="M78 311v742q0 150 85 243t236.5 93t236.5 -93.5t85 -242.5v-742q0 -150 -84 -243t-237.5 -93t-237.5 93t-84 243zM174 1454v45q55 0 99 44t67 132h123q23 -88 66.5 -132t99.5 -44v-45q-43 -14 -80 -14q-55 0 -96 36.5t-56 104.5q-31 -141 -153 -141q-27 0 -70 14z M248 293q0 -74 39 -118t112.5 -44t112.5 44t39 118v778q0 72 -39 117t-112.5 45t-112.5 -45t-39 -117v-778z" />
<glyph unicode="&#xd5;" horiz-adv-x="798" d="M78 311v742q0 150 85 243t236.5 93t236.5 -93.5t85 -242.5v-742q0 -150 -84 -243t-237.5 -93t-237.5 93t-84 243zM158 1530q0 137 118 137q47 0 123 -48t90 -48q35 0 35 39v59h68q23 -31 22 -74q0 -137 -118 -137q-45 0 -121 48t-92 48q-33 0 -33 -36v-60h-70 q-22 33 -22 72zM248 293q0 -74 39 -118t112.5 -44t112.5 44t39 118v778q0 72 -39 117t-112.5 45t-112.5 -45t-39 -117v-778z" />
<glyph unicode="&#xd6;" horiz-adv-x="798" d="M78 311v742q0 150 85 243t236.5 93t236.5 -93.5t85 -242.5v-742q0 -150 -84 -243t-237.5 -93t-237.5 93t-84 243zM219 1485v176h133v-176h-133zM248 293q0 -74 39 -118t112.5 -44t112.5 44t39 118v778q0 72 -39 117t-112.5 45t-112.5 -45t-39 -117v-778zM446 1485v176 h134v-176h-134z" />
<glyph unicode="&#xd7;" horiz-adv-x="716" d="M102 526l160 160l-160 162l97 94l159 -162l160 162l96 -94l-163 -160l163 -160l-96 -96l-162 162l-159 -162z" />
<glyph unicode="&#xd8;" horiz-adv-x="798" d="M63 -10l58 135q-43 80 -43 186v742q0 150 85 243t236 93q137 0 222 -78l47 110l88 -47l-68 -160q33 -68 33 -161v-742q0 -150 -84 -243t-238 -93q-125 0 -206 64l-11 -23l-20 -49l-10 -24zM248 426l295 700q-27 106 -144 107q-74 0 -112.5 -45t-38.5 -117v-645zM264 209 q37 -78 135 -78q74 0 113 44t39 118v596z" />
<glyph unicode="&#xd9;" horiz-adv-x="813" d="M88 289v1075h170v-1079q0 -156 149.5 -156t149.5 156v1079h168v-1075q0 -145 -88 -229.5t-231 -84.5q-141 0 -229.5 84.5t-88.5 229.5zM233 1698h158l78 -262h-96z" />
<glyph unicode="&#xda;" horiz-adv-x="813" d="M88 289v1075h170v-1079q0 -156 149.5 -156t149.5 156v1079h168v-1075q0 -145 -88 -229.5t-231 -84.5q-141 0 -229.5 84.5t-88.5 229.5zM356 1436l78 262h158l-139 -262h-97z" />
<glyph unicode="&#xdb;" horiz-adv-x="813" d="M88 289v1075h170v-1079q0 -156 149.5 -156t149.5 156v1079h168v-1075q0 -145 -88 -229.5t-231 -84.5q-141 0 -229.5 84.5t-88.5 229.5zM188 1454v45q55 0 99.5 44t66.5 132h123q23 -88 67 -132t99 -44v-45q-43 -14 -80 -14q-55 0 -96 36.5t-55 104.5q-31 -141 -154 -141 q-27 0 -70 14z" />
<glyph unicode="&#xdc;" horiz-adv-x="813" d="M88 289v1075h170v-1079q0 -156 149.5 -156t149.5 156v1079h168v-1075q0 -145 -88 -229.5t-231 -84.5q-141 0 -229.5 84.5t-88.5 229.5zM233 1485v176h134v-176h-134zM461 1485v176h133v-176h-133z" />
<glyph unicode="&#xdd;" horiz-adv-x="706" d="M-2 1364h176l184 -633l185 633h168l-275 -821v-543h-170v543zM313 1436l78 262h158l-139 -262h-97z" />
<glyph unicode="&#xde;" horiz-adv-x="743" d="M92 0v1364h172v-246h162q272 0 272 -280v-242q0 -279 -272 -279h-162v-317h-172zM264 467h162q102 0 102 119v258q0 123 -102 123h-162v-500z" />
<glyph unicode="&#xdf;" horiz-adv-x="667" d="M88 0v1073q0 135 63.5 213t182.5 78q127 0 192.5 -72.5t65.5 -204.5v-176q0 -135 -100 -184q104 -47 104 -184v-342q0 -104 -57.5 -160.5t-151.5 -56.5q-47 0 -68 18v68q129 0 130 106v399q0 96 -125 97v102q119 0 118 103v229q0 119 -102 119t-102 -123v-1102h-150z" />
<glyph unicode="&#xe0;" horiz-adv-x="638" d="M51 219v35q0 129 96.5 203.5t260.5 122.5v145q0 109 -97 109q-55 0 -74.5 -28t-19.5 -87v-72h-137v80q0 109 60.5 176.5t172.5 67.5q121 0 178.5 -71t57.5 -193v-562q0 -49 43 -49v-112h-41q-100 0 -113 102q-70 -102 -186 -102q-94 0 -147.5 63t-53.5 172zM123 1346h158 l77 -263h-96zM190 221q0 -109 91 -108q49 0 88 40t39 95v211q-106 -25 -162 -75t-56 -118v-45z" />
<glyph unicode="&#xe1;" horiz-adv-x="638" d="M51 219v35q0 129 96.5 203.5t260.5 122.5v145q0 109 -97 109q-55 0 -74.5 -28t-19.5 -87v-72h-137v80q0 109 60.5 176.5t172.5 67.5q121 0 178.5 -71t57.5 -193v-562q0 -49 43 -49v-112h-41q-100 0 -113 102q-70 -102 -186 -102q-94 0 -147.5 63t-53.5 172zM190 221 q0 -109 91 -108q49 0 88 40t39 95v211q-106 -25 -162 -75t-56 -118v-45zM260 1083l78 263h158l-140 -263h-96z" />
<glyph unicode="&#xe2;" horiz-adv-x="638" d="M51 219v35q0 129 96.5 203.5t260.5 122.5v145q0 109 -97 109q-55 0 -74.5 -28t-19.5 -87v-72h-137v80q0 109 60.5 176.5t172.5 67.5q121 0 178.5 -71t57.5 -193v-562q0 -49 43 -49v-112h-41q-100 0 -113 102q-70 -102 -186 -102q-94 0 -147.5 63t-53.5 172zM92 1102v45 q55 0 99.5 44t66.5 132h123q23 -88 67 -132t99 -44v-45q-43 -14 -80 -15q-55 0 -96 37t-56 105q-31 -141 -153 -142q-27 1 -70 15zM190 221q0 -109 91 -108q49 0 88 40t39 95v211q-106 -25 -162 -75t-56 -118v-45z" />
<glyph unicode="&#xe3;" horiz-adv-x="638" d="M51 219v35q0 129 96.5 203.5t260.5 122.5v145q0 109 -97 109q-55 0 -74.5 -28t-19.5 -87v-72h-137v80q0 109 60.5 176.5t172.5 67.5q121 0 178.5 -71t57.5 -193v-562q0 -49 43 -49v-112h-41q-100 0 -113 102q-70 -102 -186 -102q-94 0 -147.5 63t-53.5 172zM78 1178 q0 137 119 137q45 0 120.5 -48t92.5 -48q35 0 34 38v60h68q23 -31 23 -74q0 -137 -119 -137q-45 0 -121 48t-92 48q-33 0 -33 -37v-59h-70q-22 33 -22 72zM190 221q0 -109 91 -108q49 0 88 40t39 95v211q-106 -25 -162 -75t-56 -118v-45z" />
<glyph unicode="&#xe4;" horiz-adv-x="638" d="M51 219v35q0 129 96.5 203.5t260.5 122.5v145q0 109 -97 109q-55 0 -74.5 -28t-19.5 -87v-72h-137v80q0 109 60.5 176.5t172.5 67.5q121 0 178.5 -71t57.5 -193v-562q0 -49 43 -49v-112h-41q-100 0 -113 102q-70 -102 -186 -102q-94 0 -147.5 63t-53.5 172zM127 1133v176 h133v-176h-133zM190 221q0 -109 91 -108q49 0 88 40t39 95v211q-106 -25 -162 -75t-56 -118v-45zM354 1133v176h133v-176h-133z" />
<glyph unicode="&#xe5;" horiz-adv-x="638" />
<glyph unicode="&#xe6;" horiz-adv-x="956" d="M53 219v35q0 129 96.5 203.5t260.5 122.5v137q0 117 -99 117q-100 0 -100 -115v-72h-127v80q0 106 58.5 175t156.5 69q127 0 182 -111q59 111 191 111q98 0 159.5 -79t61.5 -206v-223h-344v-219q0 -57 27.5 -91t80.5 -34q104 0 105 125v92h131v-72q0 -127 -63.5 -203.5 t-157.5 -76.5q-147 0 -205 112q-76 -113 -207 -112q-96 0 -151.5 60t-55.5 175zM195 221q0 -109 88 -108q51 0 89 40t38 95v211q-215 -49 -215 -193v-45zM549 559h213v150q0 127 -105 127q-53 0 -80.5 -35t-27.5 -92v-150z" />
<glyph unicode="&#xe7;" horiz-adv-x="614" d="M70 266v420q0 129 68.5 207t180.5 78q117 0 178.5 -75t61.5 -206v-74h-129v99q0 53 -27.5 87t-79 34t-80 -34t-28.5 -93v-463q0 -125 109 -125q51 0 78.5 31.5t27.5 87.5v94h129v-70q0 -127 -58.5 -200.5t-168.5 -77.5l-80 -117q16 12 59 12q68 0 105 -41t37 -108 q0 -63 -44 -106.5t-112 -43.5q-41 0 -64 17v55h37q70 0 70 63v37q0 70 -70 70q-43 0 -80 -43l-53 37l119 172q-86 18 -136 91.5t-50 184.5z" />
<glyph unicode="&#xe8;" horiz-adv-x="620" d="M70 266v420q0 129 68.5 207t183.5 78q113 0 175 -77t62 -208v-223h-344v-219q0 -125 109 -125q104 0 104 125v92h131v-72q0 -131 -62.5 -205.5t-174.5 -74.5q-115 0 -183.5 76.5t-68.5 205.5zM129 1346h158l78 -263h-97zM215 559h213v150q0 127 -104 127 q-109 0 -109 -127v-150z" />
<glyph unicode="&#xe9;" horiz-adv-x="620" d="M70 266v420q0 129 68.5 207t183.5 78q113 0 175 -77t62 -208v-223h-344v-219q0 -125 109 -125q104 0 104 125v92h131v-72q0 -131 -62.5 -205.5t-174.5 -74.5q-115 0 -183.5 76.5t-68.5 205.5zM215 559h213v150q0 127 -104 127q-109 0 -109 -127v-150zM272 1083l78 263 h158l-139 -263h-97z" />
<glyph unicode="&#xea;" horiz-adv-x="620" d="M70 266v420q0 129 68.5 207t183.5 78q113 0 175 -77t62 -208v-223h-344v-219q0 -125 109 -125q104 0 104 125v92h131v-72q0 -131 -62.5 -205.5t-174.5 -74.5q-115 0 -183.5 76.5t-68.5 205.5zM86 1102v45q55 0 99 44t67 132h123q23 -88 66.5 -132t99.5 -44v-45 q-43 -14 -80 -15q-55 0 -96 37t-56 105q-31 -141 -153 -142q-27 1 -70 15zM215 559h213v150q0 127 -104 127q-109 0 -109 -127v-150z" />
<glyph unicode="&#xeb;" horiz-adv-x="620" d="M70 266v420q0 129 68.5 207t183.5 78q113 0 175 -77t62 -208v-223h-344v-219q0 -125 109 -125q104 0 104 125v92h131v-72q0 -131 -62.5 -205.5t-174.5 -74.5q-115 0 -183.5 76.5t-68.5 205.5zM133 1133v176h133v-176h-133zM215 559h213v150q0 127 -104 127 q-109 0 -109 -127v-150zM360 1133v176h134v-176h-134z" />
<glyph unicode="&#xec;" horiz-adv-x="313" />
<glyph unicode="&#xed;" horiz-adv-x="313" />
<glyph unicode="&#xee;" horiz-adv-x="313" />
<glyph unicode="&#xef;" horiz-adv-x="313" />
<glyph unicode="&#xf0;" horiz-adv-x="651" d="M72 264v467q0 100 54 167t138 67q109 0 170 -101q0 150 -53 262l-102 -55l-37 90l92 49q-49 68 -144 148v6h172q45 -39 89 -92l86 45l34 -90l-69 -37q78 -139 78 -354v-572q0 -127 -73 -203.5t-183 -76.5q-109 0 -180.5 76.5t-71.5 203.5zM217 238q0 -51 29.5 -83 t77.5 -32q49 0 78.5 31.5t29.5 83.5v462q0 61 -28.5 96t-79.5 35q-106 0 -107 -133v-460z" />
<glyph unicode="&#xf1;" horiz-adv-x="677" d="M82 0v958h127l10 -157q57 168 187 168q92 0 142 -61.5t50 -168.5v-739h-149v727q0 53 -26 84t-71 31q-53 0 -87 -55.5t-34 -108.5v-678h-149zM94 1178q0 137 119 137q45 0 121 -48t92 -48q35 0 35 38v60h67q23 -31 23 -74q0 -137 -119 -137q-45 0 -120.5 48t-92.5 48 q-33 0 -33 -37v-59h-69q-23 33 -23 72z" />
<glyph unicode="&#xf2;" horiz-adv-x="647" d="M70 266v420q0 129 69.5 207t184 78t183 -78t68.5 -207v-420q0 -129 -68.5 -205.5t-183 -76.5t-184 76.5t-69.5 205.5zM135 1346h158l78 -263h-97zM217 240q0 -55 27.5 -87t79 -32t79 31.5t27.5 87.5v475q0 53 -27.5 87t-79 34t-79 -34t-27.5 -87v-475z" />
<glyph unicode="&#xf3;" horiz-adv-x="647" d="M70 266v420q0 129 69.5 207t184 78t183 -78t68.5 -207v-420q0 -129 -68.5 -205.5t-183 -76.5t-184 76.5t-69.5 205.5zM217 240q0 -55 27.5 -87t79 -32t79 31.5t27.5 87.5v475q0 53 -27.5 87t-79 34t-79 -34t-27.5 -87v-475zM276 1083l78 263h158l-139 -263h-97z" />
<glyph unicode="&#xf4;" horiz-adv-x="647" d="M70 266v420q0 129 69.5 207t184 78t183 -78t68.5 -207v-420q0 -129 -68.5 -205.5t-183 -76.5t-184 76.5t-69.5 205.5zM100 1102v45q55 0 99.5 44t66.5 132h123q23 -88 67 -132t99 -44v-45q-43 -14 -80 -15q-55 0 -96 37t-55 105q-31 -141 -154 -142q-27 1 -70 15z M217 240q0 -55 27.5 -87t79 -32t79 31.5t27.5 87.5v475q0 53 -27.5 87t-79 34t-79 -34t-27.5 -87v-475z" />
<glyph unicode="&#xf5;" horiz-adv-x="647" d="M70 266v420q0 129 69.5 207t184 78t183 -78t68.5 -207v-420q0 -129 -68.5 -205.5t-183 -76.5t-184 76.5t-69.5 205.5zM84 1178q0 137 119 137q47 0 122.5 -48t90.5 -48q35 0 35 38v60h67q23 -31 23 -74q0 -137 -119 -137q-45 0 -121 48t-92 48q-33 0 -33 -37v-59h-70 q-22 33 -22 72zM217 240q0 -55 27.5 -87t79 -32t79 31.5t27.5 87.5v475q0 53 -27.5 87t-79 34t-79 -34t-27.5 -87v-475z" />
<glyph unicode="&#xf6;" horiz-adv-x="647" d="M70 266v420q0 129 69.5 207t184 78t183 -78t68.5 -207v-420q0 -129 -68.5 -205.5t-183 -76.5t-184 76.5t-69.5 205.5zM143 1133v176h133v-176h-133zM217 240q0 -55 27.5 -87t79 -32t79 31.5t27.5 87.5v475q0 53 -27.5 87t-79 34t-79 -34t-27.5 -87v-475zM371 1133v176 h133v-176h-133z" />
<glyph unicode="&#xf8;" horiz-adv-x="647" d="M23 2l75 139q-29 53 -28 123v426q0 127 71.5 204t182.5 77q113 0 182 -86l61 110l60 -43q-59 -100 -78 -143q29 -51 29 -119v-426q0 -129 -72 -204.5t-182.5 -75.5t-182.5 84l-61 -109zM215 365l205 356q0 45 -2 45q-20 74 -94 74q-49 0 -79 -33t-30 -84v-358zM227 231 q0 -45 2 -47q18 -68 95 -67q49 0 77.5 30.5t28.5 81.5v357z" />
<glyph unicode="&#xf9;" horiz-adv-x="679" d="M80 215v743h149v-733q0 -51 27 -82.5t70 -31.5q53 0 86.5 55t33.5 108v684h150v-958h-127l-10 135q-53 -154 -187 -153q-92 0 -142 62t-50 171zM154 1346h157l78 -263h-96z" />
<glyph unicode="&#xfa;" horiz-adv-x="679" d="M80 215v743h149v-733q0 -51 27 -82.5t70 -31.5q53 0 86.5 55t33.5 108v684h150v-958h-127l-10 135q-53 -154 -187 -153q-92 0 -142 62t-50 171zM289 1083l78 263h157l-139 -263h-96z" />
<glyph unicode="&#xfb;" horiz-adv-x="679" d="M80 215v743h149v-733q0 -51 27 -82.5t70 -31.5q53 0 86.5 55t33.5 108v684h150v-958h-127l-10 135q-53 -154 -187 -153q-92 0 -142 62t-50 171zM113 1102v45q55 0 99 44t67 132h122q23 -88 67 -132t99 -44v-45q-43 -14 -80 -15q-55 0 -96 37t-55 105q-31 -141 -154 -142 q-26 1 -69 15z" />
<glyph unicode="&#xfc;" horiz-adv-x="679" d="M80 215v743h149v-733q0 -51 27 -82.5t70 -31.5q53 0 86.5 55t33.5 108v684h150v-958h-127l-10 135q-53 -154 -187 -153q-92 0 -142 62t-50 171zM158 1133v176h133v-176h-133zM385 1133v176h133v-176h-133z" />
<glyph unicode="&#xfd;" horiz-adv-x="581" d="M18 958h146l92 -534l31 -213l35 213l92 534h145l-215 -1038q-29 -141 -76 -203.5t-155 -62.5h-47v127h36q49 0 70 19.5t31 66.5l18 115zM244 1083l78 263h157l-139 -263h-96z" />
<glyph unicode="&#xfe;" horiz-adv-x="663" d="M82 -340v1704h147v-487q66 100 183 100q80 0 131 -64.5t51 -169.5v-524q0 -102 -51 -166.5t-131 -64.5q-117 0 -183 100v-428h-147zM229 254q0 -61 30 -96t83 -35q106 0 107 137v445q0 137 -107 137q-51 0 -82 -36t-31 -95v-457z" />
<glyph unicode="&#xff;" horiz-adv-x="581" d="M18 958h146l92 -534l31 -213l35 213l92 534h145l-215 -1038q-29 -141 -76 -203.5t-155 -62.5h-47v127h36q49 0 70 19.5t31 66.5l18 115zM113 1133v176h133v-176h-133zM340 1133v176h133v-176h-133z" />
<glyph unicode="&#x152;" horiz-adv-x="1476" d="M78 311v742q0 150 85 243t236.5 93t236.5 -93.5t85 -242.5v-742q0 -150 -84 -243t-237.5 -93t-237.5 93t-84 243zM248 293q0 -74 39 -118t112.5 -44t112.5 44t39 118v778q0 72 -39 117t-112.5 45t-112.5 -45t-39 -117v-778zM891 0v1364h534v-156h-364v-424h264v-149h-264 v-479h364v-156h-534z" />
<glyph unicode="&#x153;" horiz-adv-x="1267" d="M70 266v420q0 129 69.5 207t184 78t183 -78t68.5 -207v-420q0 -129 -68.5 -205.5t-183 -76.5t-184 76.5t-69.5 205.5zM217 240q0 -55 27.5 -87t79 -32t79 31.5t27.5 87.5v475q0 53 -27.5 87t-79 34t-79 -34t-27.5 -87v-475zM717 266v420q0 129 68.5 207t183.5 78 q113 0 175 -77t62 -208v-223h-344v-219q0 -125 109 -125q104 0 104 125v92h131v-72q0 -131 -62.5 -205.5t-174.5 -74.5q-115 0 -183.5 76.5t-68.5 205.5zM862 559h213v150q0 127 -104 127q-109 0 -109 -127v-150z" />
<glyph unicode="&#x178;" horiz-adv-x="706" d="M-2 1364h176l184 -633l185 633h168l-275 -821v-543h-170v543zM174 1511v177h133v-177h-133zM401 1511v177h134v-177h-134z" />
<glyph unicode="&#x2c6;" horiz-adv-x="489" d="M18 1143v47q55 0 99.5 44t66.5 130h123q23 -86 67 -130t99 -44v-47q-37 -12 -80 -13q-55 0 -96 37t-55 105q-31 -141 -154 -142q-33 1 -70 13z" />
<glyph unicode="&#x2dc;" horiz-adv-x="284" d="M-227 195q0 137 118 137q47 0 123 -47t90 -47q35 0 35 36v60h68q23 -31 22 -74q0 -135 -118 -135q-45 0 -121 47t-92 47q-33 0 -33 -37v-59h-70q-22 35 -22 72z" />
<glyph unicode="&#x2013;" horiz-adv-x="1024" d="M45 567v140h934v-140h-934z" />
<glyph unicode="&#x2014;" horiz-adv-x="2048" d="M45 567v140h1958v-140h-1958z" />
<glyph unicode="&#x2018;" d="M37 1346h158l77 -263h-96z" />
<glyph unicode="&#x2019;" d="M70 969l77 395h158l-139 -395h-96z" />
<glyph unicode="&#x201c;" horiz-adv-x="444" d="M41 969l61 395h136l-105 -395h-92zM233 969l86 395h136l-129 -395h-93z" />
<glyph unicode="&#x201d;" horiz-adv-x="444" d="M41 969l61 395h136l-105 -395h-92zM233 969l86 395h136l-129 -395h-93z" />
<glyph unicode="&#x2026;" horiz-adv-x="952" d="M86 0v217h145v-217h-145zM403 0v217h146v-217h-146zM721 0v217h145v-217h-145z" />
<glyph unicode="&#x2039;" horiz-adv-x="866" d="M104 659v48l617 401v-166l-402 -258l402 -262v-166z" />
<glyph unicode="&#x203a;" horiz-adv-x="866" d="M145 258v164l402 260l-402 262v164l617 -403v-46z" />
<glyph unicode="&#x2122;" horiz-adv-x="1736" d="M25 1206v158h628v-158h-227v-1206h-170v1206h-231zM770 0v1364h242l153 -848l45 -248l43 250l152 846h237v-1364h-155v1047l-45 -248l-156 -799h-164l-155 799l-45 248v-1047h-152z" />
<glyph unicode="&#xe000;" horiz-adv-x="960" d="M0 960h960v-960h-960v960z" />
<glyph unicode="&#xfb01;" horiz-adv-x="712" d="M31 821v131h92v119q0 293 223 293h51v-131h-37q-96 0 -96 -117v-164h117v-131h-109v-821h-149v821h-92zM481 0v958h150v-958h-150zM487 1100v168h138v-168h-138z" />
<glyph unicode="&#xfb02;" horiz-adv-x="712" d="M31 821v131h92v119q0 293 223 293h51v-131h-37q-96 0 -96 -117v-164h117v-131h-109v-821h-149v821h-92zM481 0v1364h150v-1364h-150z" />
<glyph unicode="&#xfb03;" horiz-adv-x="1112" d="M31 821v131h92v119q0 293 223 293h51v-131h-37q-96 0 -96 -117v-164h117v-131h-109v-821h-149v821h-92zM430 821v131h92v119q0 293 223 293h52v-131h-37q-96 0 -96 -117v-164h116v-131h-108v-821h-150v821h-92zM881 0v958h149v-958h-149zM887 1100v168h137v-168h-137z " />
<glyph unicode="&#xfb04;" horiz-adv-x="1112" d="M31 821v131h92v119q0 293 223 293h51v-131h-37q-96 0 -96 -117v-164h117v-131h-109v-821h-149v821h-92zM430 821v131h92v119q0 293 223 293h52v-131h-37q-96 0 -96 -117v-164h116v-131h-108v-821h-150v821h-92zM881 0v1364h149v-1364h-149z" />
</font>
</defs>
</svg>
