<?xml version="1.0" standalone="no"?>
<!DOCTYPE svg PUBLIC "-//W3C//DTD SVG 1.1//EN" "http://www.w3.org/Graphics/SVG/1.1/DTD/svg11.dtd" >
<svg xmlns="http://www.w3.org/2000/svg">
<metadata></metadata>
<defs>
<font id="ag_book_stencilregular" horiz-adv-x="1236" >
<font-face units-per-em="2048" ascent="1638" descent="-410" />
<missing-glyph horiz-adv-x="598" />
<glyph horiz-adv-x="2048" />
<glyph horiz-adv-x="2048" />
<glyph unicode="&#xd;" horiz-adv-x="2048" />
<glyph unicode=" "  horiz-adv-x="598" />
<glyph unicode="&#x09;" horiz-adv-x="598" />
<glyph unicode="&#xa0;" horiz-adv-x="598" />
<glyph unicode="!" horiz-adv-x="598" d="M190 0v301h302v-301h-302zM190 956v490h314v-490l-58 -544h-208z" />
<glyph unicode="&#x22;" horiz-adv-x="937" d="M111 1395q0 69 48 104t105 35q51 0 95 -31t44 -100q0 -19 -4 -33l-108 -534h-64l-112 512q-4 20 -4 47zM537 1395q0 69 48 104t105 35q51 0 95 -31t44 -100q0 -19 -4 -33l-108 -534h-64l-112 512q-4 20 -4 47z" />
<glyph unicode="$" horiz-adv-x="1193" d="M45 444h287q-2 -45 10.5 -81.5t34.5 -58.5t40.5 -33.5t37.5 -18.5v-266q-392 72 -410 458zM80 1020q0 78 22.5 143t59 109.5t86 77t101 50t106.5 23.5v-254q-97 -30 -97 -127q0 -108 150 -149v735h164v-784q136 -42 193 -64.5t106 -58.5q143 -109 143 -301 q0 -238 -184 -359q-38 -25 -79.5 -41t-64 -21.5t-61.5 -12.5v270q98 48 98 137q0 107 -151 154v-762h-164v815q-168 54 -236 91q-152 83 -183 234q-9 44 -9 95zM725 1153v266q84 -17 146.5 -52t98 -74t58.5 -93.5t31.5 -97t13.5 -98.5l-268 -13q-4 120 -80 162z" />
<glyph unicode="%" horiz-adv-x="1792" d="M45 961q0 430 313 473v-185q-112 -33 -112 -270q0 -135 23 -208t89 -89v-184q-313 34 -313 463zM412 500v182q110 39 110 285q0 139 -27.5 206t-82.5 78v183q64 -3 115 -26t83 -53.5t55 -76t34 -82t17 -85t6.5 -70.5t0.5 -52q0 -255 -105 -383q-75 -90 -206 -106zM514 0 l580 1413h180l-580 -1413h-180zM1067 446q0 95 16.5 173.5t52 143t97 104.5t145.5 48v-184q-110 -29 -110 -266q0 -143 22 -203q8 -26 17.5 -43.5t22 -28t21.5 -15.5t27 -13v-178q-75 5 -131 34q-180 97 -180 428zM1432 -16v184q51 13 81.5 80t30.5 192q0 110 -15.5 175 t-37.5 88t-59 34v178q64 -2 115.5 -24.5t83.5 -53.5t55.5 -77.5t34 -84t17 -86t7 -70t0.5 -48.5q0 -261 -105 -383q-35 -39 -79.5 -63.5t-69.5 -30t-59 -10.5z" />
<glyph unicode="&#x26;" horiz-adv-x="1280" d="M41 418q0 48 11 92.5t25 77t42.5 66t48 53t57 46.5t55 38t56.5 34q-80 133 -80 256q0 131 90.5 230t247.5 112v-239q-44 -11 -62 -39.5t-18 -59.5q0 -53 61 -155q144 59 144 160q0 59 -69 92l-1.5 1.5t-1.5 0.5v239q81 -11 142.5 -42t95 -68.5t54 -84t26.5 -80t6 -63.5 q0 -60 -18.5 -113t-41.5 -86t-65.5 -67.5t-67 -49.5t-69.5 -40l170 -237q25 47 39 95.5t20 125.5h270q-27 -131 -59.5 -218.5t-93.5 -183.5q88 -63 159 -63q17 0 33 2v-250q-62 -4 -78 -4q-98 0 -162.5 30t-127.5 87q-90 -68 -169 -96.5t-173 -36.5v251q93 8 172 60 l-244 332q-20 -12 -31.5 -19t-36 -27.5t-39 -40.5t-27 -51t-12.5 -65q0 -142 164 -189v-251q-53 5 -74.5 8t-58 13.5t-71.5 27.5q-107 55 -172.5 159.5t-65.5 229.5z" />
<glyph unicode="'" horiz-adv-x="512" d="M111 1395q0 69 48 104t105 35q51 0 95 -31t44 -100q0 -19 -4 -33l-108 -534h-64l-112 512q-4 20 -4 47z" />
<glyph unicode="(" horiz-adv-x="724" d="M129 539q0 103 13.5 198.5t47 209t99.5 240t164 259.5h262q-87 -143 -143.5 -277.5t-82.5 -254t-34.5 -209.5t-8.5 -195q0 -512 269 -870h-275q-71 100 -123 191.5t-97 203t-68 238.5t-23 266z" />
<glyph unicode=")" horiz-adv-x="724" d="M10 -358q63 107 111 215q74 166 114.5 328.5t40.5 383.5q0 253 -67.5 480t-198.5 397h271q51 -73 81 -119.5t80 -140.5t78 -177.5t50 -203.5t22 -246q0 -208 -45 -364.5t-129 -315.5q-66 -125 -150 -237h-258z" />
<glyph unicode="*" horiz-adv-x="811" d="M37 1128l53 162l219 -76v232h174v-232l217 76l56 -162l-219 -75l139 -185l-139 -104l-144 192l-139 -192l-139 104l139 185z" />
<glyph unicode="," horiz-adv-x="512" d="M80 -236q42 21 73.5 48t48.5 48.5t29.5 52.5t16 45t8.5 42h-156v307h303v-268q-2 -40 -4 -64.5t-17.5 -72t-43.5 -86.5q-89 -121 -258 -164v112z" />
<glyph unicode="-" horiz-adv-x="768" d="M82 530v244h602v-244h-602z" />
<glyph unicode="." horiz-adv-x="512" d="M102 0v305h304v-305h-304z" />
<glyph unicode="/" horiz-adv-x="937" d="M41 0l602 1446h258l-602 -1446h-258z" />
<glyph unicode="0" horiz-adv-x="1150" d="M51 739q0 30 0.5 53t5 76t12.5 95.5t25.5 102t41.5 106t62.5 96.5t86.5 84.5t116 59t148 30.5v-246q-62 -14 -103 -47q-114 -99 -114 -414q0 -268 63 -391q53 -97 154 -115v-249q-121 7 -196 43.5t-130 97.5q-34 38 -60 81.5t-53.5 115t-43 179t-15.5 242.5zM602 -20v249 q63 11 107 54t67 113.5t33 150.5t10 182q0 433 -217 467v246q123 -5 199 -41q297 -140 297 -672q0 -115 -12 -211t-45.5 -192.5t-87.5 -166t-143.5 -118.5t-207.5 -61z" />
<glyph unicode="1" horiz-adv-x="1150" d="M156 958v216q183 -9 274 57v-273h-274zM485 0v1292q2 5 7.5 14.5t7.5 14.5q16 36 26 94h254v-1415h-295z" />
<glyph unicode="2" horiz-adv-x="1150" d="M86 0v256h973v-256h-973zM94 903q0 66 8 125q5 62 41 143q30 65 73.5 113.5t83.5 75t91.5 44t84.5 23t75 9.5v-267q-25 -3 -41 -6.5t-41.5 -19t-46.5 -41.5q-47 -61 -47 -172q0 -23 2 -39zM168 309q258 212 324.5 271t125.5 125q130 154 130 280q0 41 -11.5 73 t-25.5 49.5t-37.5 31.5t-36.5 18.5t-33 9.5v269q57 -2 112.5 -15.5t114 -45.5t102 -79t71.5 -123.5t28 -171.5q0 -70 -15 -134t-48 -124t-69.5 -110t-97.5 -109.5t-112 -104t-131 -110.5h-391z" />
<glyph unicode="3" horiz-adv-x="1150" d="M74 492l278 12q-3 -19 -0.5 -45.5t5 -55t16 -58t33 -54.5t56 -43.5t85.5 -24.5v-243q-121 4 -232 55q-48 24 -86 56.5t-62 63.5t-42 73.5t-27 71.5t-14.5 73t-7 63.5t-2.5 55.5zM106 967q1 40 3 65.5t12 77t26 87.5t49 81.5t78 75t115 53t158 29.5v-236 q-39 -7 -68.5 -22.5t-46.5 -38.5t-28 -43t-15.5 -51.5t-5.5 -48t-2 -46.5zM465 627v241q60 -6 78 -6q89 0 145.5 43.5t56.5 126.5q0 14 -3 29.5t-14.5 46.5t-44.5 55t-83 33v242q220 -11 332 -133q90 -101 90 -250q0 -210 -178 -291q58 -13 103 -44.5t69.5 -67t40 -79 t20 -76t4.5 -63.5q0 -57 -15 -114t-51 -116t-89 -105t-137.5 -78t-188.5 -39v239q89 14 136.5 75.5t47.5 137.5q0 34 -10.5 66.5t-34 64t-70 51t-110.5 19.5q-28 0 -94 -8z" />
<glyph unicode="4" horiz-adv-x="1150" d="M45 303v295l528 737v-401l-278 -391h278v-240h-528zM627 0v1411h278v-868h191v-240h-191v-303h-278z" />
<glyph unicode="5" horiz-adv-x="1150" d="M41 424l287 12q3 -30 6.5 -48t17 -50t34 -52t60 -38t93.5 -23v-243q-91 2 -166 23.5t-124.5 52.5t-88 76.5t-58.5 83t-35 85.5t-19 70.5t-7 50.5zM98 633l80 465h250l-43 -197q68 43 154 64v-234q-17 -1 -35 -4.5t-46.5 -13t-54 -30.5t-41.5 -50h-264zM186 1151l45 262 h799l-26 -262h-818zM594 -16v245q60 15 101.5 49.5t59.5 77t24.5 74.5t6.5 62q0 198 -192 239v240q116 7 210 -30.5t152 -105t88.5 -153.5t30.5 -182q0 -66 -13.5 -130t-48.5 -131.5t-88 -119.5t-138.5 -89.5t-192.5 -45.5z" />
<glyph unicode="6" horiz-adv-x="1150" d="M72 694q0 382 166 574q126 143 331 164v-234q-26 -6 -42 -11t-43 -23.5t-50 -47.5q-82 -101 -92 -287q23 27 41.5 45t57 45t92.5 41.5t120 14.5q111 0 198.5 -42.5t138.5 -112t77.5 -151.5t26.5 -169q0 -61 -12 -123.5t-45 -133t-83.5 -124.5t-135.5 -92.5t-193 -44.5 v243q198 46 198 264q0 64 -20 113.5t-53.5 76.5t-72 40.5t-79.5 13.5q-93 0 -163 -63t-70 -189q0 -24 3 -48t15 -59t32.5 -62.5t60.5 -52t93 -34.5v-243q-40 2 -67.5 6t-77 17t-98 43.5t-90.5 76.5q-46 50 -79 111t-59 180.5t-26 277.5zM625 1202v234q93 -2 166.5 -24.5 t120 -57t80 -84.5t49.5 -98.5t26 -106.5l-270 -16q-11 68 -46.5 108.5t-125.5 44.5z" />
<glyph unicode="7" horiz-adv-x="1150" d="M100 1147v262h936v-262h-936zM274 0q23 280 91 489q58 181 157.5 355t163.5 250h295q-146 -164 -254 -416q-137 -327 -137 -678h-316z" />
<glyph unicode="8" horiz-adv-x="1150" d="M59 424q0 62 14.5 115t33 85.5t49.5 62.5t50 43t48 30q-71 38 -111.5 112t-40.5 164q0 55 14.5 108t48.5 104t84.5 90t127.5 66t172 34v-236q-84 -15 -131 -60t-47 -118q0 -80 52.5 -128t143.5 -48q90 0 151.5 45.5t61.5 140.5q0 65 -42.5 111.5t-135.5 56.5v236 q140 -6 242 -58q205 -104 205 -340q0 -91 -36.5 -165.5t-117.5 -114.5q25 -15 40 -24.5t47.5 -40t52 -63t36 -87t16.5 -117.5q0 -193 -127.5 -315.5t-357.5 -132.5v235q20 4 36.5 7.5t52.5 19t60 36.5t44 61t20 91q0 96 -65.5 155.5t-174.5 59.5q-120 0 -181.5 -65.5 t-61.5 -151.5t57 -145t160 -68v-235q-148 8 -242 51q-124 56 -186 160.5t-62 232.5z" />
<glyph unicode="9" horiz-adv-x="1150" d="M61 918q0 71 15.5 140.5t52 136.5t89 118.5t132.5 84.5t178 36v-244q-50 -10 -87 -34.5t-57.5 -52.5t-32.5 -64t-15.5 -63t-3.5 -54q0 -112 63.5 -176t159.5 -64q95 0 164 64t69 182q0 21 -2.5 44.5t-15 61.5t-32.5 67.5t-60 54.5t-94 32v246q246 -21 371.5 -190.5 t125.5 -524.5q0 -375 -163 -569q-37 -44 -78 -74.5t-88.5 -47.5t-81 -25t-86.5 -17v233q205 45 229 369q-25 -30 -46.5 -50t-59 -45.5t-89.5 -39t-116 -13.5q-106 0 -191.5 39.5t-139 106t-82 152t-28.5 180.5zM86 350l270 19q6 -40 21 -69.5t30.5 -44.5t41 -25t40 -12 t39.5 -5v-231q-191 0 -307 98q-106 92 -135 270z" />
<glyph unicode=":" horiz-adv-x="598" d="M188 0v303h306v-303h-306zM188 711v303h306v-303h-306z" />
<glyph unicode=";" horiz-adv-x="598" d="M174 -236q158 62 164 236h-152v299h308v-246q-1 -63 -14.5 -116.5t-32 -90t-48.5 -68t-54.5 -49.5t-61 -34.5t-57 -23t-52.5 -15.5v108zM186 709v299h308v-299h-308z" />
<glyph unicode="?" horiz-adv-x="1150" d="M18 985q3 39 6 67.5t11.5 70t19.5 72.5t31 68.5t46 65t64.5 56t85.5 47.5t110 32t138 17v-250q-203 -11 -219 -246h-293zM422 0v301h305v-301h-305zM422 426q7 23 8.5 38.5t1.5 70.5q0 46 17 96q25 66 62.5 106.5t139.5 120.5q23 18 34.5 29t32 35t30.5 54.5t10 67.5 q0 43 -14 76.5t-31.5 51.5t-46 31.5t-44.5 17.5t-40 8v254q77 -3 142.5 -18.5t111.5 -38t83 -55t60 -63t40 -68t24.5 -65t12 -58.5t5 -43t0.5 -25q0 -41 -7 -77t-27 -85.5t-66.5 -104.5t-116.5 -110q-62 -49 -84 -72.5t-34 -61.5t-15 -112h-289z" />
<glyph unicode="A" horiz-adv-x="1366" d="M-12 0l497 1446h371l512 -1446h-367l-94 307h-405l78 264h247l-104 344q-28 111 -49 213q-20 -105 -47 -204l-273 -924h-366z" />
<glyph unicode="B" horiz-adv-x="1366" d="M115 0v1446h327v-1446h-327zM494 0v268h110q140 2 199 9.5t96 35.5q25 19 46.5 56.5t21.5 87.5q0 55 -33 104q-22 31 -56.5 47t-58.5 19t-69 4h-256v260h206q123 0 164 18q9 5 19 12t24.5 21.5t23.5 38t9 51.5q0 46 -27 84q-22 28 -59 43t-62.5 17t-66.5 2h-231v268h286 q65 -1 108 -5t113 -24.5t121 -58.5q62 -43 101 -114t39 -163q0 -59 -18 -109.5t-39 -80t-55.5 -57t-50 -36t-40.5 -20.5q241 -109 241 -352q0 -143 -75 -248q-34 -47 -77.5 -80t-79.5 -50.5t-90.5 -28t-83 -13.5t-85.5 -6h-315z" />
<glyph unicode="C" horiz-adv-x="1449" d="M63 725q0 107 23 208.5t76 198t132 169.5t199.5 120t268.5 52v-269q-348 -34 -348 -497q0 -119 30 -209.5t81 -143t110.5 -79.5t126.5 -31v-275q-176 8 -303 66q-78 37 -146.5 97t-125.5 144.5t-90.5 200.5t-33.5 248zM817 -31v275q62 8 111 29.5t78 48t49 60.5t28 63.5 t11 60.5l342 -21q-41 -235 -189 -364q-41 -36 -89.5 -63.5t-88 -42t-92.5 -25t-82 -14t-78 -7.5zM817 1204v269q166 -7 283 -60q52 -24 96 -55.5t73.5 -61.5t54.5 -67.5t38.5 -65t25.5 -63t16 -51.5t9 -41l-330 -25q-4 24 -12.5 47.5t-28 54t-47 54t-74 42t-104.5 23.5z" />
<glyph unicode="D" horiz-adv-x="1409" d="M113 0v1448h327v-1448h-327zM494 0v268q31 -1 58 -1q74 1 121 5q64 6 113 23q59 20 101 65.5t64.5 108t32 127.5t9.5 139q0 324 -190 408q-50 21 -113 27t-196 8v270h157q204 -3 333 -63.5t216 -182.5q139 -199 139 -479q0 -159 -50 -301.5t-152 -247.5 q-45 -46 -99.5 -79t-99.5 -50t-108 -27.5t-99 -13t-100 -4.5h-137z" />
<glyph unicode="E" d="M115 0v1446h325v-1446h-325zM496 0v268h690v-268h-690zM496 633v260h622v-260h-622zM496 1182v264h675v-264h-675z" />
<glyph unicode="F" horiz-adv-x="1193" d="M111 0v1446h325v-1446h-325zM489 608v258h596v-258h-596zM489 1178v268h687v-268h-687z" />
<glyph unicode="G" horiz-adv-x="1536" d="M74 707q0 156 38.5 285t103.5 218t153.5 151t187 91t205.5 31v-275q-44 -4 -87.5 -18.5t-92 -48.5t-84.5 -84t-60 -132.5t-24 -185.5q0 -149 39 -260q16 -44 38 -79t43.5 -58.5t49.5 -41t48.5 -27t49.5 -16.5t43 -9t37 -4v-279h-26q-99 0 -184 20q-97 23 -166 65.5 t-124 102.5t-89.5 126.5t-57.5 142t-32 145.5t-9 140zM786 543v262h652l-13 -803h-229l-16 172q-45 -59 -96.5 -100t-103.5 -61.5t-85.5 -29t-77.5 -14.5v275q28 4 48 7.5t51 13.5t54.5 22.5t51.5 35.5t49.5 52t41.5 72t34 96h-361zM817 1208v277q56 -3 88 -5.5t84 -14.5 t103 -33q286 -115 340 -441l-318 -18q-20 66 -48.5 110.5t-68 69.5t-81 37t-99.5 18z" />
<glyph unicode="H" horiz-adv-x="1409" d="M113 0v1448h327v-1448h-327zM494 627v270h473v551h325v-1448h-325v627h-473z" />
<glyph unicode="I" horiz-adv-x="555" d="M113 0v1446h325v-1446h-325z" />
<glyph unicode="J" horiz-adv-x="1067" d="M10 455v110h316q-2 -51 -2 -93v-39q2 -55 14 -92t41 -58.5t82 -30.5v-279q-146 11 -228 47q-45 20 -80.5 48t-58.5 54.5t-39.5 64t-24.5 65.5t-13 70.5t-5.5 66.5t-1.5 66zM516 -27v279q35 4 60.5 18t38.5 30.5t20.5 41.5t9 40t2.5 38v1026h326v-1002q-1 -35 -1.5 -54 t-5.5 -59.5t-13 -67t-24 -64.5t-39 -65.5t-59 -56.5t-81 -50q-15 -8 -40 -18.5t-81 -22.5t-113 -13z" />
<glyph unicode="K" horiz-adv-x="1366" d="M113 0v1446h327v-1446h-327zM492 600v356l456 490h422l-661 -655l694 -791h-404z" />
<glyph unicode="L" horiz-adv-x="1150" d="M115 0v1448h327v-1448h-327zM494 0v272h634v-272h-634z" />
<glyph unicode="M" horiz-adv-x="1705" d="M115 0v1446h305v-1446h-305zM473 782v664h96q92 -353 176 -655q49 -179 67 -253t40 -192q35 172 113 473q106 418 161 627h107v-649l-217 -797h-326zM1286 0v1446h303v-1446h-303z" />
<glyph unicode="N" horiz-adv-x="1409" d="M117 0v1350l311 -523l14 -827h-325zM117 1446h313l862 -1446h-307zM969 1446h323v-1340l-311 525z" />
<glyph unicode="O" horiz-adv-x="1579" d="M68 731q0 113 24 217.5t77.5 200.5t132.5 168t196 117.5t260 52.5v-275q-99 -12 -170 -60.5t-108 -119.5t-53.5 -144.5t-16.5 -154.5q0 -228 110 -362q48 -59 104.5 -85t133.5 -34v-279q-136 2 -250.5 46t-194.5 117t-136 169.5t-82.5 204t-26.5 221.5zM813 -27v279 q80 10 138 35.5t106 85.5q63 75 84.5 163t21.5 193q0 216 -90.5 338.5t-259.5 144.5v275q121 -8 222.5 -41t171 -81t123.5 -112.5t86 -129.5t52.5 -138t27.5 -133t7 -119q0 -214 -82 -381.5t-239 -267.5t-369 -111z" />
<glyph unicode="P" horiz-adv-x="1280" d="M115 0v1446h327v-1446h-327zM496 500v268h104h25.5h26t22.5 0.5t24 1t20 1.5t22 3t19 4.5t21 5.5q43 14 72.5 43t40.5 63t14.5 54t3.5 37q0 100 -69 154q-39 30 -81 37.5t-126 9.5h-139v264h155q74 -1 114 -3t101 -10.5t110 -28t91 -50.5q74 -55 121 -152t47 -233 q0 -116 -47 -218t-135 -165q-40 -28 -80 -44.5t-95 -25t-95.5 -11t-123.5 -5.5h-163z" />
<glyph unicode="Q" horiz-adv-x="1579" d="M68 721q0 163 48 302t137.5 241t226.5 159.5t306 57.5q163 0 298.5 -57.5t227 -158t141.5 -237.5t50 -295q0 -234 -102 -426l-264 217q24 90 24 172q0 152 -33 250q-37 117 -127 188.5t-215 71.5q-177 0 -277.5 -133t-100.5 -346q0 -215 98 -348t272 -133q26 0 88 8 l256 -209q-160 -78 -352 -78q-136 0 -252 41.5t-197.5 113.5t-139.5 168t-85.5 205.5t-27.5 225.5zM799 379l174 213l543 -449l-175 -209z" />
<glyph unicode="R" horiz-adv-x="1366" d="M111 0v1446h325v-1446h-325zM489 532v263h150q33 0 52.5 0.5t54.5 4.5t57 11t49.5 22t43.5 36t27 53.5t11 74.5q0 37 -10 66t-23 47.5t-38.5 31.5t-43 19t-51 9t-48.5 3.5t-48 0.5h-183v272h232q69 -1 106.5 -3t94 -9.5t101.5 -26t85 -47.5q143 -106 143 -313 q0 -156 -77.5 -246.5t-180.5 -104.5q23 -7 36 -12t37 -17.5t44 -33.5t37 -51q23 -40 33 -84t37 -213q17 -102 40 -164t64 -121h-344q-19 33 -26.5 47.5t-22 57t-23.5 96.5q-5 25 -12 78.5t-12 78.5q-10 48 -26 80.5t-34.5 51t-48.5 28t-57.5 12t-71.5 2.5h-154z" />
<glyph unicode="S" horiz-adv-x="1366" d="M55 457l324 18q3 -36 8 -61t22.5 -58t45.5 -55t79.5 -40t122.5 -25l2 -273q-123 0 -224.5 25t-187 80t-136 154t-56.5 235zM100 1047q0 72 21 134.5t45.5 98t65.5 69t57.5 42.5t44.5 24q125 59 323 64v-262q-227 0 -227 -144q0 -35 12.5 -59.5t40 -40.5t51.5 -24.5 t68 -20.5l221 -51q43 -11 68 -17.5t68.5 -20.5t70.5 -26.5t64.5 -33t61.5 -43t50.5 -54t41 -67.5t24.5 -83t10 -100q0 -116 -43.5 -206t-121.5 -145.5t-179 -84.5t-223 -31v273q235 13 235 163q0 31 -11 56.5t-26 40.5t-40 28t-42 18.5t-43 12.5l-290 68q-30 8 -48 13.5 t-53.5 18t-59.5 24t-57.5 31.5t-56.5 41.5t-48 52.5t-40 65.5t-25 79.5t-10 96zM713 1214v265q114 -2 225.5 -35t189.5 -111q107 -107 132 -311l-322 -25q-8 101 -56.5 152t-168.5 65z" />
<glyph unicode="T" horiz-adv-x="1193" d="M0 1178v268h379v-268h-379zM430 0v1446h328v-1446h-328zM811 1178v268h381v-268h-381z" />
<glyph unicode="U" horiz-adv-x="1366" d="M98 526v920h328v-885q0 -39 1 -62.5t5.5 -59.5t13 -58t25 -49t40 -43t60 -28.5t82.5 -16.5v-279q-175 0 -307 62q-50 23 -88.5 53.5t-64 60.5t-43.5 72t-27.5 73.5t-15 81t-7 78.5t-2.5 80zM707 -35v279q47 5 83.5 18t60 28t40 42t25 48.5t13 59.5t5 62t0.5 69v875h328 v-875q1 -18 1 -36.5t-1 -38.5q-2 -38 -3.5 -77.5t-10 -79.5t-20 -78t-33.5 -73.5t-50.5 -67.5t-71 -58.5t-94 -47t-121 -33t-151.5 -16.5z" />
<glyph unicode="V" horiz-adv-x="1323" d="M0 1446h354l459 -1446h-307zM692 557l277 889h350l-477 -1362z" />
<glyph unicode="W" horiz-adv-x="1835" d="M-2 1446h326l378 -1446h-296zM586 653l174 793h311l354 -1446h-295l-210 956l-189 -858zM1315 678l198 768h322l-381 -1350z" />
<glyph unicode="X" horiz-adv-x="1323" d="M-6 0l450 702l185 -286l-267 -416h-368zM33 1446h366l928 -1446h-369zM694 1090l228 356h366l-411 -643z" />
<glyph unicode="Y" horiz-adv-x="1280" d="M-10 1446h362l449 -905v-541h-326v541zM670 926l260 520h360l-456 -850z" />
<glyph unicode="Z" horiz-adv-x="1323" d="M43 0v242l1026 1206h184v-254l-1011 -1194h-199zM86 1176v272h909l-229 -272h-680zM313 0l224 266h731v-266h-955z" />
<glyph unicode="[" horiz-adv-x="768" d="M129 -348v1794h303v-1794h-303zM487 -111h250v-237h-250v237zM487 1206v240h250v-240h-250z" />
<glyph unicode="]" horiz-adv-x="768" d="M31 -111h252v-237h-252v237zM31 1202v244h252v-244h-252zM336 -348v1794h301v-1794h-301z" />
<glyph unicode="_" horiz-adv-x="1024" d="M-20 -154h1064v-102h-1064v102z" />
<glyph unicode="`" horiz-adv-x="598" d="M72 1542h352l100 -303h-200z" />
<glyph unicode="a" horiz-adv-x="1193" d="M53 319q0 54 13 100t32.5 77.5t50 58t56.5 42t63 29t58 19t51 12.5q21 5 162.5 30.5t169.5 31.5v-217q-16 -4 -101.5 -22t-99.5 -21q-69 -20 -102 -49.5t-33 -79.5q0 -53 39.5 -86t107.5 -33q106 0 189 61q-7 -65 -7 -106q0 -9 3.5 -62.5t3.5 -62.5q-96 -78 -273 -78 q-163 0 -273 95.5t-110 260.5zM115 752q12 189 134.5 287t340.5 98q222 0 340 -86q33 -23 58 -50t40 -59t24.5 -57.5t14 -64.5t6 -60.5t2.5 -63.5v-477q0 -84 7.5 -127t33.5 -90h-336q-22 53 -24 164v565q1 25 0 40t-9 41t-24.5 40.5t-50 26.5t-82.5 12q-17 0 -33 -1.5 t-45 -9t-50 -21t-38 -41.5t-18 -66h-291z" />
<glyph unicode="b" d="M115 0v1448h319v-1448h-319zM485 31v258q19 -17 31.5 -27t43.5 -21.5t67 -11.5q52 0 92.5 21.5t65 55.5t40 81.5t21.5 95.5t6 101q0 142 -57 219q-58 80 -156 80q-39 0 -74.5 -13t-46 -20.5t-33.5 -26.5v264q114 54 217 54q90 0 167 -30t132 -82.5t93.5 -124t57.5 -156 t19 -177.5q0 -125 -30.5 -234t-88 -192.5t-148.5 -131.5t-204 -48q-116 0 -215 66z" />
<glyph unicode="c" horiz-adv-x="1150" d="M68 551q0 121 31 221t82 166.5t120.5 112.5t143 68t151.5 24v-256q-201 -32 -201 -328q0 -155 62 -237q52 -67 139 -82v-271q-115 3 -207 39.5t-151 92.5t-98 132t-55.5 154.5t-16.5 163.5zM649 -29v269q84 13 123 57t57 131l312 -14q-9 -64 -29.5 -122.5t-60 -116 t-93.5 -100.5t-133.5 -71t-175.5 -33zM649 887v258q203 -5 334 -121q42 -37 71 -78.5t44.5 -85.5t21.5 -68.5t13 -64.5l-310 -16q-19 91 -60.5 126.5t-113.5 49.5z" />
<glyph unicode="d" d="M63 553q0 264 140 426t344 162q109 0 205 -54v-264q-20 17 -32.5 26t-42.5 19.5t-65 10.5q-98 0 -161.5 -88t-63.5 -238q0 -37 5 -75t20 -83t38.5 -79t65.5 -57t96 -23q39 0 70.5 11t43 20t26.5 24v-266q-3 -1 -19 -8.5t-23.5 -10.5t-24.5 -9.5t-30.5 -10t-32 -7.5 t-38 -6t-39.5 -2q-209 0 -345.5 159.5t-136.5 422.5zM803 2v1444h317v-1444h-317z" />
<glyph unicode="e" d="M68 551q0 171 71.5 305.5t202 210.5t297.5 76q138 0 242.5 -53.5t169.5 -141.5q129 -170 129 -485h-725q-10 47 -13 115q0 68 13 124h393q-12 68 -45 115q-28 37 -72.5 57.5t-95.5 20.5q-47 0 -88.5 -16t-78.5 -51.5t-59 -102t-22 -156.5q0 -50 7.5 -96.5t26 -92.5 t46.5 -79.5t73.5 -54.5t102.5 -21q147 0 205 121l319 -22q-37 -97 -96 -170q-77 -92 -191.5 -138.5t-244.5 -46.5q-137 0 -247 46.5t-178.5 127.5t-105 185t-36.5 223z" />
<glyph unicode="f" horiz-adv-x="724" d="M20 870v240h154v12q0 83 14 138q14 59 52.5 101.5t105.5 62t172 22.5h187v-240q-109 0 -133.5 -1t-39.5 -7q-39 -20 -38 -88h211v-240h-211v-870h-320v870h-154z" />
<glyph unicode="g" horiz-adv-x="1280" d="M63 598q0 120 36.5 222t99.5 172t149 109.5t184 39.5q150 0 261 -105v-248q-16 18 -25.5 28t-33 28.5t-53.5 27.5t-65 9q-60 0 -113.5 -27.5t-91.5 -91.5t-38 -154q0 -123 66 -197.5t165 -74.5q113 0 189 96v-282q-65 -41 -121.5 -61.5t-136.5 -20.5q-113 0 -204.5 43 t-149 116.5t-88 168t-30.5 202.5zM121 -18h338q17 -51 59 -76q52 -27 119 -27q43 0 77 9t55.5 22t36.5 35t23 39.5t12 44.5t4.5 42t0.5 38v1001h317v-958q-2 -104 -7 -154.5t-23 -99.5q-25 -66 -72.5 -116.5t-101 -78.5t-120 -45.5t-120.5 -23t-111 -5.5q-301 0 -418 166 q-45 64 -69 187z" />
<glyph unicode="h" d="M115 0v1448h315v-1448h-315zM481 799v243q126 99 273 99q131 0 225 -70q33 -24 58 -53t39.5 -63t23.5 -61t13 -65t5 -56t2 -52v-721h-315v631q2 21 0 47.5t-4.5 53t-14 51.5t-28 44.5t-47 31t-70.5 11.5q-39 0 -73.5 -13.5t-50 -25.5t-36.5 -32z" />
<glyph unicode="i" horiz-adv-x="555" d="M117 0v1110h317v-1110h-317zM117 1167v281h317v-281h-317z" />
<glyph unicode="j" horiz-adv-x="555" d="M-66 -88q109 0 146.5 26t36.5 101v1069h317v-1034q0 -51 -0.5 -75t-2 -63.5t-5.5 -60t-11 -49t-17.5 -46t-26.5 -36.5t-37 -35q-40 -31 -109 -46t-125 -17h-87h-79v266zM117 1165v281h317v-281h-317z" />
<glyph unicode="k" horiz-adv-x="1193" d="M115 0v1446h317v-1446h-317zM489 434v359l283 317h410l-471 -463l503 -647h-403z" />
<glyph unicode="l" horiz-adv-x="555" d="M119 0v1446h315v-1446h-315z" />
<glyph unicode="m" horiz-adv-x="1835" d="M115 0v1108h319v-1106zM487 815v240q94 84 236 84q107 0 187.5 -47t115.5 -140q17 25 29.5 41t45 47t65.5 49.5t86 34t112 15.5q158 0 260 -99q29 -27 47.5 -59t28.5 -60.5t15.5 -81t6.5 -91.5t2 -121v-625h-319v635q-1 19 -1 23.5t-1 25t-3.5 29t-6 28t-10 29 t-14.5 24.5t-20 23t-27 17t-34.5 12.5t-42.5 3.5q-33 0 -59 -8.5t-43 -21t-29 -33t-18.5 -38t-10.5 -42.5t-4.5 -39.5t-1.5 -36.5v-633h-319v578q0 94 -6.5 138t-30.5 77q-40 57 -125 57q-10 0 -18.5 -0.5t-17 -2.5t-14.5 -3t-13.5 -4t-11 -4.5t-10.5 -5.5t-9 -5t-9 -5.5 t-8 -4.5z" />
<glyph unicode="n" d="M115 0v1108h319v-1108h-319zM487 782v252q63 46 118.5 69t135.5 23q137 0 234 -71q41 -29 70 -68t43.5 -73t23 -82t10 -75.5t2.5 -74.5v-682h-321v668q0 21 -2 40t-11.5 48.5t-26 50t-48.5 36t-76 15.5q-93 0 -152 -76z" />
<glyph unicode="o" horiz-adv-x="1280" d="M63 555q0 115 34.5 215.5t101 181t173.5 131.5t244 62v-254q-229 -31 -229 -334q0 -70 11.5 -125t33.5 -89t44 -57t52 -35.5t47.5 -17.5t40.5 -8v-260q-106 6 -193 36t-143.5 72t-98.5 99.5t-64 109.5t-35 110.5t-16 94t-3 68.5zM670 -35v260q21 5 35 9t39.5 15.5 t43 26.5t39 41t35 59t22.5 82.5t9 108.5q0 147 -58 229.5t-165 94.5v254q118 -7 213.5 -45.5t156.5 -96t102 -132t58 -150t17 -154.5q0 -112 -34 -214t-99.5 -185.5t-172 -137.5t-241.5 -65z" />
<glyph unicode="p" d="M115 -348v1458h317v-1458h-317zM485 27v266q17 -16 29.5 -25t42 -18.5t66.5 -9.5q105 0 167 88.5t62 238.5q0 147 -56 232.5t-159 85.5q-92 0 -152 -60v248q89 72 228 72q210 0 335.5 -161t125.5 -425q0 -137 -39 -249.5t-105 -184.5t-151.5 -111t-180.5 -39 q-106 0 -213 52z" />
<glyph unicode="q" d="M66 557q0 135 39.5 247t107 184.5t154.5 112.5t184 40q50 0 92.5 -10.5t59.5 -18.5t49 -27v-258q-53 56 -136 56q-106 0 -172 -90q-59 -84 -59 -242q0 -204 107 -279q53 -39 116 -39q80 0 144 64v-272q-41 -17 -62 -25t-65.5 -17.5t-87.5 -9.5q-98 0 -179 35.5t-134 93.5 t-89.5 135t-52.5 157t-16 163zM805 -350v1458h317v-1458h-317z" />
<glyph unicode="r" horiz-adv-x="768" d="M117 0v1108h321v-1108h-321zM494 766v276q64 91 219 91q17 0 57 -5v-288q-30 6 -68 6q-87 0 -132 -20.5t-76 -59.5z" />
<glyph unicode="s" horiz-adv-x="1150" d="M66 379l303 10q7 -41 15 -66t26 -50t50.5 -40.5t82.5 -25.5v-238q-125 10 -214.5 41.5t-145 85t-83.5 122.5t-34 161zM100 791q0 136 82 225q38 40 85.5 67t104 39t86.5 16t83 7v-232q-138 -8 -138 -92q0 -38 28 -54.5t110 -39.5l164 -37q142 -33 209 -69 q169 -89 169 -283q0 -106 -53 -187t-156 -128q-118 -54 -276 -54v234q164 8 164 106q0 32 -22.5 54.5t-48 32t-70.5 20.5l-207 51q-38 10 -58.5 16.5t-58.5 21.5t-60.5 29.5t-52 40t-45.5 54.5t-27.5 71t-11.5 91zM598 911v234q222 -10 340 -121q100 -95 115 -256l-299 -16 q-1 38 -14.5 67.5t-28.5 44.5t-42 26.5t-37.5 14t-33.5 6.5z" />
<glyph unicode="t" horiz-adv-x="724" d="M18 872v238h154v201h317v-201h209v-238h-209v-460v-19q0 -91 18 -117q20 -30 107 -30q35 0 84 4v-246q-161 -14 -211 -14q-62 0 -111 10t-81.5 24.5t-55.5 40.5t-35.5 48.5t-19.5 59t-9 61.5t-3 65v573h-154z" />
<glyph unicode="u" d="M115 455v653h319v-639q2 -69 8.5 -105.5t28.5 -66.5q25 -33 62.5 -48.5t72.5 -15.5q16 0 31 2t28.5 7t23 9.5t21 12t16.5 11t15 11.5t11 9v-236q-63 -41 -123.5 -64.5t-141.5 -23.5q-79 0 -162 30.5t-135 104.5q-26 35 -41.5 76t-22.5 94.5t-8.5 85t-2.5 93.5zM805 0 v1108h317v-1108h-317z" />
<glyph unicode="v" horiz-adv-x="1067" d="M0 1110h338l340 -1110h-293zM567 549l162 561h336l-352 -1040z" />
<glyph unicode="w" horiz-adv-x="1579" d="M-14 1110h323l289 -1110h-289zM508 563l145 547h279l287 -1110h-242l-117 461q-43 167 -67 303q-42 -197 -164 -682zM1133 549l141 561h325l-325 -1110z" />
<glyph unicode="x" horiz-adv-x="1110" d="M-23 0l756 1110h357l-756 -1110h-357zM-14 1110h366l160 -229l-180 -263zM578 266l182 264l368 -530h-368z" />
<glyph unicode="y" horiz-adv-x="1067" d="M-2 1110h346l330 -1173q-20 -49 -34 -80t-32.5 -62t-35 -48.5t-41.5 -34t-51 -24.5t-65.5 -15t-82.5 -9.5t-105 -3.5h-125v252h101q80 0 112 22q25 19 38.5 52.5t13.5 62.5q0 20 -11 57zM569 506l162 604h338l-364 -1081z" />
<glyph unicode="z" horiz-adv-x="1110" d="M47 0v240l797 868h149v-244l-774 -864h-172zM109 852v256h665l-239 -256h-426zM289 0l239 266h500v-266h-739z" />
<glyph unicode="{" horiz-adv-x="724" d="M20 436l3 213q120 1 163 62t43 227v121q1 63 2.5 90.5t8 70.5t22 73t41.5 57q59 65 144.5 80.5t277.5 15.5v-209q-45 0 -68.5 -1t-54 -6.5t-46 -17t-29.5 -33t-19 -53.5q-6 -29 -6 -198q-1 -46 -1.5 -71t-5.5 -68.5t-13.5 -69t-25 -58.5t-40 -53t-60 -36.5t-82.5 -22.5 v-12q136 -14 193 -129q16 -32 23.5 -74t9 -77t2.5 -124q0 -77 0.5 -109t8 -74t19 -54t38.5 -27.5t62.5 -18t94.5 -2.5v-208q-192 0 -277.5 15.5t-144.5 80.5q-26 28 -41.5 57t-22 73t-8 73t-2.5 96v115q-1 81 -9.5 131.5t-31.5 87t-63 51.5t-105 16z" />
<glyph unicode="}" horiz-adv-x="724" d="M23 -152q45 0 68.5 1t54 6.5t46 17t29.5 33t19 53.5q6 43 6 199q0 36 0.5 54.5t3 54t6.5 55t12 50t19 48.5t28 40.5t38.5 36t51.5 24.5t66 16v12q-135 14 -190 129q-16 32 -23.5 73.5t-9 76t-2.5 124.5q0 77 -0.5 109t-8 74t-19 54t-38.5 27.5t-62.5 18t-94.5 2.5v209 q192 0 277 -15.5t144 -80.5q26 -28 41.5 -57t22 -73t8 -73t2.5 -96v-115q1 -81 9.5 -131.5t31 -87.5t62.5 -52t104 -16v-213q-120 -2 -163.5 -63t-43.5 -228v-118q-1 -63 -2.5 -90.5t-8 -70.5t-22 -73t-41.5 -57q-59 -65 -144 -80.5t-277 -15.5v208z" />
<glyph unicode="&#xa1;" horiz-adv-x="598" d="M90 0v483l57 549h209l50 -549v-483h-316zM102 1143v303h304v-303h-304z" />
<glyph unicode="&#xa2;" horiz-adv-x="1150" d="M68 551q0 113 27.5 208t70.5 157.5t101 109t112 71t110 36.5v-291q-30 -31 -47 -56.5t-32 -83t-15 -137.5q0 -104 21.5 -171.5t72.5 -110.5v-299q-137 22 -233.5 103.5t-142 200t-45.5 263.5zM543 -211v1546h157v-1546h-157zM754 -18v290q73 63 75 156l312 -14 q-6 -42 -10.5 -64t-16 -54.5t-31.5 -66.5q-59 -110 -147 -171t-182 -76zM754 854v283q66 -14 121.5 -41t92 -56t66.5 -69t45.5 -69.5t28.5 -70t16.5 -59t8.5 -45.5l-310 -16q-7 59 -17.5 80t-51.5 63z" />
<glyph unicode="&#xa3;" horiz-adv-x="1193" d="M35 207q0 38 12.5 75t39.5 73t77.5 59t118.5 24v-174q-37 -9 -48 -28q-6 -11 -6 -27q0 -18 12.5 -35t41.5 -22v-175q-66 8 -101 23q-78 29 -112.5 87.5t-34.5 119.5zM106 569v193h154q-27 49 -42.5 82t-31.5 93.5t-16 119.5q0 74 29 141.5t83.5 121.5t142.5 87t198 37 v-236q-174 -30 -174 -182q0 -83 55 -180q3 -7 25.5 -43t25.5 -41h258v-193h-190q26 -72 26 -149q0 -53 -16 -125q62 -59 127 -59q61 0 98 47q19 24 28 58t9.5 70.5t-0.5 80.5h258q16 -515 -336 -515q-60 0 -125 20t-100 38.5t-60 36.5q-52 -45 -95 -64.5t-99 -25.5v168 q15 4 23.5 8t19 17t10.5 32q0 18 -14 33.5t-39 21.5v170q44 -9 76 -22q-6 79 -60 159h-248zM676 1204v242q103 -7 182 -40t127 -80t79.5 -111t43.5 -125.5t14 -131.5l-262 -61q-3 133 -41 205.5t-143 101.5z" />
<glyph unicode="&#xa5;" horiz-adv-x="1280" d="M-6 1440h362l445 -899v-541h-326v287h-369v217h369v37l-29 55h-340v217h224zM670 926l256 514h360l-338 -627h217v-217h-334zM854 287v217h311v-217h-311z" />
<glyph unicode="&#xa8;" horiz-adv-x="598" d="M-66 1237v256h285v-256h-285zM385 1237v256h281v-256h-281z" />
<glyph unicode="&#xa9;" horiz-adv-x="1705" d="M125 723q0 154 58.5 290.5t157.5 232t232 151t279 55.5q156 0 293 -58.5t233 -157.5t151 -233.5t54 -281.5q-1 -149 -57.5 -283.5t-153 -231.5t-232.5 -154.5t-288 -57.5q-142 0 -274 54t-232.5 148t-160.5 231.5t-60 295.5zM190 723q0 -183 89 -336t241 -240.5 t332 -87.5q185 0 338 88.5t240 240.5t88 333q1 135 -49.5 257.5t-138 212t-211.5 142.5t-263 53q-138 0 -262 -52.5t-212 -141.5t-140 -211.5t-52 -257.5zM371 723q0 140 60.5 254t175 181t261.5 67q79 0 146.5 -18t118 -51.5t75 -54.5t56.5 -54l-148 -140q-22 23 -39 38 t-49 36.5t-72.5 33t-87.5 11.5q-133 0 -213 -86t-80 -213q0 -134 83 -216.5t212 -82.5q49 0 90.5 11.5t73 32.5t47 34.5t35.5 34.5l148 -133q-161 -179 -396 -179q-149 0 -263 65.5t-174 177t-60 251.5z" />
<glyph unicode="&#xaa;" horiz-adv-x="768" d="M35 963q0 130 104 184q12 7 24.5 12.5t31 11t31 9t40 8.5t41.5 7.5t53 9t58 9.5v-157q-105 -24 -131 -37q-29 -18 -29 -51q0 -29 21.5 -45.5t58.5 -16.5q36 0 80 19v-172q-81 -25 -131 -25q-110 0 -181 64.5t-71 169.5zM72 1219q9 138 94 202q74 60 215 60 q63 0 112.5 -11.5t81.5 -27.5t55 -43t34.5 -49t18 -55t7.5 -51.5t2 -47.5v-297q2 -57 8 -86.5t23 -58.5h-234q-16 38 -18 112v351q0 15 -0.5 22.5t-5 22t-13 22.5t-27 14.5t-44.5 6.5q-35 0 -57.5 -8.5t-31 -24.5t-11 -26.5t-2.5 -26.5h-207z" />
<glyph unicode="&#xab;" horiz-adv-x="894" d="M82 451v256l315 278v-264l-168 -143l168 -140v-252zM471 455v250l317 280v-254l-167 -151l167 -144v-248z" />
<glyph unicode="&#xad;" horiz-adv-x="768" d="M82 530v244h602v-244h-602z" />
<glyph unicode="&#xae;" horiz-adv-x="1705" d="M125 723q0 154 58.5 290.5t157.5 232t232 151t279 55.5q207 0 376 -100t262.5 -267.5t92.5 -365.5q-1 -149 -57.5 -283t-153.5 -231t-232.5 -154t-287.5 -57q-141 0 -273 54t-232.5 148t-161 231.5t-60.5 295.5zM190 723q0 -183 89 -336t241.5 -240.5t333.5 -87.5 q184 0 336.5 88t239.5 240t88 334q1 179 -84.5 331.5t-239 243t-338.5 90.5q-138 0 -262 -52.5t-212 -141.5t-140 -211.5t-52 -257.5zM528 264v930h318q159 -3 217 -23q79 -26 118.5 -88.5t39.5 -132.5q0 -46 -16.5 -84t-34.5 -59t-50.5 -40.5t-43 -23.5t-32.5 -12 q35 -19 52 -32t36.5 -51t28.5 -101q12 -74 18.5 -109.5t21.5 -84.5t36 -89h-223q-30 61 -49 203q-8 54 -13 81.5t-18 54.5t-24.5 36.5t-40.5 18t-59 9.5t-87 1v-404h-195zM723 823h117q32 0 48 0.5t47 6.5t47.5 17t30 34.5t13.5 56.5q0 30 -12 51.5t-26.5 32t-40 16t-40 6 t-39.5 0.5h-145v-221z" />
<glyph unicode="&#xaf;" horiz-adv-x="598" d="M-66 1237v201h732v-201h-732z" />
<glyph unicode="&#xb2;" horiz-adv-x="768" d="M70 518v182h624v-182h-624zM82 1079q0 118 22 181q38 85 111 127.5t141 42.5v-189q-27 -6 -46 -22.5t-26.5 -39t-10.5 -39.5t-3 -34q0 -14 2 -37zM152 754q4 4 12.5 10.5t11.5 9.5q166 129 234.5 212t68.5 155q0 36 -19 65t-48 35v189q26 -1 55.5 -7t68.5 -25t69.5 -48 t51.5 -81t21 -118q0 -115 -60.5 -203t-185.5 -194h-280z" />
<glyph unicode="&#xb3;" horiz-adv-x="768" d="M61 846l197 10q-7 -56 8 -100q9 -28 26 -44.5t29.5 -20.5t32.5 -7v-176q-58 6 -105 22.5t-76.5 37t-51.5 52.5t-32.5 56t-17 62t-8 56.5t-2.5 51.5zM80 1118q4 108 29 162q33 74 101 111.5t144 40.5v-172q-27 -6 -44 -21t-24.5 -38.5t-9.5 -43.5t-2 -51zM303 905v178 q41 -6 62 -6q32 0 55 9t33.5 20.5t16.5 27t6.5 22t0.5 13.5q0 64 -67 91v172q54 -4 97 -19t69.5 -33.5t46 -44.5t29 -47t14.5 -46t5.5 -35.5t0.5 -22.5q0 -119 -90 -176q41 -18 68.5 -47t39 -61.5t15.5 -55.5t4 -45q0 -49 -17.5 -96.5t-51.5 -89.5t-94 -70.5t-136 -34.5v176 q36 9 47 18q45 45 45 97q0 45 -29.5 78.5t-97.5 33.5q-29 0 -72 -6z" />
<glyph unicode="&#xb4;" horiz-adv-x="598" d="M84 1241l92 305h336l-227 -305h-201z" />
<glyph unicode="&#xb7;" horiz-adv-x="512" d="M102 502v305h304v-305h-304z" />
<glyph unicode="&#xb8;" horiz-adv-x="598" d="M150 -485l131 172h-84v215h249v-215l-135 -172h-161z" />
<glyph unicode="&#xb9;" horiz-adv-x="768" d="M113 1112v158q91 -4 149 18v-176h-149zM315 518v817q2 3 5.5 9.5t5.5 9.5q10 24 16 65h180v-901h-207z" />
<glyph unicode="&#xba;" horiz-adv-x="811" d="M37 1106q0 163 97 263.5t245 111.5v-183q-59 -14 -89 -59t-30 -133q0 -161 119 -191v-184q-68 5 -123.5 26.5t-90.5 49.5t-60.5 66t-38 70.5t-20 70t-8.5 56t-1 36.5zM432 731v184q17 5 27 9.5t29.5 19t30.5 33.5t20.5 54.5t9.5 80.5q0 163 -117 186v183 q160 -15 251 -113t91 -256q0 -51 -11 -99.5t-36.5 -97t-64 -86.5t-98 -64.5t-132.5 -33.5z" />
<glyph unicode="&#xbb;" horiz-adv-x="894" d="M106 174v258l168 148l-168 141v252l320 -271v-249zM498 174v260l166 148l-166 137v254l315 -266v-258z" />
<glyph unicode="&#xbf;" horiz-adv-x="1150" d="M90 401q0 94 37 172t123 156q12 11 51.5 44.5t60.5 53.5q45 41 60.5 81.5t15.5 113.5h289q-1 -50 -2.5 -74t-5.5 -62t-12.5 -60t-22.5 -52t-36.5 -55.5t-53.5 -52.5q-15 -13 -55 -43t-60 -48q-88 -76 -88 -165q0 -65 37 -115q42 -57 137 -74v-256q-152 8 -260 64 q-91 48 -153 143.5t-62 228.5zM424 1149v299h303v-299h-303zM618 -33v252q142 8 191 115q0 1 3 8.5t7 20t8 27.5t7 35t2 38h294q-5 -55 -8.5 -86t-17.5 -88t-34 -92t-58 -80.5t-89 -73t-129 -49t-176 -27.5z" />
<glyph unicode="&#xc0;" horiz-adv-x="1366" d="M-12 0l497 1446h371l512 -1446h-367l-94 307h-405l78 264h247l-104 344q-28 111 -49 213q-20 -105 -47 -204l-273 -924h-366zM418 1833h334l45 -256h-193z" />
<glyph unicode="&#xc1;" horiz-adv-x="1366" d="M-12 0l497 1446h371l512 -1446h-367l-94 307h-405l78 264h247l-104 344q-28 111 -49 213q-20 -105 -47 -204l-273 -924h-366zM555 1579l53 254h336l-192 -254h-197z" />
<glyph unicode="&#xc2;" horiz-adv-x="1366" d="M-12 0l497 1446h371l512 -1446h-367l-94 307h-405l78 264h247l-104 344q-28 111 -49 213q-20 -105 -47 -204l-273 -924h-366zM342 1575l178 256h328l174 -256h-234l-106 139l-100 -139h-240z" />
<glyph unicode="&#xc3;" horiz-adv-x="1366" d="M-12 0l497 1446h371l512 -1446h-367l-94 307h-405l78 264h247l-104 344q-28 111 -49 213q-20 -105 -47 -204l-273 -924h-366zM369 1581q2 25 3.5 39.5t6.5 43.5t12 47.5t20.5 42t30.5 37.5t43.5 24t59.5 10q13 0 25.5 -1t32 -5t31.5 -6.5t43 -9.5t48 -11q49 -12 68 -12 q17 0 28.5 5t17 14t7 15t2.5 15h162q-7 -128 -55.5 -190t-139.5 -62q-33 0 -78 10q-7 1 -76.5 19t-85.5 18q-17 0 -28.5 -8.5t-14.5 -15t-8 -19.5h-155z" />
<glyph unicode="&#xc4;" horiz-adv-x="1366" d="M-12 0l497 1446h371l512 -1446h-367l-94 307h-405l78 264h247l-104 344q-28 111 -49 213q-20 -105 -47 -204l-273 -924h-366zM299 1581v256h266v-256h-266zM780 1581v256h267v-256h-267z" />
<glyph unicode="&#xc5;" horiz-adv-x="1366" d="M-12 0l497 1446h371l512 -1446h-367l-94 307h-405l78 264h247l-104 344q-28 111 -49 213q-20 -105 -47 -204l-273 -924h-366zM465 1712q-11 93 50.5 162.5t158.5 69.5q87 0 149 -61t62 -148q0 -88 -62.5 -148.5t-148.5 -60.5q-89 0 -145 56.5t-64 129.5zM586 1726 q3 -35 29 -58t61 -23q33 0 59.5 26.5t26.5 63.5q0 38 -26 63t-62 25q-43 0 -68 -30t-20 -67z" />
<glyph unicode="&#xc6;" horiz-adv-x="1961" d="M-14 0l639 1446h530v-1446h-319v311h-320l109 252h211v654l-506 -1217h-344zM1208 0v268h680v-268h-680zM1208 629v262h625v-262h-625zM1208 1171v275h680v-275h-680z" />
<glyph unicode="&#xc7;" horiz-adv-x="1449" d="M63 725q0 107 23 208.5t76 198t132 169.5t199.5 120t268.5 52v-269q-348 -34 -348 -497q0 -119 30 -209t81 -142.5t110 -79.5t127 -32v-275q-176 8 -303 66q-78 37 -146.5 97t-125.5 144.5t-90.5 200.5t-33.5 248zM565 -485l131 172h-84v215h250v-215l-135 -172h-162z M817 -31v275q62 8 111 29.5t78 48t49 60.5t28 63.5t11 60.5l342 -21q-41 -235 -189 -364q-41 -36 -89.5 -63.5t-88 -42t-92.5 -25t-82 -14t-78 -7.5zM817 1204v269q166 -7 283 -60q52 -24 96 -55.5t73.5 -61.5t54.5 -67.5t38.5 -65t25.5 -63t16 -51.5t9 -41l-330 -25 q-4 24 -12.5 47.5t-28 54t-47 54t-74 42t-104.5 23.5z" />
<glyph unicode="&#xc8;" d="M115 0v1446h325v-1446h-325zM354 1833h334l45 -256h-192zM496 0v268h690v-268h-690zM496 633v260h622v-260h-622zM496 1182v264h675v-264h-675z" />
<glyph unicode="&#xc9;" d="M115 0v1446h325v-1446h-325zM492 1579l53 254h336l-193 -254h-196zM496 0v268h690v-268h-690zM496 633v260h622v-260h-622zM496 1182v264h675v-264h-675z" />
<glyph unicode="&#xca;" d="M115 0v1446h325v-1446h-325zM279 1575l178 256h327l174 -256h-233l-107 139l-100 -139h-239zM496 0v268h690v-268h-690zM496 633v260h622v-260h-622zM496 1182v264h675v-264h-675z" />
<glyph unicode="&#xcb;" d="M115 0v1446h325v-1446h-325zM240 1577v256h266v-256h-266zM496 0v268h690v-268h-690zM496 633v260h622v-260h-622zM496 1182v264h675v-264h-675zM721 1577v256h266v-256h-266z" />
<glyph unicode="&#xcc;" horiz-adv-x="555" d="M12 1833h334l45 -256h-192zM113 0v1446h325v-1446h-325z" />
<glyph unicode="&#xcd;" horiz-adv-x="555" d="M113 0v1446h325v-1446h-325zM150 1579l53 254h336l-193 -254h-196z" />
<glyph unicode="&#xce;" horiz-adv-x="555" d="M-63 1575l178 256h327l174 -256h-233l-107 139l-100 -139h-239zM113 0v1446h325v-1446h-325z" />
<glyph unicode="&#xcf;" horiz-adv-x="555" d="M-102 1577v256h266v-256h-266zM113 0v1446h325v-1446h-325zM379 1577v256h266v-256h-266z" />
<glyph unicode="&#xd0;" horiz-adv-x="1409" d="M0 588v248h113v612h327v-1448h-327v588h-113zM494 0v268q115 -2 179 3.5t113 23.5q59 20 101 65.5t64.5 108t32 127.5t9.5 139q0 61 -8 116.5t-27.5 114.5t-59 105.5t-95.5 71.5q-50 21 -113 27t-196 8v270h157q202 -1 330.5 -61t218.5 -185q139 -199 139 -479 q0 -159 -50 -301.5t-152 -247.5q-45 -46 -99.5 -79t-99.5 -50t-108 -27.5t-99 -13t-100 -4.5h-137zM494 588v248h315v-248h-315z" />
<glyph unicode="&#xd1;" horiz-adv-x="1409" d="M117 0v1350l311 -523l14 -827h-325zM117 1446h313l862 -1446h-307zM391 1581q2 25 3.5 39.5t6.5 43.5t12 47.5t20.5 42t30.5 37.5t43.5 24t59.5 10q13 0 25.5 -1t32.5 -5t31.5 -6.5t44 -10t47.5 -10.5q49 -12 67 -12q17 0 28.5 5t17 14t7 15t2.5 15h162 q-7 -129 -55 -190.5t-139 -61.5q-33 0 -78 10q-7 1 -76.5 19t-85.5 18q-17 0 -28.5 -8.5t-14.5 -15t-8 -19.5h-156zM969 1446h323v-1340l-311 525z" />
<glyph unicode="&#xd2;" horiz-adv-x="1579" d="M68 731q0 113 24 217.5t77.5 200.5t132.5 168t196 117.5t260 52.5v-275q-99 -12 -170 -60.5t-108 -119.5t-53.5 -144.5t-16.5 -154.5q0 -228 110 -362q48 -59 104.5 -85t133.5 -34v-279q-136 2 -250.5 46t-194.5 117t-136 169.5t-82.5 204t-26.5 221.5zM524 1833h334 l45 -256h-192zM813 -27v279q80 10 138 35.5t106 85.5q63 75 84.5 163t21.5 193q0 216 -90.5 338.5t-259.5 144.5v275q121 -8 222.5 -41t171 -81t123.5 -112.5t86 -129.5t52.5 -138t27.5 -133t7 -119q0 -214 -82 -381.5t-239 -267.5t-369 -111z" />
<glyph unicode="&#xd3;" horiz-adv-x="1579" d="M68 731q0 113 24 217.5t77.5 200.5t132.5 168t196 117.5t260 52.5v-275q-99 -12 -170 -60.5t-108 -119.5t-53.5 -144.5t-16.5 -154.5q0 -228 110 -362q48 -59 104.5 -85t133.5 -34v-279q-136 2 -250.5 46t-194.5 117t-136 169.5t-82.5 204t-26.5 221.5zM662 1579l53 254 h336l-193 -254h-196zM813 -27v279q80 10 138 35.5t106 85.5q63 75 84.5 163t21.5 193q0 216 -90.5 338.5t-259.5 144.5v275q121 -8 222.5 -41t171 -81t123.5 -112.5t86 -129.5t52.5 -138t27.5 -133t7 -119q0 -214 -82 -381.5t-239 -267.5t-369 -111z" />
<glyph unicode="&#xd4;" horiz-adv-x="1579" d="M68 731q0 113 24 217.5t77.5 200.5t132.5 168t196 117.5t260 52.5v-275q-99 -12 -170 -60.5t-108 -119.5t-53.5 -144.5t-16.5 -154.5q0 -228 110 -362q48 -59 104.5 -85t133.5 -34v-279q-136 2 -250.5 46t-194.5 117t-136 169.5t-82.5 204t-26.5 221.5zM449 1575l178 256 h327l174 -256h-233l-107 139l-100 -139h-239zM813 -27v279q80 10 138 35.5t106 85.5q63 75 84.5 163t21.5 193q0 216 -90.5 338.5t-259.5 144.5v275q121 -8 222.5 -41t171 -81t123.5 -112.5t86 -129.5t52.5 -138t27.5 -133t7 -119q0 -214 -82 -381.5t-239 -267.5t-369 -111z " />
<glyph unicode="&#xd5;" horiz-adv-x="1579" d="M68 731q0 113 24 217.5t77.5 200.5t132.5 168t196 117.5t260 52.5v-275q-99 -12 -170 -60.5t-108 -119.5t-53.5 -144.5t-16.5 -154.5q0 -228 110 -362q48 -59 104.5 -85t133.5 -34v-279q-136 2 -250.5 46t-194.5 117t-136 169.5t-82.5 204t-26.5 221.5zM475 1581 q2 25 3.5 39.5t6.5 43.5t12 47.5t20.5 42t30.5 37.5t43.5 24t59.5 10q13 0 25.5 -1t32 -5t31.5 -6.5t43 -9.5t48 -11q49 -12 68 -12q17 0 28.5 5t17 14t7 15t2.5 15h162q-7 -129 -55 -190.5t-139 -61.5q-33 0 -78 10q-7 1 -76.5 19t-85.5 18q-17 0 -28.5 -8.5t-14.5 -15 t-8 -19.5h-156zM813 -27v279q80 10 138 35.5t106 85.5q63 75 84.5 163t21.5 193q0 216 -90.5 338.5t-259.5 144.5v275q121 -8 222.5 -41t171 -81t123.5 -112.5t86 -129.5t52.5 -138t27.5 -133t7 -119q0 -214 -82 -381.5t-239 -267.5t-369 -111z" />
<glyph unicode="&#xd6;" horiz-adv-x="1579" d="M68 731q0 113 24 217.5t77.5 200.5t132.5 168t196 117.5t260 52.5v-275q-99 -12 -170 -60.5t-108 -119.5t-53.5 -144.5t-16.5 -154.5q0 -228 110 -362q48 -59 104.5 -85t133.5 -34v-279q-136 2 -250.5 46t-194.5 117t-136 169.5t-82.5 204t-26.5 221.5zM410 1579v256h266 v-256h-266zM813 -27v279q80 10 138 35.5t106 85.5q63 75 84.5 163t21.5 193q0 216 -90.5 338.5t-259.5 144.5v275q121 -8 222.5 -41t171 -81t123.5 -112.5t86 -129.5t52.5 -138t27.5 -133t7 -119q0 -214 -82 -381.5t-239 -267.5t-369 -111zM891 1579v256h266v-256h-266z" />
<glyph unicode="&#xd8;" horiz-adv-x="1579" d="M70 723q0 105 21 205t72.5 198t128.5 173t198 124.5t272 57.5v-277q-65 -4 -123.5 -32t-110.5 -83.5t-83 -152t-31 -223.5q0 -147 55 -264l551 669q-48 41 -89.5 60t-115.5 26v277q228 -8 397 -127l144 174l104 -86l-147 -178q24 -28 41 -49.5t48 -74.5t50.5 -106.5 t35 -137t15.5 -175.5q0 -168 -53 -308.5t-145.5 -236t-218 -150t-271.5 -59.5v279q157 13 252.5 132t95.5 339q0 163 -57 293l-555 -676q37 -36 84 -58.5t127 -29.5v-279q-80 3 -145 15t-116 34t-78.5 37.5t-68.5 42.5l-129 -153l-102 82l133 165q-34 43 -56 77.5t-57 104 t-54 159t-19 192.5z" />
<glyph unicode="&#xd9;" horiz-adv-x="1366" d="M98 526v920h328v-885q0 -39 1 -62.5t5.5 -59.5t13 -58t25 -49t40 -43t60 -28.5t82.5 -16.5v-279q-175 0 -307 62q-50 23 -88.5 53.5t-64 60.5t-43.5 72t-27.5 73.5t-15 81t-7 78.5t-2.5 80zM418 1833h334l45 -256h-193zM707 -35v279q47 5 83.5 18t60 28t40 42t25 48.5 t13 59.5t5 62t0.5 69v875h328v-875q2 -36 0 -74.5t-3.5 -78t-10 -79.5t-20 -78t-33.5 -73.5t-50.5 -67.5t-71 -58.5t-94 -47t-121 -33t-151.5 -16.5z" />
<glyph unicode="&#xda;" horiz-adv-x="1366" d="M98 526v920h328v-885q0 -39 1 -62.5t5.5 -59.5t13 -58t25 -49t40 -43t60 -28.5t82.5 -16.5v-279q-175 0 -307 62q-50 23 -88.5 53.5t-64 60.5t-43.5 72t-27.5 73.5t-15 81t-7 78.5t-2.5 80zM555 1579l53 254h336l-192 -254h-197zM707 -35v279q47 5 83.5 18t60 28t40 42 t25 48.5t13 59.5t5 62t0.5 69v875h328v-875q2 -36 0 -74.5t-3.5 -78t-10 -79.5t-20 -78t-33.5 -73.5t-50.5 -67.5t-71 -58.5t-94 -47t-121 -33t-151.5 -16.5z" />
<glyph unicode="&#xdb;" horiz-adv-x="1366" d="M98 526v920h328v-885q0 -39 1 -62.5t5.5 -59.5t13 -58t25 -49t40 -43t60 -28.5t82.5 -16.5v-279q-175 0 -307 62q-50 23 -88.5 53.5t-64 60.5t-43.5 72t-27.5 73.5t-15 81t-7 78.5t-2.5 80zM342 1575l178 256h328l174 -256h-234l-106 139l-100 -139h-240zM707 -35v279 q47 5 83.5 18t60 28t40 42t25 48.5t13 59.5t5 62t0.5 69v875h328v-875q2 -36 0 -74.5t-3.5 -78t-10 -79.5t-20 -78t-33.5 -73.5t-50.5 -67.5t-71 -58.5t-94 -47t-121 -33t-151.5 -16.5z" />
<glyph unicode="&#xdc;" horiz-adv-x="1366" d="M98 526v920h328v-885q0 -39 1 -62.5t5.5 -59.5t13 -58t25 -49t40 -43t60 -28.5t82.5 -16.5v-279q-175 0 -307 62q-50 23 -88.5 53.5t-64 60.5t-43.5 72t-27.5 73.5t-15 81t-7 78.5t-2.5 80zM305 1577v256h266v-256h-266zM707 -35v279q47 5 83.5 18t60 28t40 42t25 48.5 t13 59.5t5 62t0.5 69v875h328v-875q2 -36 0 -74.5t-3.5 -78t-10 -79.5t-20 -78t-33.5 -73.5t-50.5 -67.5t-71 -58.5t-94 -47t-121 -33t-151.5 -16.5zM786 1577v256h267v-256h-267z" />
<glyph unicode="&#xdd;" horiz-adv-x="1280" d="M-10 1446h362l449 -905v-541h-326v541zM512 1579l53 254h336l-192 -254h-197zM670 926l260 520h360l-456 -850z" />
<glyph unicode="&#xde;" horiz-adv-x="1280" d="M115 0v1448h327v-1448h-327zM496 264v268h104q130 0 180 17q43 14 72.5 43t40.5 63t14.5 54t3.5 36q0 102 -69 156q-39 30 -81 37.5t-126 9.5h-139v264h155q74 -1 114 -3t101 -10.5t110 -28t91 -50.5q74 -55 121 -152t47 -235q0 -116 -47 -218t-135 -165 q-40 -28 -80 -44.5t-95 -25t-95.5 -11t-123.5 -5.5h-163z" />
<glyph unicode="&#xdf;" d="M117 0v1018q1 49 3.5 82t13 83.5t28.5 85t52 75t81.5 66.5t119.5 46.5t163 26.5v-248q-41 -8 -68.5 -23.5t-44 -36.5t-24.5 -56t-10 -71.5t-1 -93.5v-954h-313zM512 0v223q100 -8 113 -8q95 0 143 37q47 33 70.5 94t23.5 125q0 56 -14 99t-39.5 67.5t-50 40t-56.5 21 t-47 7t-34 1.5q-48 0 -109 -5v216q38 -3 72 -3q53 0 85.5 6.5t61.5 26.5q62 45 62 127q0 12 -1.5 25t-11 35.5t-25 40.5t-48 35t-76.5 24v248q148 0 252 -49q100 -45 156.5 -129.5t56.5 -194.5q0 -82 -43.5 -159t-128.5 -120q120 -56 181.5 -157t61.5 -236q0 -102 -41 -213 t-131 -176q-109 -78 -284 -78q-21 0 -39.5 1t-30.5 2t-32.5 5t-27 5.5t-34 7.5t-35.5 8z" />
<glyph unicode="&#xe0;" horiz-adv-x="1193" d="M53 319q0 54 13 100t32.5 77.5t50 58t56.5 42t63 29t58 19t51 12.5q21 5 162.5 30.5t169.5 31.5v-217q-16 -4 -101.5 -22t-99.5 -21q-69 -20 -102 -49.5t-33 -79.5q0 -53 39.5 -86t107.5 -33q106 0 189 61q-7 -65 -7 -106q0 -9 3.5 -62.5t3.5 -62.5q-96 -78 -273 -78 q-163 0 -273 95.5t-110 260.5zM115 752q12 189 134.5 287t340.5 98q222 0 340 -86q33 -23 58 -50t40 -59t24.5 -57.5t14 -64.5t6 -60.5t2.5 -63.5v-477q0 -84 7.5 -127t33.5 -90h-336q-22 53 -24 164v565q1 25 0 40t-9 41t-24.5 40.5t-50 26.5t-82.5 12q-17 0 -33 -1.5 t-45 -9t-50 -21t-38 -41.5t-18 -66h-291zM281 1542h352l100 -303h-201z" />
<glyph unicode="&#xe1;" horiz-adv-x="1193" d="M53 319q0 54 13 100t32.5 77.5t50 58t56.5 42t63 29t58 19t51 12.5q21 5 162.5 30.5t169.5 31.5v-217q-16 -4 -101.5 -22t-99.5 -21q-69 -20 -102 -49.5t-33 -79.5q0 -53 39.5 -86t107.5 -33q106 0 189 61q-7 -65 -7 -106q0 -9 3.5 -62.5t3.5 -62.5q-96 -78 -273 -78 q-163 0 -273 95.5t-110 260.5zM115 752q12 189 134.5 287t340.5 98q222 0 340 -86q33 -23 58 -50t40 -59t24.5 -57.5t14 -64.5t6 -60.5t2.5 -63.5v-477q0 -84 7.5 -127t33.5 -90h-336q-22 53 -24 164v565q1 25 0 40t-9 41t-24.5 40.5t-50 26.5t-82.5 12q-17 0 -33 -1.5 t-45 -9t-50 -21t-38 -41.5t-18 -66h-291zM469 1241l92 305h336l-227 -305h-201z" />
<glyph unicode="&#xe2;" horiz-adv-x="1193" d="M53 319q0 54 13 100t32.5 77.5t50 58t56.5 42t63 29t58 19t51 12.5q21 5 162.5 30.5t169.5 31.5v-217q-16 -4 -101.5 -22t-99.5 -21q-69 -20 -102 -49.5t-33 -79.5q0 -53 39.5 -86t107.5 -33q106 0 189 61q-7 -65 -7 -106q0 -9 3.5 -62.5t3.5 -62.5q-96 -78 -273 -78 q-163 0 -273 95.5t-110 260.5zM115 752q12 189 134.5 287t340.5 98q222 0 340 -86q33 -23 58 -50t40 -59t24.5 -57.5t14 -64.5t6 -60.5t2.5 -63.5v-477q0 -84 7.5 -127t33.5 -90h-336q-22 53 -24 164v565q1 25 0 40t-9 41t-24.5 40.5t-50 26.5t-82.5 12q-17 0 -33 -1.5 t-45 -9t-50 -21t-38 -41.5t-18 -66h-291zM262 1231l199 311h291l182 -311h-229l-103 174l-104 -174h-236z" />
<glyph unicode="&#xe3;" horiz-adv-x="1193" d="M53 319q0 54 13 100t32.5 77.5t50 58t56.5 42t63 29t58 19t51 12.5q21 5 162.5 30.5t169.5 31.5v-217q-16 -4 -101.5 -22t-99.5 -21q-69 -20 -102 -49.5t-33 -79.5q0 -53 39.5 -86t107.5 -33q106 0 189 61q-7 -65 -7 -106q0 -9 3.5 -62.5t3.5 -62.5q-96 -78 -273 -78 q-163 0 -273 95.5t-110 260.5zM115 752q12 189 134.5 287t340.5 98q222 0 340 -86q33 -23 58 -50t40 -59t24.5 -57.5t14 -64.5t6 -60.5t2.5 -63.5v-477q0 -84 7.5 -127t33.5 -90h-336q-22 53 -24 164v565q1 25 0 40t-9 41t-24.5 40.5t-50 26.5t-82.5 12q-17 0 -33 -1.5 t-45 -9t-50 -21t-38 -41.5t-18 -66h-291zM299 1323q0 101 41 158q51 59 123 59q13 0 37 -4q16 -2 94.5 -36t85.5 -36q20 -8 37 -8q61 0 61 82h135q5 -50 5 -90q0 -31 -2 -55.5t-10.5 -56t-23 -52.5t-42 -36t-64.5 -15q-35 0 -71 12q-10 4 -57 24.5t-88.5 37t-55.5 16.5 q-19 0 -31.5 -8.5t-17 -25t-5.5 -27t-1 -27.5h-146q-4 55 -4 88z" />
<glyph unicode="&#xe4;" horiz-adv-x="1193" d="M53 319q0 54 13 100t32.5 77.5t50 58t56.5 42t63 29t58 19t51 12.5q21 5 162.5 30.5t169.5 31.5v-217q-16 -4 -101.5 -22t-99.5 -21q-69 -20 -102 -49.5t-33 -79.5q0 -53 39.5 -86t107.5 -33q106 0 189 61q-7 -65 -7 -106q0 -9 3.5 -62.5t3.5 -62.5q-96 -78 -273 -78 q-163 0 -273 95.5t-110 260.5zM115 752q12 189 134.5 287t340.5 98q222 0 340 -86q33 -23 58 -50t40 -59t24.5 -57.5t14 -64.5t6 -60.5t2.5 -63.5v-477q0 -84 7.5 -127t33.5 -90h-336q-22 53 -24 164v565q1 25 0 40t-9 41t-24.5 40.5t-50 26.5t-82.5 12q-17 0 -33 -1.5 t-45 -9t-50 -21t-38 -41.5t-18 -66h-291zM287 1245v256h284v-256h-284zM737 1245v256h281v-256h-281z" />
<glyph unicode="&#xe5;" horiz-adv-x="1193" d="M53 319q0 54 13 100t32.5 77.5t50 58t56.5 42t63 29t58 19t51 12.5q21 5 162.5 30.5t169.5 31.5v-217q-16 -4 -101.5 -22t-99.5 -21q-69 -20 -102 -49.5t-33 -79.5q0 -53 39.5 -86t107.5 -33q106 0 189 61q-7 -65 -7 -106q0 -9 3.5 -62.5t3.5 -62.5q-96 -78 -273 -78 q-163 0 -273 95.5t-110 260.5zM115 752q12 189 134.5 287t340.5 98q222 0 340 -86q33 -23 58 -50t40 -59t24.5 -57.5t14 -64.5t6 -60.5t2.5 -63.5v-477q0 -84 7.5 -127t33.5 -90h-336q-22 53 -24 164v565q1 25 0 40t-9 41t-24.5 40.5t-50 26.5t-82.5 12q-17 0 -33 -1.5 t-45 -9t-50 -21t-38 -41.5t-18 -66h-291zM444 1370q-8 84 47 149.5t154 65.5q94 0 146.5 -60t52.5 -139q0 -92 -61 -144t-140 -52q-86 0 -139.5 53t-59.5 127zM567 1384q0 -33 23 -53t53 -20q31 0 54.5 22t23.5 56q0 30 -20.5 53.5t-57.5 23.5q-32 0 -54 -24t-22 -58z" />
<glyph unicode="&#xe6;" horiz-adv-x="1961" d="M57 342q0 74 21.5 130.5t51.5 93.5t88.5 63t105 39t131 19.5t136 7.5t148.5 1v-231h-30q-51 0 -83.5 -0.5t-71.5 -3.5t-63 -8t-48.5 -13.5t-37.5 -21.5t-21.5 -32t-8.5 -44q0 -60 43 -95.5t123 -35.5q42 0 77.5 9.5t56.5 21t41.5 31.5t28 31t19.5 30q37 -127 123 -230 q-38 -30 -67 -48.5t-79 -42t-114 -35t-142 -11.5q-197 0 -312.5 96.5t-115.5 278.5zM109 762q4 25 7 41t12 48.5t19.5 55.5t31 55.5t45.5 55t62.5 47.5t82.5 40.5t106.5 25.5t132.5 10q238 0 379 -117q153 121 371 121q266 0 416 -197q37 -48 63 -107.5t38.5 -103.5 t19.5 -107.5t8 -87.5t2 -75h-740q-10 52 -10 121q0 71 10 119h406q-35 192 -225 192q-50 0 -90.5 -15.5t-66 -38t-43.5 -56.5t-26.5 -61.5t-13.5 -64t-5.5 -52.5t-0.5 -38q0 -157 64 -248.5t200 -91.5q66 0 123.5 28.5t83.5 86.5l321 -20q-11 -25 -16 -36t-23 -44 t-32.5 -52.5t-41.5 -52t-54.5 -53t-68 -45.5t-84 -39.5t-100.5 -24.5t-120 -10q-79 0 -153 16.5t-146 53t-131 102.5t-93 156q-19 51 -27.5 104t-9.5 91t-1 129q0 44 -0.5 65.5t-4 56.5t-10.5 52t-21 39.5t-34.5 33t-51 18t-71.5 7.5q-45 0 -79.5 -10t-54 -22.5t-33.5 -33.5 t-19 -34.5t-11 -34.5z" />
<glyph unicode="&#xe7;" horiz-adv-x="1150" d="M68 551q0 121 31 221t82 166.5t120.5 113t143 68.5t151.5 25v-256q-201 -35 -201 -330q0 -155 62 -235q47 -63 139 -84v-271q-115 4 -207 40.5t-151 92.5t-98 131.5t-55.5 154t-16.5 163.5zM416 -485l131 172h-84v215h250v-215l-133 -172h-164zM651 -31v271 q83 13 121.5 57t56.5 131l312 -14q-11 -81 -42.5 -153t-88 -137t-148.5 -106.5t-211 -48.5zM651 889v256q199 -2 332 -121q42 -37 71 -78t44.5 -84.5t22 -69t12.5 -65.5l-310 -14q-17 89 -58.5 124.5t-113.5 51.5z" />
<glyph unicode="&#xe8;" d="M68 551q0 171 71.5 305.5t202 210.5t297.5 76q138 0 242.5 -53.5t169.5 -141.5q129 -170 129 -485h-725q-10 47 -13 115q0 68 13 124h393q-12 68 -45 115q-28 37 -72.5 57.5t-95.5 20.5q-47 0 -88.5 -16t-78.5 -51.5t-59 -102t-22 -156.5q0 -50 7.5 -96.5t26 -92.5 t46.5 -79.5t73.5 -54.5t102.5 -21q147 0 205 121l319 -22q-37 -97 -96 -170q-77 -92 -191.5 -138.5t-244.5 -46.5q-137 0 -247 46.5t-178.5 127.5t-105 185t-36.5 223zM299 1542h352l101 -303h-201z" />
<glyph unicode="&#xe9;" d="M68 551q0 171 71.5 305.5t202 210.5t297.5 76q138 0 242.5 -53.5t169.5 -141.5q129 -170 129 -485h-725q-10 47 -13 115q0 68 13 124h393q-12 68 -45 115q-28 37 -72.5 57.5t-95.5 20.5q-47 0 -88.5 -16t-78.5 -51.5t-59 -102t-22 -156.5q0 -50 7.5 -96.5t26 -92.5 t46.5 -79.5t73.5 -54.5t102.5 -21q147 0 205 121l319 -22q-37 -97 -96 -170q-77 -92 -191.5 -138.5t-244.5 -46.5q-137 0 -247 46.5t-178.5 127.5t-105 185t-36.5 223zM508 1241l92 305h336l-227 -305h-201z" />
<glyph unicode="&#xea;" d="M68 551q0 171 71.5 305.5t202 210.5t297.5 76q138 0 242.5 -53.5t169.5 -141.5q129 -170 129 -485h-725q-10 47 -13 115q0 68 13 124h393q-12 68 -45 115q-28 37 -72.5 57.5t-95.5 20.5q-47 0 -88.5 -16t-78.5 -51.5t-59 -102t-22 -156.5q0 -50 7.5 -96.5t26 -92.5 t46.5 -79.5t73.5 -54.5t102.5 -21q147 0 205 121l319 -22q-37 -97 -96 -170q-77 -92 -191.5 -138.5t-244.5 -46.5q-137 0 -247 46.5t-178.5 127.5t-105 185t-36.5 223zM301 1231l199 311h291l182 -311h-230l-102 174l-104 -174h-236z" />
<glyph unicode="&#xeb;" d="M68 551q0 171 71.5 305.5t202 210.5t297.5 76q138 0 242.5 -53.5t169.5 -141.5q129 -170 129 -485h-725q-10 47 -13 115q0 68 13 124h393q-12 68 -45 115q-28 37 -72.5 57.5t-95.5 20.5q-47 0 -88.5 -16t-78.5 -51.5t-59 -102t-22 -156.5q0 -50 7.5 -96.5t26 -92.5 t46.5 -79.5t73.5 -54.5t102.5 -21q147 0 205 121l319 -22q-37 -97 -96 -170q-77 -92 -191.5 -138.5t-244.5 -46.5q-137 0 -247 46.5t-178.5 127.5t-105 185t-36.5 223zM276 1237v256h285v-256h-285zM727 1237v256h281v-256h-281z" />
<glyph unicode="&#xec;" horiz-adv-x="555" d="M-43 1542h352l101 -303h-201zM119 0v1110h315v-1110h-315z" />
<glyph unicode="&#xed;" horiz-adv-x="555" d="M119 0v1110h315v-1110h-315zM145 1241l93 305h335l-227 -305h-201z" />
<glyph unicode="&#xee;" horiz-adv-x="555" d="M-61 1231l198 311h291l182 -311h-229l-102 174l-105 -174h-235zM119 0v1110h315v-1110h-315z" />
<glyph unicode="&#xef;" horiz-adv-x="555" d="M-86 1237v256h285v-256h-285zM119 0v1110h315v-1110h-315zM365 1237v256h280v-256h-280z" />
<glyph unicode="&#xf0;" horiz-adv-x="1280" d="M63 557q0 131 44.5 242.5t120.5 185.5t175.5 115t210.5 41q20 0 58 -6q48 -77 75.5 -136t61.5 -165q-90 59 -164 59q-54 0 -105 -23.5t-85 -66.5q-68 -84 -68 -248q0 -60 9.5 -109t23.5 -81.5t36.5 -58t41 -39t45 -24t40 -13.5t33.5 -7v-258q-103 6 -188 34t-141 68 t-98.5 94.5t-65.5 106.5t-37.5 110t-18.5 99t-4 80zM287 1290l262 58q-41 35 -103 84l302 75q38 -38 102 -94l203 43l61 -135l-151 -33q54 -68 95.5 -133.5t80 -149.5t59.5 -183.5t21 -207.5q0 -141 -33.5 -257t-120.5 -210q-150 -164 -395 -178v256q223 39 223 350 q0 106 -18.5 204.5t-40.5 162t-59.5 128.5t-56 90.5t-48.5 62.5l-324 -70z" />
<glyph unicode="&#xf1;" d="M115 0v1108h319v-1108h-319zM317 1323q0 101 41 158q51 59 123 59q13 0 37 -4q16 -2 94.5 -36t85.5 -36q20 -8 37 -8q62 0 62 82h135q4 -40 4 -90q0 -40 -4 -70.5t-17 -67t-43.5 -57t-76.5 -20.5q-36 0 -72 12q-10 4 -57 24.5t-88.5 37t-55.5 16.5q-19 0 -31.5 -8.5 t-17 -25t-5.5 -27t-1 -27.5h-145q-5 69 -5 88zM487 782v252q63 46 118.5 69t135.5 23q137 0 234 -71q41 -29 70 -68t43.5 -73t23 -82t10 -75.5t2.5 -74.5v-682h-321v668q0 21 -2 40t-11.5 48.5t-26 50t-48.5 36t-76 15.5q-93 0 -152 -76z" />
<glyph unicode="&#xf2;" horiz-adv-x="1280" d="M63 555q0 115 34.5 215.5t101 181t173.5 131.5t244 62v-254q-229 -31 -229 -334q0 -70 11.5 -125t33.5 -89t44 -57t52 -35.5t47.5 -17.5t40.5 -8v-260q-106 6 -193 36t-143.5 72t-98.5 99.5t-64 109.5t-35 110.5t-16 94t-3 68.5zM322 1542h352l100 -303h-201zM670 -35 v260q21 5 35 9t39.5 15.5t43 26.5t39 41t35 59t22.5 82.5t9 108.5q0 147 -58 229.5t-165 94.5v254q118 -7 213.5 -45.5t156.5 -96t102 -132t58 -150t17 -154.5q0 -112 -34 -214t-99.5 -185.5t-172 -137.5t-241.5 -65z" />
<glyph unicode="&#xf3;" horiz-adv-x="1280" d="M63 555q0 115 34.5 215.5t101 181t173.5 131.5t244 62v-254q-229 -31 -229 -334q0 -70 11.5 -125t33.5 -89t44 -57t52 -35.5t47.5 -17.5t40.5 -8v-260q-106 6 -193 36t-143.5 72t-98.5 99.5t-64 109.5t-35 110.5t-16 94t-3 68.5zM510 1241l92 305h336l-227 -305h-201z M670 -35v260q21 5 35 9t39.5 15.5t43 26.5t39 41t35 59t22.5 82.5t9 108.5q0 147 -58 229.5t-165 94.5v254q118 -7 213.5 -45.5t156.5 -96t102 -132t58 -150t17 -154.5q0 -112 -34 -214t-99.5 -185.5t-172 -137.5t-241.5 -65z" />
<glyph unicode="&#xf4;" horiz-adv-x="1280" d="M63 555q0 115 34.5 215.5t101 181t173.5 131.5t244 62v-254q-229 -31 -229 -334q0 -70 11.5 -125t33.5 -89t44 -57t52 -35.5t47.5 -17.5t40.5 -8v-260q-106 6 -193 36t-143.5 72t-98.5 99.5t-64 109.5t-35 110.5t-16 94t-3 68.5zM303 1231l199 311h291l182 -311h-230 l-102 174l-104 -174h-236zM670 -35v260q21 5 35 9t39.5 15.5t43 26.5t39 41t35 59t22.5 82.5t9 108.5q0 147 -58 229.5t-165 94.5v254q118 -7 213.5 -45.5t156.5 -96t102 -132t58 -150t17 -154.5q0 -112 -34 -214t-99.5 -185.5t-172 -137.5t-241.5 -65z" />
<glyph unicode="&#xf5;" horiz-adv-x="1280" d="M63 555q0 115 34.5 215.5t101 181t173.5 131.5t244 62v-254q-229 -31 -229 -334q0 -70 11.5 -125t33.5 -89t44 -57t52 -35.5t47.5 -17.5t40.5 -8v-260q-106 6 -193 36t-143.5 72t-98.5 99.5t-64 109.5t-35 110.5t-16 94t-3 68.5zM340 1323q0 101 41 158q51 59 123 59 q13 0 37 -4q16 -2 94.5 -36t85.5 -36q20 -8 37 -8q61 0 61 82h135q4 -40 4 -90q0 -40 -4 -70.5t-17 -67t-43.5 -57t-76.5 -20.5q-36 0 -72 12q-10 4 -56.5 24.5t-88 37t-55.5 16.5q-56 0 -56 -88h-145q-4 55 -4 88zM670 -35v260q21 5 35 9t39.5 15.5t43 26.5t39 41t35 59 t22.5 82.5t9 108.5q0 147 -58 229.5t-165 94.5v254q118 -7 213.5 -45.5t156.5 -96t102 -132t58 -150t17 -154.5q0 -112 -34 -214t-99.5 -185.5t-172 -137.5t-241.5 -65z" />
<glyph unicode="&#xf6;" horiz-adv-x="1280" d="M63 555q0 115 34.5 215.5t101 181t173.5 131.5t244 62v-254q-229 -31 -229 -334q0 -70 11.5 -125t33.5 -89t44 -57t52 -35.5t47.5 -17.5t40.5 -8v-260q-106 6 -193 36t-143.5 72t-98.5 99.5t-64 109.5t-35 110.5t-16 94t-3 68.5zM279 1247v256h284v-256h-284zM670 -35 v260q21 5 35 9t39.5 15.5t43 26.5t39 41t35 59t22.5 82.5t9 108.5q0 147 -58 229.5t-165 94.5v254q118 -7 213.5 -45.5t156.5 -96t102 -132t58 -150t17 -154.5q0 -112 -34 -214t-99.5 -185.5t-172 -137.5t-241.5 -65zM729 1247v256h281v-256h-281z" />
<glyph unicode="&#xf8;" horiz-adv-x="1280" d="M59 549q0 270 154.5 431t396.5 169v-250q-51 -8 -88 -25q-50 -24 -83.5 -67.5t-47 -94t-18 -84t-4.5 -65.5q0 -103 26 -174l406 459q-36 25 -64 36t-73 15v250q90 -3 161 -24t158 -72l127 143l92 -82l-125 -145q21 -30 33.5 -48.5t35.5 -61.5t36 -82t24 -97t11 -119 q0 -81 -18.5 -158.5t-60.5 -153t-104.5 -133.5t-157.5 -97.5t-212 -47.5v254q67 10 108 39q63 39 98 118.5t35 176.5q0 106 -31 180l-403 -454q47 -43 139 -60v-254q-102 4 -176 29.5t-149 75.5l-123 -144l-96 84l129 148q-27 34 -43.5 58t-41.5 73t-38 113.5t-13 140.5z " />
<glyph unicode="&#xf9;" d="M115 455v653h319v-639q2 -69 8.5 -105.5t28.5 -66.5q25 -33 62.5 -48.5t72.5 -15.5q16 0 31 2t28.5 7t23 9.5t21 12t16.5 11t15 11.5t11 9v-236q-63 -41 -123.5 -64.5t-141.5 -23.5q-79 0 -162 30.5t-135 104.5q-26 35 -41.5 76t-22.5 94.5t-8.5 85t-2.5 93.5zM299 1542 h352l101 -303h-201zM805 0v1108h317v-1108h-317z" />
<glyph unicode="&#xfa;" d="M115 455v653h319v-639q2 -69 8.5 -105.5t28.5 -66.5q25 -33 62.5 -48.5t72.5 -15.5q16 0 31 2t28.5 7t23 9.5t21 12t16.5 11t15 11.5t11 9v-236q-63 -41 -123.5 -64.5t-141.5 -23.5q-79 0 -162 30.5t-135 104.5q-26 35 -41.5 76t-22.5 94.5t-8.5 85t-2.5 93.5zM487 1241 l93 305h335l-227 -305h-201zM805 0v1108h317v-1108h-317z" />
<glyph unicode="&#xfb;" d="M115 455v653h319v-639q2 -69 8.5 -105.5t28.5 -66.5q25 -33 62.5 -48.5t72.5 -15.5q16 0 31 2t28.5 7t23 9.5t21 12t16.5 11t15 11.5t11 9v-236q-63 -41 -123.5 -64.5t-141.5 -23.5q-79 0 -162 30.5t-135 104.5q-26 35 -41.5 76t-22.5 94.5t-8.5 85t-2.5 93.5zM281 1231 l198 311h291l182 -311h-229l-102 174l-105 -174h-235zM805 0v1108h317v-1108h-317z" />
<glyph unicode="&#xfc;" d="M115 455v653h319v-639q2 -69 8.5 -105.5t28.5 -66.5q25 -33 62.5 -48.5t72.5 -15.5q16 0 31 2t28.5 7t23 9.5t21 12t16.5 11t15 11.5t11 9v-236q-63 -41 -123.5 -64.5t-141.5 -23.5q-79 0 -162 30.5t-135 104.5q-26 35 -41.5 76t-22.5 94.5t-8.5 85t-2.5 93.5zM258 1245 v256h285v-256h-285zM709 1245v256h280v-256h-280zM805 0v1108h317v-1108h-317z" />
<glyph unicode="&#xfd;" horiz-adv-x="1067" d="M-2 1110h346l330 -1173q-20 -49 -34 -80t-32.5 -62t-35 -48.5t-41.5 -34t-51 -24.5t-65.5 -15t-82.5 -9.5t-105 -3.5h-125v252h101q80 0 112 22q25 19 38.5 52.5t13.5 62.5q0 20 -11 57zM403 1241l93 305h335l-227 -305h-201zM569 506l162 604h338l-364 -1081z" />
<glyph unicode="&#xfe;" d="M115 -348v1796h317v-1796h-317zM485 27v266q17 -16 29.5 -25t42 -18.5t66.5 -9.5q105 0 167 88.5t62 238.5q0 147 -56 232.5t-159 85.5q-92 0 -152 -60v248q89 72 228 72q210 0 335.5 -161t125.5 -425q0 -137 -39 -249.5t-105 -184.5t-151.5 -111t-180.5 -39 q-106 0 -213 52z" />
<glyph unicode="&#xff;" horiz-adv-x="1067" d="M-2 1110h346l330 -1173q-20 -49 -34 -80t-32.5 -62t-35 -48.5t-41.5 -34t-51 -24.5t-65.5 -15t-82.5 -9.5t-105 -3.5h-125v252h101q80 0 112 22q25 19 38.5 52.5t13.5 62.5q0 20 -11 57zM172 1237v256h285v-256h-285zM569 506l162 604h338l-364 -1081zM623 1237v256h280 v-256h-280z" />
<glyph unicode="&#x152;" horiz-adv-x="2174" d="M72 735q0 63 7 126t26.5 136.5t49.5 138.5t79.5 127.5t113.5 108t156 76t201 35.5v-289q-129 -31 -205 -137q-84 -120 -84 -338q0 -99 18 -174.5t66 -143.5q39 -56 85 -86t120 -51v-297q-275 0 -441 172q-192 200 -192 596zM760 -29v291q54 -1 102 13.5t78 34t57 48 t38.5 45t21.5 35.5v596q-41 68 -94 107q-87 62 -203 59v283q88 -5 153 -23.5t144 -68.5v57h323v-1448h-323v70q-93 -52 -150.5 -72t-146.5 -27zM1434 0v274h688v-274h-688zM1434 631v260h618v-260h-618zM1434 1184v264h667v-264h-667z" />
<glyph unicode="&#x153;" horiz-adv-x="2048" d="M66 551q0 258 147.5 415.5t394.5 174.5v-254q-74 -16 -116 -49q-103 -77 -103 -275q0 -166 76 -254q49 -62 143 -76v-264q-129 7 -233.5 56t-171 128.5t-102 181t-35.5 216.5zM662 -29v260q19 4 32 7.5t37.5 15t42 25t38.5 39.5t34 58.5t22 81t9 107.5q0 147 -58 230 q-24 33 -56 54t-51.5 26.5t-49.5 11.5v254q69 -4 130 -20t107.5 -40.5t74 -43t56.5 -42.5q32 29 62.5 51t79 47.5t114 39.5t141.5 14q188 0 322 -94q46 -33 83.5 -76t62 -84.5t42.5 -94t27 -92t15 -92t7.5 -81t2.5 -70.5h-742q-14 72 -14 123q0 47 14 119h406 q-12 91 -74.5 142.5t-151.5 51.5q-66 0 -115.5 -27t-76.5 -73.5t-40 -101.5t-13 -119q0 -42 4.5 -81.5t21 -91t43.5 -89t77 -63.5t116 -26q141 0 209 115l321 -16q-65 -168 -197.5 -263.5t-338.5 -95.5q-259 0 -408 156q-56 -45 -112 -76t-108 -46t-80 -20.5t-68 -9.5z" />
<glyph unicode="&#x178;" horiz-adv-x="1280" d="M-10 1446h362l449 -905v-541h-326v541zM260 1577v256h266v-256h-266zM670 926l260 520h360l-456 -850zM741 1577v256h267v-256h-267z" />
<glyph unicode="&#x2c6;" horiz-adv-x="598" d="M-37 1231l199 311h291l182 -311h-229l-103 174l-104 -174h-236z" />
<glyph unicode="&#x2dc;" horiz-adv-x="598" d="M-10 1323q0 101 41 158q51 59 123 59q12 0 36 -4q16 -2 95.5 -36t85.5 -36q20 -8 37 -8q61 0 61 82h135q4 -40 4 -90q0 -40 -4 -70.5t-17 -67t-43.5 -57t-76.5 -20.5q-36 0 -72 12q-10 4 -56.5 24.5t-88 37t-55.5 16.5q-56 0 -56 -88h-145q-4 55 -4 88z" />
<glyph unicode="&#x2000;" horiz-adv-x="972" />
<glyph unicode="&#x2001;" horiz-adv-x="1944" />
<glyph unicode="&#x2002;" horiz-adv-x="972" />
<glyph unicode="&#x2003;" horiz-adv-x="1944" />
<glyph unicode="&#x2004;" horiz-adv-x="648" />
<glyph unicode="&#x2005;" horiz-adv-x="486" />
<glyph unicode="&#x2006;" horiz-adv-x="324" />
<glyph unicode="&#x2007;" horiz-adv-x="324" />
<glyph unicode="&#x2008;" horiz-adv-x="243" />
<glyph unicode="&#x2009;" horiz-adv-x="388" />
<glyph unicode="&#x200a;" horiz-adv-x="108" />
<glyph unicode="&#x2010;" horiz-adv-x="768" d="M82 530v244h602v-244h-602z" />
<glyph unicode="&#x2011;" horiz-adv-x="768" d="M82 530v244h602v-244h-602z" />
<glyph unicode="&#x2012;" horiz-adv-x="768" d="M82 530v244h602v-244h-602z" />
<glyph unicode="&#x2013;" horiz-adv-x="1150" d="M78 528v248h989v-248h-989z" />
<glyph unicode="&#x2014;" horiz-adv-x="1366" d="M78 530v244h1202v-244h-1202z" />
<glyph unicode="&#x2018;" horiz-adv-x="512" d="M102 811v260q1 28 2 47.5t8 56t19 64t36 64t56.5 64t84 54.5t116.5 45v-112q-27 -13 -52 -30.5t-53 -46t-45.5 -70t-19.5 -89.5h152v-307h-304z" />
<glyph unicode="&#x2019;" horiz-adv-x="512" d="M94 797v110q156 72 166 236h-154v303h302v-266q0 -50 -3 -79.5t-19 -73t-48 -83.5q-24 -31 -53.5 -56t-51.5 -38.5t-54.5 -26t-45 -16t-39.5 -10.5z" />
<glyph unicode="&#x201a;" horiz-adv-x="512" d="M92 0v309h314v-270q-4 -71 -17 -123t-51 -106q-83 -109 -246 -152v115q31 19 47.5 30t42 33.5t39 43.5t24 52.5t9.5 67.5h-162z" />
<glyph unicode="&#x201c;" horiz-adv-x="937" d="M106 815v244q1 33 2.5 54t9 61.5t19.5 69.5t35 66.5t54.5 64.5t81 52t110.5 39v-114q-52 -27 -86.5 -59.5t-49 -66.5t-19.5 -54.5t-7 -47.5h162v-309h-312zM518 815v252q1 31 2 47t5.5 47.5t10 50.5t17.5 48t27.5 49t40 45t55 43.5t72.5 38t92 34.5v-116q-54 -26 -89 -56 t-51.5 -64t-22 -55t-9.5 -55h161v-309h-311z" />
<glyph unicode="&#x201d;" horiz-adv-x="937" d="M96 793v118q55 25 99 66q31 30 48 66t19 52t4 44h-160v307h312v-207q-1 -37 -2 -56.5t-4 -52.5t-8 -52.5t-13 -48.5t-20.5 -47.5t-29.5 -42.5t-40.5 -42t-53 -37t-67.5 -35.5t-84 -31.5zM520 797v114q42 22 72.5 49.5t46 50t25.5 51t12 42.5t4 35h-160v307h309v-234 q-1 -30 -2 -47t-4.5 -49.5t-9 -53t-16.5 -51.5t-26 -52.5t-38.5 -47.5t-53 -45t-70 -37.5t-89.5 -31.5z" />
<glyph unicode="&#x201e;" horiz-adv-x="937" d="M96 -227q53 26 88.5 55t51.5 61.5t22 55t10 55.5h-162v309h312v-239q-1 -39 -2 -60.5t-7.5 -62.5t-18 -67t-35.5 -62.5t-57 -62.5t-84.5 -52.5t-117.5 -46.5v117zM516 0v309h313v-270q-3 -48 -6.5 -77.5t-18.5 -71.5t-42 -80q-83 -109 -246 -152v115q31 19 47.5 30 t42 33.5t39 43.5t24 52.5t9.5 67.5h-162z" />
<glyph unicode="&#x2022;" horiz-adv-x="681" d="M49 721q0 119 85 206t212 87q120 0 203.5 -81.5t83.5 -209.5q0 -124 -79 -208.5t-206 -84.5q-132 0 -215.5 88t-83.5 203z" />
<glyph unicode="&#x2026;" horiz-adv-x="2048" d="M190 0v305h304v-305h-304zM872 0v305h304v-305h-304zM1554 0v305h304v-305h-304z" />
<glyph unicode="&#x202f;" horiz-adv-x="388" />
<glyph unicode="&#x2039;" horiz-adv-x="512" d="M86 455v250l317 280v-254l-167 -151l167 -144v-248z" />
<glyph unicode="&#x203a;" horiz-adv-x="512" d="M106 174v258l168 148l-168 141v252l320 -271v-249z" />
<glyph unicode="&#x205f;" horiz-adv-x="486" />
<glyph unicode="&#x2122;" horiz-adv-x="1406" d="M16 1327v119h570v-119h-209v-561h-146v561h-215zM643 766v680h188l164 -514l156 514h190v-680h-141l6 391q0 39 8 139q-3 -11 -13 -49.5t-17 -62.5l-127 -418h-129l-131 418q-2 8 -15.5 54t-15.5 54q7 -40 10 -135l8 -391h-141z" />
<glyph unicode="&#xe000;" horiz-adv-x="1105" d="M0 0v1106h1106v-1106h-1106z" />
<glyph unicode="&#xfb01;" horiz-adv-x="1280" d="M20 870v240h154q-1 92 13.5 151.5t53 102t105.5 62t172 22.5h187v-242q-109 0 -133.5 -1t-39.5 -7q-39 -20 -38 -88h211v-240h-211v-870h-320v870h-154zM842 0v1110h317v-1110h-317zM842 1167v281h317v-281h-317z" />
<glyph unicode="&#xfb02;" horiz-adv-x="1280" d="M20 870v240h154q-1 91 13.5 150t53 101.5t105.5 62t172 22.5h189v-240q-110 0 -135 -1t-40 -7q-39 -20 -38 -88h213v-240h-213v-870h-320v870h-154zM844 0v1446h315v-1446h-315z" />
</font>
</defs>
</svg>
